<svg xmlns="http://www.w3.org/2000/svg" xmlns:xlink="http://www.w3.org/1999/xlink" width="500" zoomAndPan="magnify" viewBox="0 0 375 374.999991" height="500" preserveAspectRatio="xMidYMid meet" version="1.0"><defs><g/><clipPath id="2c69e516d9"><path d="M 184 121 L 190 121 L 190 276.589844 L 184 276.589844 Z M 184 121 " clip-rule="nonzero"/></clipPath><clipPath id="94c2af7b10"><path d="M 93 79 L 286.046875 79 L 286.046875 186 L 93 186 Z M 93 79 " clip-rule="nonzero"/></clipPath></defs><rect x="-37.5" width="450" fill="#ffffff" y="-37.499999" height="449.999989" fill-opacity="1"/><rect x="-37.5" width="450" fill="#233c4b" y="-37.499999" height="449.999989" fill-opacity="1"/><g clip-path="url(#2c69e516d9)"><path fill="#cba4a9" d="M 187.835938 131.441406 C 187.835938 134.65625 187.375 137.261719 186.804688 137.261719 C 186.230469 137.261719 185.769531 134.65625 185.769531 131.441406 L 185.769531 129.742188 C 185.769531 126.527344 186.230469 123.921875 186.804688 123.921875 C 187.375 123.921875 187.835938 126.527344 187.835938 129.742188 Z M 189.328125 127.140625 C 189.296875 125.507812 189.199219 121.109375 186.785156 121.109375 C 184.707031 121.109375 184.386719 125.066406 184.355469 126.625 C 184.304688 128.996094 184.253906 131.367188 184.203125 133.742188 C 184.183594 134.648438 184.261719 137.917969 184.265625 138.828125 C 184.269531 139.84375 185.140625 197.683594 185.679688 238.742188 C 186.03125 265.757812 186.972656 276.507812 186.972656 276.507812 C 186.972656 276.507812 187.914062 262.691406 188.269531 238.507812 C 188.867188 197.457031 189.324219 139.859375 189.328125 138.867188 C 189.332031 138.722656 189.328125 135.824219 189.328125 135.679688 C 189.328125 132.835938 189.378906 129.984375 189.328125 127.140625 " fill-opacity="1" fill-rule="nonzero"/></g><g clip-path="url(#94c2af7b10)"><path fill="#cba4a9" d="M 180.039062 80.53125 C 178.46875 80.53125 177.003906 80.902344 175.820312 81.597656 C 173.21875 83.125 172.464844 85.875 173.753906 89.140625 C 174.488281 90.996094 175.578125 92.550781 176.917969 93.859375 C 177.246094 93.3125 177.609375 92.773438 178.007812 92.25 C 180.828125 88.558594 184.929688 86.449219 189.828125 86.097656 C 189.570312 85.734375 189.296875 85.375 189.011719 85.019531 C 186.476562 81.910156 183.0625 80.53125 180.039062 80.53125 Z M 177.550781 94.445312 C 181.535156 97.933594 187.351562 99.539062 192.441406 100.558594 C 192.472656 100.5625 192.945312 100.65625 193.746094 100.773438 C 194.039062 96.503906 193.179688 91.324219 190.363281 86.898438 C 184.328125 87.144531 180.726562 90.082031 178.675781 92.761719 C 178.261719 93.308594 177.886719 93.871094 177.550781 94.445312 Z M 194.570312 100.886719 C 196.746094 101.167969 200.320312 101.484375 204.050781 101.195312 C 204.765625 100.503906 205.265625 99.730469 205.511719 98.914062 C 206.195312 96.640625 205.945312 94.554688 204.773438 92.722656 C 202.621094 89.359375 197.875 87.601562 194.460938 87.117188 C 193.359375 86.964844 192.316406 86.886719 191.339844 86.882812 C 193.351562 90.238281 194.503906 94.261719 194.621094 98.488281 C 194.644531 99.300781 194.628906 100.105469 194.570312 100.886719 Z M 194.496094 101.726562 C 194.378906 102.828125 194.183594 103.878906 193.917969 104.835938 C 196.863281 104.609375 199.507812 103.910156 201.832031 102.738281 C 202.226562 102.535156 202.597656 102.320312 202.9375 102.089844 C 199.585938 102.25 196.480469 101.976562 194.496094 101.726562 Z M 175.324219 101.269531 C 178.953125 102.632812 182.625 103.878906 186.164062 104.445312 C 188.597656 104.835938 190.890625 104.984375 193.035156 104.890625 C 193.324219 103.90625 193.542969 102.804688 193.671875 101.613281 C 192.816406 101.488281 192.308594 101.390625 192.277344 101.382812 C 187.125 100.351562 181.253906 98.730469 177.132812 95.203125 C 176.105469 97.1875 175.53125 99.28125 175.324219 101.269531 Z M 175.257812 102.144531 C 175.15625 104.257812 175.476562 106.210938 176.125 107.722656 C 177.257812 110.371094 179.097656 111.992188 181.445312 112.417969 C 184.542969 112.976562 188.367188 111.425781 191.191406 108.464844 C 191.792969 107.832031 192.328125 106.898438 192.75 105.742188 C 190.644531 105.8125 188.402344 105.65625 186.03125 105.277344 C 182.492188 104.710938 178.851562 103.488281 175.257812 102.144531 Z M 207.582031 137.371094 C 227.140625 144.988281 248.46875 145.910156 262.125 139.453125 C 266.953125 137.167969 270.359375 133.710938 271.855469 129.800781 C 257.335938 123.101562 234.664062 126.085938 222.308594 130.707031 C 217.65625 132.449219 212.78125 134.648438 207.582031 137.371094 Z M 153.203125 157.144531 C 147.613281 157.144531 141.75 157.953125 136.992188 160.855469 C 133.066406 163.25 130.59375 167.683594 130.535156 172.425781 C 130.527344 172.914062 130.546875 173.394531 130.59375 173.863281 C 146.5 173.105469 161.671875 165.402344 171.125 159.480469 C 167.695312 158.582031 164.246094 157.878906 160.800781 157.550781 C 158.425781 157.324219 155.84375 157.144531 153.203125 157.144531 Z M 113.089844 116.769531 C 105.191406 120.214844 99.242188 126.039062 96.253906 133.71875 C 93.421875 140.984375 94.164062 150.578125 98.140625 158.152344 C 100.890625 163.386719 106.453125 170.164062 117.328125 172.71875 C 121.453125 173.6875 125.625 174.03125 129.75 173.898438 C 129.707031 173.410156 129.6875 172.917969 129.691406 172.414062 C 129.753906 167.386719 132.382812 162.679688 136.550781 160.136719 C 143.773438 155.730469 153.347656 155.992188 160.882812 156.710938 C 164.632812 157.070312 168.378906 157.863281 172.097656 158.867188 C 173.878906 157.726562 175.433594 156.667969 176.71875 155.757812 C 187.515625 148.105469 196.984375 142.097656 205.578125 137.480469 C 204.328125 136.964844 203.085938 136.421875 201.855469 135.851562 C 197.039062 133.628906 192.082031 131.335938 187.046875 129.105469 C 178.460938 133.507812 169.273438 137.652344 157.527344 141.746094 C 145.890625 145.800781 133.183594 144.816406 124.371094 139.183594 C 117.789062 134.976562 113.90625 128.710938 113.144531 121.066406 C 113 119.605469 112.980469 118.171875 113.089844 116.769531 Z M 189.097656 164.261719 C 189.46875 164.378906 189.839844 164.496094 190.210938 164.613281 C 192.375 165.285156 194.433594 165.933594 196.429688 166.5625 C 205.3125 169.363281 212.984375 171.78125 222.890625 174.015625 C 238.679688 177.574219 254.574219 177.402344 265.410156 173.558594 C 277.339844 169.328125 284.71875 160.90625 285.15625 151.027344 C 285.214844 149.734375 285.15625 148.386719 284.984375 147.019531 C 284.136719 140.214844 280.6875 134.933594 274.734375 131.324219 C 274.054688 130.914062 273.347656 130.523438 272.621094 130.164062 C 271.035156 134.25 267.492188 137.847656 262.484375 140.214844 C 255.394531 143.570312 245.792969 145.089844 235.453125 144.496094 C 225.9375 143.953125 216.054688 141.683594 206.589844 137.894531 C 197.871094 142.535156 188.234375 148.628906 177.203125 156.445312 C 176.0625 157.253906 174.714844 158.175781 173.1875 159.167969 C 176.699219 160.15625 180.183594 161.320312 183.613281 162.460938 C 183.949219 162.574219 184.289062 162.6875 184.625 162.800781 L 184.632812 163.6875 C 184.214844 163.550781 183.761719 163.398438 183.347656 163.261719 C 179.691406 162.042969 175.976562 160.804688 172.234375 159.777344 C 162.773438 165.789062 147.148438 173.890625 130.703125 174.703125 C 131.246094 177.941406 133.035156 180.710938 135.8125 182.503906 C 142.617188 186.898438 149.71875 183.957031 152.371094 180.585938 C 153.949219 178.585938 154.019531 176.558594 152.5625 175.164062 C 152.394531 175.003906 152.390625 174.738281 152.550781 174.566406 C 152.710938 174.398438 152.976562 174.394531 153.144531 174.554688 C 154.921875 176.253906 154.878906 178.765625 153.035156 181.109375 C 151.207031 183.425781 147.433594 185.558594 143.050781 185.558594 C 140.597656 185.558594 137.957031 184.890625 135.355469 183.214844 C 132.34375 181.269531 130.410156 178.257812 129.855469 174.738281 C 125.632812 174.878906 121.367188 174.535156 117.136719 173.539062 C 105.949219 170.910156 100.226562 163.933594 97.398438 158.542969 C 93.308594 150.761719 92.554688 140.898438 95.46875 133.410156 C 98.050781 126.78125 102.859375 121.324219 109.378906 117.628906 C 110.59375 116.9375 111.867188 116.316406 113.1875 115.761719 C 113.792969 110.738281 116.039062 106.148438 119.8125 102.28125 C 126.035156 95.910156 135.8125 92.410156 145.328125 93.144531 C 152.230469 93.679688 160.183594 95.597656 168.972656 98.84375 C 170.089844 99.257812 171.214844 99.691406 172.402344 100.152344 C 173.105469 100.421875 173.8125 100.695312 174.519531 100.964844 C 174.761719 98.875 175.390625 96.6875 176.488281 94.621094 C 175 93.207031 173.78125 91.507812 172.972656 89.449219 C 171.535156 85.8125 172.441406 82.605469 175.394531 80.871094 C 179.160156 78.660156 185.527344 79.410156 189.664062 84.488281 C 190.070312 84.988281 190.453125 85.511719 190.816406 86.050781 C 192.027344 86.027344 193.28125 86.101562 194.578125 86.285156 C 198.339844 86.816406 203.179688 88.664062 205.480469 92.265625 C 206.792969 94.320312 207.074219 96.636719 206.316406 99.15625 C 206.097656 99.886719 205.738281 100.523438 205.304688 101.078125 C 210.660156 100.464844 216.050781 98.476562 217.867188 93.265625 C 218.890625 90.335938 218.175781 86.824219 216.09375 84.527344 C 215.941406 84.355469 215.953125 84.089844 216.125 83.933594 C 216.296875 83.777344 216.5625 83.789062 216.71875 83.960938 C 219 86.480469 219.78125 90.332031 218.664062 93.542969 C 216.605469 99.449219 210.347656 101.472656 204.445312 101.992188 C 203.722656 102.640625 202.921875 103.132812 202.210938 103.488281 C 199.703125 104.753906 196.839844 105.492188 193.65625 105.699219 C 193.183594 107.101562 192.550781 108.257812 191.800781 109.046875 C 188.789062 112.207031 184.664062 113.855469 181.296875 113.246094 C 178.65625 112.769531 176.597656 110.976562 175.351562 108.054688 C 174.632812 106.375 174.289062 104.191406 174.441406 101.835938 C 173.660156 101.539062 172.878906 101.238281 172.101562 100.9375 C 170.914062 100.480469 169.792969 100.046875 168.683594 99.636719 C 159.964844 96.414062 152.089844 94.515625 145.265625 93.988281 C 135.988281 93.269531 126.464844 96.671875 120.417969 102.871094 C 116.894531 106.480469 114.753906 110.742188 114.085938 115.394531 C 120.199219 113.003906 127.332031 112 135.015625 112.484375 C 150.488281 113.457031 167.734375 119.769531 184.328125 126.988281 L 184.324219 127.90625 C 167.695312 120.652344 150.410156 114.296875 134.960938 113.324219 C 127.167969 112.835938 120.023438 113.9375 113.964844 116.398438 C 113.824219 117.890625 113.828125 119.421875 113.984375 120.984375 C 114.71875 128.359375 118.46875 134.40625 124.824219 138.472656 C 133.425781 143.972656 145.847656 144.921875 157.25 140.949219 C 168.671875 136.96875 177.667969 132.941406 186.054688 128.664062 C 185.992188 128.640625 185.933594 128.613281 185.875 128.585938 C 185.839844 128.574219 185.808594 128.558594 185.777344 128.542969 L 185.828125 127.644531 C 186.003906 127.722656 186.175781 127.796875 186.347656 127.875 C 186.570312 127.972656 186.796875 128.070312 187.019531 128.171875 C 187.277344 128.039062 187.53125 127.910156 187.785156 127.777344 L 187.832031 128.554688 C 192.65625 130.703125 197.585938 132.953125 202.207031 135.089844 C 203.640625 135.75 205.089844 136.375 206.550781 136.964844 C 212.019531 134.066406 217.136719 131.742188 222.015625 129.917969 C 229.558594 127.097656 239.46875 125.273438 248.535156 125.042969 C 255.265625 124.871094 264.460938 125.472656 272.136719 129 C 272.640625 127.375 272.820312 125.683594 272.640625 123.972656 C 271.914062 117.015625 265.433594 111.425781 255.300781 109.015625 C 238.847656 105.105469 218.375 111.871094 204.703125 119.503906 L 203.953125 119.925781 C 198.960938 122.710938 194.230469 125.355469 189.335938 127.921875 L 189.316406 126.988281 C 194.058594 124.496094 198.699219 121.894531 203.542969 119.1875 L 204.292969 118.769531 C 218.105469 111.054688 238.808594 104.230469 255.496094 108.195312 C 265.992188 110.691406 272.714844 116.558594 273.480469 123.886719 C 273.675781 125.753906 273.46875 127.601562 272.902344 129.363281 C 273.679688 129.746094 274.4375 130.15625 275.171875 130.601562 C 281.355469 134.355469 284.9375 139.84375 285.820312 146.917969 C 286 148.328125 286.058594 149.722656 286 151.0625 C 285.546875 161.296875 277.953125 170.003906 265.691406 174.355469 C 254.714844 178.25 238.644531 178.429688 222.707031 174.839844 C 212.761719 172.597656 205.078125 170.175781 196.175781 167.367188 C 194.183594 166.738281 192.125 166.089844 189.960938 165.417969 C 189.667969 165.328125 189.375 165.234375 189.082031 165.140625 L 189.097656 164.261719 " fill-opacity="1" fill-rule="nonzero"/></g><g fill="#ffffff" fill-opacity="1"><g transform="translate(73.093751, 230.056166)"><g><path d="M 23.460938 -13.289062 L 22.992188 -15.597656 C 21.496094 -13.375 17.519531 -12.007812 14.828125 -12.007812 C 8.589844 -12.007812 4.402344 -16.238281 4.402344 -22.648438 C 4.402344 -29.015625 8.503906 -33.246094 14.828125 -33.246094 C 17.476562 -33.246094 21.453125 -31.921875 22.992188 -29.65625 L 23.460938 -31.964844 C 20.9375 -33.757812 17.820312 -34.699219 14.828125 -34.699219 C 7.648438 -34.699219 2.5625 -29.65625 2.5625 -22.648438 C 2.5625 -15.597656 7.648438 -10.554688 14.828125 -10.554688 C 17.820312 -10.554688 20.9375 -11.539062 23.460938 -13.289062 Z M 23.460938 -13.289062 "/></g></g></g><g fill="#ffffff" fill-opacity="1"><g transform="translate(99.10976, 230.056166)"><g><path d="M 21.109375 -1.582031 L 5.726562 -1.582031 L 5.726562 -25 C 5.726562 -26.496094 5.597656 -33.503906 6.496094 -34.441406 L 3.203125 -34.441406 C 4.101562 -33.503906 3.972656 -26.496094 3.972656 -25 L 3.972656 -9.445312 C 3.972656 -7.949219 4.101562 -0.941406 3.203125 0 L 33.714844 0 L 34.65625 -2.949219 C 32.945312 -1.539062 23.589844 -1.582031 21.109375 -1.582031 Z M 21.109375 -1.582031 "/></g></g></g><g fill="#ffffff" fill-opacity="1"><g transform="translate(141.87172, 230.056166)"><g><path d="M 24.871094 -22.433594 C 24.871094 -29.398438 21.238281 -34.699219 13.84375 -34.699219 C 6.453125 -34.699219 2.820312 -29.398438 2.820312 -22.433594 C 2.820312 -15.8125 6.921875 -10.511719 13.84375 -10.511719 C 20.769531 -10.511719 24.871094 -15.8125 24.871094 -22.433594 Z M 4.65625 -22.433594 C 4.65625 -28.589844 7.605469 -33.203125 13.84375 -33.203125 C 20.085938 -33.203125 23.03125 -28.589844 23.03125 -22.433594 C 23.03125 -16.625 19.65625 -12.007812 13.84375 -12.007812 C 8.035156 -12.007812 4.65625 -16.625 4.65625 -22.433594 Z M 4.65625 -22.433594 "/></g></g></g><g fill="#ffffff" fill-opacity="1"><g transform="translate(169.639225, 230.056166)"><g><path d="M 18.289062 -6.667969 L 18.289062 -32.945312 C 20.382812 -32.945312 22.433594 -32.945312 24.484375 -32.945312 C 25.980469 -32.945312 30.554688 -32.863281 31.621094 -31.921875 L 30.726562 -34.441406 L 4.101562 -34.441406 L 3.203125 -31.792969 C 4.613281 -32.90625 10.8125 -32.945312 12.691406 -32.945312 C 13.972656 -32.945312 15.253906 -32.945312 16.539062 -32.945312 L 16.539062 -6.582031 C 16.539062 -5.46875 16.496094 -0.769531 15.769531 0 L 19.058594 0 C 18.332031 -0.769531 18.289062 -5.511719 18.289062 -6.667969 Z M 18.289062 -6.667969 "/></g></g></g><g fill="#ffffff" fill-opacity="1"><g transform="translate(204.498128, 230.056166)"><g><path d="M 5.726562 -12.308594 C 5.726562 -15.128906 6.835938 -16.582031 9.785156 -16.582031 L 22.304688 -16.582031 C 23.800781 -16.582031 25.726562 -16.707031 26.707031 -18.035156 L 26.707031 -9.445312 C 26.707031 -7.992188 26.835938 -0.898438 25.9375 0 L 29.230469 0 C 28.375 -0.898438 28.460938 -7.992188 28.460938 -9.445312 L 28.460938 -25 C 28.460938 -26.453125 28.375 -33.546875 29.230469 -34.441406 L 25.9375 -34.441406 C 26.964844 -33.417969 26.707031 -23.84375 26.707031 -22.136719 C 26.707031 -18.84375 25.382812 -18.203125 22.304688 -18.203125 L 9.785156 -18.203125 C 8.246094 -18.203125 6.625 -17.863281 5.726562 -16.539062 L 5.726562 -25 C 5.726562 -26.453125 5.597656 -33.546875 6.496094 -34.441406 L 3.203125 -34.441406 C 4.101562 -33.546875 3.972656 -26.453125 3.972656 -25 L 3.972656 -9.445312 C 3.972656 -7.992188 4.101562 -0.898438 3.203125 0 L 6.496094 0 C 5.511719 -1.027344 5.726562 -10.597656 5.726562 -12.308594 Z M 5.726562 -12.308594 "/></g></g></g><g fill="#ffffff" fill-opacity="1"><g transform="translate(236.922019, 230.056166)"><g><path d="M 5.726562 -9.445312 L 5.726562 -25 C 5.726562 -26.496094 5.597656 -33.503906 6.496094 -34.441406 L 3.203125 -34.441406 C 4.101562 -33.503906 3.972656 -26.496094 3.972656 -25 L 3.972656 -9.445312 C 3.972656 -7.949219 4.101562 -0.941406 3.203125 0 L 6.496094 0 C 5.597656 -0.941406 5.726562 -7.949219 5.726562 -9.445312 Z M 5.726562 -9.445312 "/></g></g></g><g fill="#ffffff" fill-opacity="1"><g transform="translate(246.619287, 230.056166)"><g><path d="M 5.726562 -9.445312 L 5.726562 -29.101562 C 11.878906 -19.65625 28.800781 -13.078125 28.800781 0 L 31.324219 0 C 30.511719 -0.941406 30.597656 -6.539062 30.597656 -7.863281 L 30.597656 -26.539062 C 30.597656 -27.90625 30.511719 -33.503906 31.324219 -34.441406 L 28.074219 -34.441406 C 28.929688 -33.417969 28.800781 -26.539062 28.800781 -25 L 28.800781 -7.351562 C 26.109375 -12.949219 20.726562 -17.347656 16.023438 -21.324219 C 12.5625 -24.230469 5.726562 -29.441406 5.726562 -34.441406 L 3.203125 -34.441406 C 4.101562 -33.417969 3.972656 -26.539062 3.972656 -25 L 3.972656 -9.445312 C 3.972656 -7.90625 4.101562 -1.027344 3.203125 0 L 6.496094 0 C 5.597656 -1.027344 5.726562 -7.90625 5.726562 -9.445312 Z M 5.726562 -9.445312 "/></g></g></g><g fill="#ffffff" fill-opacity="1"><g transform="translate(281.179155, 230.056166)"><g><path d="M 25.042969 -23.375 L 14.828125 -23.375 L 14.101562 -21.367188 C 15.769531 -22.179688 22.265625 -21.792969 23.460938 -21.792969 C 23.714844 -15.980469 20.46875 -12.222656 14.65625 -12.050781 C 8.460938 -12.050781 4.574219 -16.195312 4.574219 -22.476562 C 4.574219 -28.886719 8.160156 -33.203125 14.316406 -33.203125 C 17.734375 -33.203125 20.980469 -31.707031 22.519531 -29.484375 L 22.992188 -31.921875 C 20.46875 -33.714844 17.347656 -34.699219 14.316406 -34.699219 C 7.09375 -34.699219 2.691406 -29.570312 2.691406 -22.476562 C 2.691406 -15.511719 7.5625 -10.296875 14.699219 -10.554688 C 21.964844 -10.8125 25.597656 -16.367188 25.042969 -23.375 Z M 25.042969 -23.375 "/></g></g></g><g fill="#ffffff" fill-opacity="1"><g transform="translate(308.947179, 230.056166)"><g/></g></g><g fill="#fffbf0" fill-opacity="1"><g transform="translate(113.804718, 244.90453)"><g><path d="M 6.84375 -0.625 L 6.84375 -6.363281 C 6.84375 -6.488281 6.875 -6.601562 6.945312 -6.707031 C 7.011719 -6.808594 7.117188 -6.886719 7.230469 -6.933594 L 7.390625 -6.992188 L 5.773438 -6.992188 L 5.929688 -6.933594 C 6.046875 -6.886719 6.136719 -6.808594 6.203125 -6.707031 C 6.273438 -6.601562 6.320312 -6.488281 6.320312 -6.363281 L 6.320312 -3.78125 L 1.640625 -3.78125 L 1.640625 -6.363281 C 1.640625 -6.488281 1.671875 -6.601562 1.742188 -6.707031 C 1.808594 -6.808594 1.914062 -6.886719 2.027344 -6.933594 L 2.1875 -6.992188 L 0.570312 -6.992188 L 0.730469 -6.933594 C 0.84375 -6.886719 0.933594 -6.808594 1 -6.707031 C 1.070312 -6.601562 1.117188 -6.488281 1.117188 -6.363281 L 1.117188 -0.625 C 1.117188 -0.488281 1.070312 -0.375 1 -0.273438 C 0.933594 -0.171875 0.84375 -0.101562 0.730469 -0.0585938 L 0.570312 0 L 2.1875 0 L 2.027344 -0.0585938 C 1.914062 -0.101562 1.808594 -0.171875 1.742188 -0.273438 C 1.671875 -0.375 1.640625 -0.488281 1.640625 -0.625 L 1.640625 -3.496094 L 6.320312 -3.496094 L 6.320312 -0.625 C 6.320312 -0.488281 6.273438 -0.375 6.203125 -0.273438 C 6.136719 -0.171875 6.046875 -0.101562 5.929688 -0.0585938 L 5.773438 0 L 7.390625 0 L 7.230469 -0.0585938 C 7.117188 -0.101562 7.011719 -0.171875 6.945312 -0.273438 C 6.875 -0.375 6.84375 -0.488281 6.84375 -0.625 Z M 6.84375 -0.625 "/></g></g></g><g fill="#fffbf0" fill-opacity="1"><g transform="translate(130.869462, 244.90453)"><g><path d="M 4.210938 -6.980469 C 3.734375 -6.980469 3.277344 -6.898438 2.847656 -6.75 C 2.414062 -6.59375 2.027344 -6.375 1.695312 -6.078125 C 1.355469 -5.785156 1.09375 -5.417969 0.886719 -4.988281 C 0.683594 -4.554688 0.582031 -4.054688 0.582031 -3.484375 C 0.582031 -2.914062 0.683594 -2.414062 0.886719 -1.980469 C 1.09375 -1.546875 1.355469 -1.183594 1.695312 -0.886719 C 2.027344 -0.59375 2.414062 -0.375 2.847656 -0.226562 C 3.277344 -0.0664062 3.734375 0 4.210938 0 C 4.667969 0 5.125 -0.0664062 5.566406 -0.226562 C 6 -0.375 6.386719 -0.59375 6.730469 -0.886719 C 7.058594 -1.183594 7.332031 -1.546875 7.535156 -1.980469 C 7.742188 -2.414062 7.84375 -2.914062 7.84375 -3.484375 C 7.84375 -4.054688 7.742188 -4.554688 7.535156 -4.988281 C 7.332031 -5.417969 7.058594 -5.785156 6.730469 -6.078125 C 6.386719 -6.375 6 -6.59375 5.566406 -6.75 C 5.125 -6.898438 4.667969 -6.980469 4.210938 -6.980469 Z M 4.210938 -0.285156 C 3.734375 -0.285156 3.300781 -0.363281 2.914062 -0.535156 C 2.527344 -0.707031 2.207031 -0.933594 1.933594 -1.230469 C 1.664062 -1.515625 1.457031 -1.855469 1.320312 -2.242188 C 1.171875 -2.628906 1.105469 -3.050781 1.105469 -3.484375 C 1.105469 -3.917969 1.171875 -4.328125 1.320312 -4.714844 C 1.457031 -5.101562 1.664062 -5.441406 1.933594 -5.738281 C 2.207031 -6.023438 2.527344 -6.25 2.914062 -6.421875 C 3.300781 -6.59375 3.734375 -6.683594 4.210938 -6.683594 C 4.679688 -6.683594 5.101562 -6.59375 5.488281 -6.421875 C 5.875 -6.25 6.195312 -6.023438 6.464844 -5.738281 C 6.738281 -5.441406 6.945312 -5.101562 7.09375 -4.714844 C 7.230469 -4.328125 7.308594 -3.917969 7.308594 -3.484375 C 7.308594 -3.050781 7.230469 -2.628906 7.09375 -2.242188 C 6.945312 -1.855469 6.738281 -1.515625 6.464844 -1.230469 C 6.195312 -0.933594 5.875 -0.707031 5.488281 -0.535156 C 5.101562 -0.363281 4.679688 -0.285156 4.210938 -0.285156 Z M 4.210938 -0.285156 "/></g></g></g><g fill="#fffbf0" fill-opacity="1"><g transform="translate(148.389348, 244.90453)"><g><path d="M 6.730469 -6.992188 L 5.386719 -6.980469 L 5.554688 -6.898438 C 5.660156 -6.84375 5.738281 -6.761719 5.804688 -6.671875 C 5.875 -6.570312 5.910156 -6.464844 5.910156 -6.351562 L 5.910156 -2.324219 C 5.910156 -2.070312 5.851562 -1.820312 5.761719 -1.582031 C 5.667969 -1.332031 5.53125 -1.117188 5.375 -0.921875 C 5.203125 -0.730469 5.007812 -0.570312 4.792969 -0.457031 C 4.566406 -0.339844 4.335938 -0.285156 4.085938 -0.285156 L 3.359375 -0.285156 C 3.152344 -0.285156 2.960938 -0.332031 2.753906 -0.433594 C 2.550781 -0.523438 2.367188 -0.660156 2.207031 -0.84375 C 2.050781 -1.023438 1.914062 -1.242188 1.808594 -1.492188 C 1.695312 -1.742188 1.652344 -2.015625 1.652344 -2.332031 L 1.652344 -6.363281 C 1.652344 -6.488281 1.683594 -6.601562 1.753906 -6.707031 C 1.820312 -6.808594 1.925781 -6.886719 2.039062 -6.933594 L 2.199219 -6.992188 L 0.582031 -6.992188 L 0.738281 -6.933594 C 0.855469 -6.886719 0.945312 -6.808594 1.011719 -6.707031 C 1.082031 -6.601562 1.128906 -6.488281 1.128906 -6.363281 L 1.128906 -2.332031 C 1.128906 -2.015625 1.183594 -1.707031 1.308594 -1.421875 C 1.421875 -1.136719 1.59375 -0.886719 1.808594 -0.683594 C 2.015625 -0.464844 2.265625 -0.296875 2.550781 -0.183594 C 2.835938 -0.0585938 3.140625 0 3.460938 0 L 3.871094 0 C 4.191406 0 4.484375 -0.0585938 4.769531 -0.183594 C 5.054688 -0.296875 5.304688 -0.464844 5.523438 -0.683594 C 5.726562 -0.886719 5.898438 -1.136719 6.023438 -1.421875 C 6.136719 -1.707031 6.203125 -2.015625 6.203125 -2.332031 L 6.203125 -6.363281 C 6.203125 -6.476562 6.226562 -6.582031 6.296875 -6.683594 C 6.363281 -6.773438 6.445312 -6.855469 6.558594 -6.910156 Z M 6.730469 -6.992188 "/></g></g></g><g fill="#fffbf0" fill-opacity="1"><g transform="translate(164.771362, 244.90453)"><g><path d="M 3.175781 -3.859375 L 3.1875 -3.871094 C 2.984375 -3.972656 2.765625 -4.074219 2.539062 -4.179688 C 2.3125 -4.28125 2.105469 -4.394531 1.925781 -4.519531 C 1.742188 -4.644531 1.582031 -4.792969 1.457031 -4.953125 C 1.332031 -5.113281 1.273438 -5.316406 1.273438 -5.554688 C 1.273438 -5.714844 1.320312 -5.875 1.410156 -6.011719 C 1.503906 -6.148438 1.617188 -6.261719 1.777344 -6.363281 C 1.925781 -6.464844 2.105469 -6.546875 2.3125 -6.601562 C 2.515625 -6.660156 2.742188 -6.695312 2.996094 -6.695312 C 3.164062 -6.695312 3.3125 -6.683594 3.449219 -6.671875 C 3.585938 -6.648438 3.699219 -6.625 3.8125 -6.59375 C 4.085938 -6.5 4.304688 -6.320312 4.464844 -6.058594 L 4.589844 -5.839844 L 4.589844 -6.863281 L 4.496094 -6.71875 C 4.453125 -6.636719 4.394531 -6.613281 4.316406 -6.660156 C 4.109375 -6.75 3.894531 -6.832031 3.664062 -6.886719 C 3.4375 -6.933594 3.210938 -6.96875 2.996094 -6.96875 C 2.664062 -6.96875 2.355469 -6.921875 2.082031 -6.84375 C 1.808594 -6.75 1.570312 -6.636719 1.378906 -6.476562 C 1.171875 -6.320312 1.023438 -6.136719 0.910156 -5.921875 C 0.796875 -5.703125 0.738281 -5.464844 0.738281 -5.203125 C 0.738281 -4.976562 0.796875 -4.769531 0.921875 -4.597656 C 1.046875 -4.417969 1.207031 -4.257812 1.398438 -4.121094 C 1.59375 -3.972656 1.808594 -3.835938 2.050781 -3.710938 C 2.277344 -3.585938 2.515625 -3.460938 2.742188 -3.347656 C 2.949219 -3.234375 3.152344 -3.121094 3.359375 -3.015625 C 3.5625 -2.902344 3.757812 -2.789062 3.929688 -2.675781 C 4.097656 -2.550781 4.234375 -2.414062 4.347656 -2.277344 C 4.453125 -2.128906 4.507812 -1.96875 4.507812 -1.800781 C 4.507812 -1.546875 4.453125 -1.320312 4.335938 -1.128906 C 4.222656 -0.933594 4.085938 -0.773438 3.90625 -0.648438 C 3.722656 -0.511719 3.507812 -0.421875 3.277344 -0.351562 C 3.050781 -0.285156 2.8125 -0.261719 2.574219 -0.261719 C 2.300781 -0.261719 2.039062 -0.285156 1.789062 -0.351562 C 1.527344 -0.421875 1.273438 -0.546875 1.035156 -0.75 C 0.921875 -0.84375 0.832031 -0.945312 0.773438 -1.058594 L 0.558594 -1.421875 L 0.558594 -0.398438 L 0.625 -0.511719 C 0.648438 -0.546875 0.671875 -0.570312 0.71875 -0.582031 C 0.761719 -0.59375 0.796875 -0.582031 0.84375 -0.558594 C 1.148438 -0.308594 1.457031 -0.148438 1.753906 -0.078125 C 2.050781 -0.0117188 2.324219 0.0117188 2.574219 0.0117188 C 2.890625 0.0117188 3.210938 -0.0351562 3.507812 -0.125 C 3.800781 -0.214844 4.074219 -0.339844 4.304688 -0.5 C 4.53125 -0.660156 4.726562 -0.84375 4.863281 -1.070312 C 4.996094 -1.296875 5.066406 -1.535156 5.066406 -1.808594 C 5.066406 -2.105469 5.007812 -2.355469 4.894531 -2.5625 C 4.78125 -2.765625 4.644531 -2.9375 4.464844 -3.097656 C 4.28125 -3.246094 4.085938 -3.382812 3.859375 -3.496094 C 3.632812 -3.609375 3.402344 -3.734375 3.175781 -3.859375 Z M 3.175781 -3.859375 "/></g></g></g><g fill="#fffbf0" fill-opacity="1"><g transform="translate(179.537581, 244.90453)"><g><path d="M 5.351562 -1.160156 L 5.066406 -0.695312 C 4.882812 -0.421875 4.621094 -0.296875 4.304688 -0.296875 L 1.628906 -0.296875 L 1.628906 -3.53125 L 3.300781 -3.53125 C 3.414062 -3.53125 3.53125 -3.496094 3.632812 -3.425781 C 3.722656 -3.359375 3.800781 -3.277344 3.859375 -3.175781 L 3.929688 -3.039062 L 3.929688 -4.234375 L 3.859375 -4.097656 C 3.800781 -3.984375 3.722656 -3.90625 3.632812 -3.835938 C 3.53125 -3.769531 3.414062 -3.746094 3.300781 -3.746094 L 1.628906 -3.746094 L 1.628906 -6.707031 L 4.234375 -6.707031 C 4.335938 -6.707031 4.441406 -6.671875 4.53125 -6.613281 C 4.621094 -6.558594 4.703125 -6.476562 4.757812 -6.386719 L 4.90625 -6.113281 L 4.851562 -6.992188 L 0.546875 -6.992188 L 0.707031 -6.933594 C 0.820312 -6.886719 0.910156 -6.808594 0.980469 -6.707031 C 1.046875 -6.601562 1.09375 -6.488281 1.09375 -6.363281 L 1.09375 -0.625 C 1.09375 -0.488281 1.046875 -0.375 0.980469 -0.273438 C 0.910156 -0.171875 0.820312 -0.101562 0.707031 -0.0585938 L 0.546875 0 L 5.03125 0 Z M 5.351562 -1.160156 "/></g></g></g><g fill="#fffbf0" fill-opacity="1"><g transform="translate(194.588265, 244.90453)"><g><path d="M 4.210938 -6.980469 C 3.734375 -6.980469 3.277344 -6.898438 2.847656 -6.75 C 2.414062 -6.59375 2.027344 -6.375 1.695312 -6.078125 C 1.355469 -5.785156 1.09375 -5.417969 0.886719 -4.988281 C 0.683594 -4.554688 0.582031 -4.054688 0.582031 -3.484375 C 0.582031 -2.914062 0.683594 -2.414062 0.886719 -1.980469 C 1.09375 -1.546875 1.355469 -1.183594 1.695312 -0.886719 C 2.027344 -0.59375 2.414062 -0.375 2.847656 -0.226562 C 3.277344 -0.0664062 3.734375 0 4.210938 0 C 4.667969 0 5.125 -0.0664062 5.566406 -0.226562 C 6 -0.375 6.386719 -0.59375 6.730469 -0.886719 C 7.058594 -1.183594 7.332031 -1.546875 7.535156 -1.980469 C 7.742188 -2.414062 7.84375 -2.914062 7.84375 -3.484375 C 7.84375 -4.054688 7.742188 -4.554688 7.535156 -4.988281 C 7.332031 -5.417969 7.058594 -5.785156 6.730469 -6.078125 C 6.386719 -6.375 6 -6.59375 5.566406 -6.75 C 5.125 -6.898438 4.667969 -6.980469 4.210938 -6.980469 Z M 4.210938 -0.285156 C 3.734375 -0.285156 3.300781 -0.363281 2.914062 -0.535156 C 2.527344 -0.707031 2.207031 -0.933594 1.933594 -1.230469 C 1.664062 -1.515625 1.457031 -1.855469 1.320312 -2.242188 C 1.171875 -2.628906 1.105469 -3.050781 1.105469 -3.484375 C 1.105469 -3.917969 1.171875 -4.328125 1.320312 -4.714844 C 1.457031 -5.101562 1.664062 -5.441406 1.933594 -5.738281 C 2.207031 -6.023438 2.527344 -6.25 2.914062 -6.421875 C 3.300781 -6.59375 3.734375 -6.683594 4.210938 -6.683594 C 4.679688 -6.683594 5.101562 -6.59375 5.488281 -6.421875 C 5.875 -6.25 6.195312 -6.023438 6.464844 -5.738281 C 6.738281 -5.441406 6.945312 -5.101562 7.09375 -4.714844 C 7.230469 -4.328125 7.308594 -3.917969 7.308594 -3.484375 C 7.308594 -3.050781 7.230469 -2.628906 7.09375 -2.242188 C 6.945312 -1.855469 6.738281 -1.515625 6.464844 -1.230469 C 6.195312 -0.933594 5.875 -0.707031 5.488281 -0.535156 C 5.101562 -0.363281 4.679688 -0.285156 4.210938 -0.285156 Z M 4.210938 -0.285156 "/></g></g></g><g fill="#fffbf0" fill-opacity="1"><g transform="translate(212.108156, 244.90453)"><g><path d="M 4.917969 -6.101562 L 4.871094 -6.980469 L 0.570312 -6.980469 L 0.730469 -6.921875 C 0.84375 -6.875 0.933594 -6.796875 1 -6.695312 C 1.070312 -6.59375 1.117188 -6.476562 1.117188 -6.351562 L 1.117188 -0.613281 C 1.117188 -0.476562 1.070312 -0.363281 1 -0.261719 C 0.933594 -0.160156 0.84375 -0.0898438 0.730469 -0.046875 L 0.570312 0.0117188 L 2.1875 0.0117188 L 2.027344 -0.046875 C 1.914062 -0.0898438 1.808594 -0.160156 1.742188 -0.261719 C 1.671875 -0.363281 1.640625 -0.476562 1.640625 -0.613281 L 1.640625 -3.519531 L 3.3125 -3.519531 C 3.425781 -3.519531 3.539062 -3.484375 3.644531 -3.414062 C 3.734375 -3.347656 3.8125 -3.265625 3.871094 -3.164062 L 3.9375 -3.027344 L 3.9375 -4.222656 L 3.871094 -4.085938 C 3.8125 -3.972656 3.734375 -3.894531 3.644531 -3.824219 C 3.539062 -3.757812 3.425781 -3.734375 3.3125 -3.734375 L 1.640625 -3.734375 L 1.640625 -6.695312 L 4.246094 -6.695312 C 4.347656 -6.695312 4.453125 -6.660156 4.542969 -6.601562 C 4.632812 -6.546875 4.714844 -6.464844 4.769531 -6.375 Z M 4.917969 -6.101562 "/></g></g></g><g fill="#fffbf0" fill-opacity="1"><g transform="translate(226.715062, 244.90453)"><g><path d="M 3.539062 -6.980469 L 0.570312 -6.980469 L 0.730469 -6.921875 C 0.84375 -6.875 0.933594 -6.796875 1 -6.695312 C 1.070312 -6.59375 1.117188 -6.476562 1.117188 -6.351562 L 1.117188 -0.613281 C 1.117188 -0.476562 1.070312 -0.363281 1 -0.261719 C 0.933594 -0.160156 0.84375 -0.0898438 0.730469 -0.046875 L 0.570312 0.0117188 L 3.539062 0.0117188 C 4.132812 0.0117188 4.65625 -0.078125 5.089844 -0.261719 C 5.523438 -0.445312 5.886719 -0.683594 6.171875 -1 C 6.457031 -1.308594 6.660156 -1.671875 6.796875 -2.105469 C 6.933594 -2.527344 7 -2.984375 7 -3.484375 C 7 -3.984375 6.933594 -4.441406 6.796875 -4.871094 C 6.660156 -5.292969 6.457031 -5.660156 6.171875 -5.976562 C 5.886719 -6.296875 5.523438 -6.535156 5.089844 -6.71875 C 4.65625 -6.886719 4.132812 -6.980469 3.539062 -6.980469 Z M 3.539062 -0.273438 L 3.539062 -0.285156 L 1.640625 -0.285156 L 1.640625 -6.695312 L 3.539062 -6.695312 C 4.042969 -6.695312 4.472656 -6.613281 4.839844 -6.457031 C 5.203125 -6.296875 5.5 -6.078125 5.75 -5.796875 C 5.988281 -5.511719 6.171875 -5.167969 6.285156 -4.78125 C 6.398438 -4.394531 6.464844 -3.960938 6.464844 -3.484375 C 6.464844 -3.003906 6.398438 -2.5625 6.285156 -2.175781 C 6.171875 -1.789062 5.988281 -1.445312 5.75 -1.160156 C 5.5 -0.875 5.203125 -0.660156 4.839844 -0.5 C 4.472656 -0.339844 4.042969 -0.273438 3.539062 -0.273438 Z M 3.539062 -0.273438 "/></g></g></g><g fill="#fffbf0" fill-opacity="1"><g transform="translate(243.392914, 244.90453)"><g><path d="M 7.390625 -0.601562 L 7.390625 -6.351562 C 7.390625 -6.476562 7.421875 -6.59375 7.492188 -6.695312 C 7.558594 -6.796875 7.660156 -6.875 7.777344 -6.921875 L 7.933594 -6.980469 L 6.785156 -6.980469 L 4.257812 -1.070312 L 1.71875 -6.980469 L 0.570312 -6.980469 L 0.738281 -6.898438 C 0.84375 -6.84375 0.921875 -6.761719 0.992188 -6.671875 C 1.058594 -6.570312 1.09375 -6.464844 1.09375 -6.351562 L 1.09375 -0.613281 C 1.09375 -0.5 1.058594 -0.386719 0.992188 -0.296875 C 0.921875 -0.195312 0.84375 -0.113281 0.738281 -0.0664062 L 0.570312 0.0117188 L 1.890625 0.0117188 L 1.71875 -0.0664062 C 1.605469 -0.113281 1.527344 -0.195312 1.457031 -0.296875 C 1.390625 -0.386719 1.367188 -0.5 1.367188 -0.613281 L 1.367188 -6.410156 L 4.121094 0.0117188 L 6.863281 -6.386719 L 6.863281 -0.601562 C 6.863281 -0.464844 6.820312 -0.351562 6.75 -0.25 C 6.683594 -0.148438 6.59375 -0.078125 6.476562 -0.0351562 L 6.320312 0.0234375 L 7.933594 0.0234375 L 7.777344 -0.0351562 C 7.660156 -0.078125 7.558594 -0.148438 7.492188 -0.25 C 7.421875 -0.351562 7.390625 -0.464844 7.390625 -0.601562 Z M 7.390625 -0.601562 "/></g></g></g><g fill="#fffbf0" fill-opacity="1"><g transform="translate(261.003837, 244.90453)"><g><path d="M 4.328125 -6.671875 L 4.316406 -6.695312 C 4.609375 -6.695312 4.894531 -6.648438 5.191406 -6.558594 C 5.488281 -6.464844 5.75 -6.351562 6 -6.203125 C 6.160156 -6.089844 6.296875 -5.953125 6.410156 -5.796875 L 6.582031 -5.511719 L 6.582031 -6.535156 L 6.511719 -6.421875 C 6.488281 -6.375 6.457031 -6.351562 6.410156 -6.339844 C 6.363281 -6.328125 6.328125 -6.339844 6.296875 -6.363281 C 6 -6.558594 5.691406 -6.707031 5.363281 -6.808594 C 5.019531 -6.910156 4.679688 -6.96875 4.328125 -6.96875 C 3.746094 -6.96875 3.222656 -6.875 2.765625 -6.695312 C 2.3125 -6.511719 1.914062 -6.261719 1.59375 -5.941406 C 1.273438 -5.625 1.023438 -5.25 0.855469 -4.828125 C 0.671875 -4.394531 0.59375 -3.949219 0.59375 -3.472656 C 0.59375 -2.996094 0.671875 -2.539062 0.855469 -2.117188 C 1.023438 -1.683594 1.273438 -1.320312 1.59375 -1 C 1.914062 -0.683594 2.3125 -0.433594 2.765625 -0.25 C 3.222656 -0.0664062 3.746094 0.0234375 4.328125 0.0234375 C 4.679688 0.0234375 5.019531 -0.0234375 5.363281 -0.125 C 5.691406 -0.226562 6 -0.375 6.296875 -0.582031 C 6.328125 -0.601562 6.363281 -0.601562 6.410156 -0.59375 C 6.457031 -0.582031 6.488281 -0.558594 6.511719 -0.523438 L 6.582031 -0.398438 L 6.582031 -1.421875 L 6.398438 -1.128906 C 6.285156 -0.96875 6.160156 -0.832031 6 -0.730469 C 5.75 -0.570312 5.488281 -0.457031 5.203125 -0.375 C 4.90625 -0.285156 4.621094 -0.25 4.328125 -0.25 C 3.894531 -0.25 3.484375 -0.320312 3.097656 -0.476562 C 2.710938 -0.625 2.367188 -0.84375 2.070312 -1.128906 C 1.777344 -1.398438 1.535156 -1.742188 1.367188 -2.140625 C 1.183594 -2.527344 1.105469 -2.972656 1.105469 -3.460938 C 1.105469 -3.917969 1.183594 -4.335938 1.355469 -4.734375 C 1.515625 -5.125 1.742188 -5.464844 2.039062 -5.75 C 2.324219 -6.035156 2.664062 -6.261719 3.0625 -6.421875 C 3.449219 -6.582031 3.871094 -6.671875 4.328125 -6.671875 Z M 4.328125 -6.671875 "/></g></g></g></svg>