<svg xmlns="http://www.w3.org/2000/svg" xmlns:xlink="http://www.w3.org/1999/xlink" width="500" zoomAndPan="magnify" viewBox="0 0 375 374.999991" height="500" preserveAspectRatio="xMidYMid meet" version="1.0"><defs><g/><clipPath id="ab173bcd4a"><path d="M 122.765625 187.5 L 152.488281 187.5 L 152.488281 202.808594 L 122.765625 202.808594 Z M 122.765625 187.5 " clip-rule="nonzero"/></clipPath><clipPath id="e6e16a781f"><path d="M 124.265625 187.5 L 150.988281 187.5 C 151.386719 187.5 151.769531 187.65625 152.050781 187.9375 C 152.332031 188.21875 152.488281 188.601562 152.488281 189 L 152.488281 201.308594 C 152.488281 201.703125 152.332031 202.085938 152.050781 202.367188 C 151.769531 202.648438 151.386719 202.808594 150.988281 202.808594 L 124.265625 202.808594 C 123.867188 202.808594 123.484375 202.648438 123.203125 202.367188 C 122.921875 202.085938 122.765625 201.703125 122.765625 201.308594 L 122.765625 189 C 122.765625 188.601562 122.921875 188.21875 123.203125 187.9375 C 123.484375 187.65625 123.867188 187.5 124.265625 187.5 " clip-rule="nonzero"/></clipPath><clipPath id="d7165c864e"><path d="M 236.796875 211.75 L 252.234375 211.75 L 252.234375 227.1875 L 236.796875 227.1875 Z M 236.796875 211.75 " clip-rule="nonzero"/></clipPath><clipPath id="f49e46cdd5"><path d="M 244.515625 211.75 C 240.253906 211.75 236.796875 215.207031 236.796875 219.46875 C 236.796875 223.730469 240.253906 227.1875 244.515625 227.1875 C 248.78125 227.1875 252.234375 223.730469 252.234375 219.46875 C 252.234375 215.207031 248.78125 211.75 244.515625 211.75 " clip-rule="nonzero"/></clipPath></defs><g fill="#e6e3dd" fill-opacity="1"><g transform="translate(157.487052, 226.572157)"><g><path d="M 52.78125 0 L 50.765625 -8.921875 C 46.171875 -2.023438 39.515625 1.421875 30.796875 1.421875 C 22.316406 1.421875 15.773438 -1.347656 11.171875 -6.890625 C 6.578125 -12.441406 4.28125 -20.644531 4.28125 -31.5 C 4.28125 -42.28125 6.578125 -50.425781 11.171875 -55.9375 C 15.773438 -61.445312 22.316406 -64.203125 30.796875 -64.203125 C 38.003906 -64.203125 43.867188 -61.785156 48.390625 -56.953125 L 48.390625 -86.203125 L 72.046875 -86.203125 L 72.046875 0 Z M 38.15625 -46.71875 C 31.34375 -46.71875 27.9375 -42.640625 27.9375 -34.484375 L 27.9375 -28.171875 C 27.9375 -20.085938 31.34375 -16.046875 38.15625 -16.046875 C 41.644531 -16.046875 44.257812 -17.273438 46 -19.734375 C 47.75 -22.191406 48.625 -25.398438 48.625 -29.359375 L 48.625 -33.296875 C 48.625 -37.253906 47.75 -40.476562 46 -42.96875 C 44.257812 -45.46875 41.644531 -46.71875 38.15625 -46.71875 Z M 38.15625 -46.71875 "/></g></g></g><g clip-path="url(#ab173bcd4a)"><g clip-path="url(#e6e16a781f)"><path fill="#e6e3dd" d="M 122.765625 187.5 L 152.488281 187.5 L 152.488281 202.808594 L 122.765625 202.808594 Z M 122.765625 187.5 " fill-opacity="1" fill-rule="nonzero"/></g></g><g clip-path="url(#d7165c864e)"><g clip-path="url(#f49e46cdd5)"><path fill="#e6e3dd" d="M 236.796875 211.75 L 252.234375 211.75 L 252.234375 227.1875 L 236.796875 227.1875 Z M 236.796875 211.75 " fill-opacity="1" fill-rule="nonzero"/></g></g></svg>