<svg xmlns="http://www.w3.org/2000/svg" xmlns:xlink="http://www.w3.org/1999/xlink" width="500" zoomAndPan="magnify" viewBox="0 0 375 374.999991" height="500" preserveAspectRatio="xMidYMid meet" version="1.0"><defs><g/><clipPath id="1888dc251c"><path d="M 20.160156 156.992188 L 360.351562 156.992188 L 360.351562 190.925781 L 20.160156 190.925781 Z M 20.160156 156.992188 " clip-rule="nonzero"/></clipPath></defs><g fill="#231f20" fill-opacity="1"><g transform="translate(12.567443, 218.408474)"><g><path d="M 9.175781 0 L 44.699219 0 C 80.222656 0 101.851562 -18.351562 101.851562 -52.433594 C 101.851562 -87.957031 79.570312 -104.867188 44.699219 -104.867188 L 9.175781 -104.867188 C 10.226562 -94.90625 10.617188 -89.007812 10.617188 -76.816406 L 10.617188 -28.050781 C 10.617188 -15.859375 10.226562 -9.960938 9.175781 0 Z M 43.914062 -2.753906 L 32.640625 -2.753906 L 32.640625 -102.113281 L 43.914062 -102.113281 C 64.230469 -102.113281 77.996094 -86.515625 77.996094 -52.433594 C 77.996094 -19.664062 64.230469 -2.753906 43.914062 -2.753906 Z M 43.914062 -2.753906 "/></g></g></g><g fill="#231f20" fill-opacity="1"><g transform="translate(115.721985, 218.408474)"><g><path d="M 9.175781 0 L 14.8125 0 C 13.765625 -9.960938 13.371094 -15.859375 13.371094 -28.050781 L 13.371094 -98.183594 L 57.285156 2.621094 L 61.347656 2.621094 L 102.113281 -98.574219 L 102.113281 -28.050781 C 102.113281 -15.859375 101.722656 -9.960938 100.804688 0 L 125.578125 0 C 124.53125 -9.960938 124.269531 -15.859375 124.269531 -28.050781 L 124.269531 -76.816406 C 124.269531 -89.007812 124.53125 -94.90625 125.578125 -104.867188 L 101.851562 -104.867188 L 69.605469 -27.003906 L 35 -104.867188 L 9.175781 -104.867188 C 10.226562 -94.90625 10.617188 -89.007812 10.617188 -76.816406 L 10.617188 -28.050781 C 10.617188 -15.859375 10.226562 -9.960938 9.175781 0 Z M 9.175781 0 "/></g></g></g><g fill="#231f20" fill-opacity="1"><g transform="translate(243.911714, 218.408474)"><g><path d="M 110.765625 -44.570312 C 104.738281 -18.351562 90.054688 -3.800781 69.34375 -3.800781 C 43.257812 -3.800781 31.722656 -27.003906 31.722656 -55.1875 C 31.722656 -82.582031 42.863281 -104.738281 62.660156 -104.738281 C 77.472656 -104.738281 84.941406 -90.316406 87.957031 -71.179688 L 108.800781 -76.816406 C 99.753906 -95.691406 84.8125 -107.488281 62.660156 -107.488281 C 32.640625 -107.488281 7.863281 -87.039062 7.863281 -53.746094 C 7.863281 -20.449219 29.363281 2.621094 63.050781 2.621094 C 90.84375 2.621094 106.441406 -15.335938 113.257812 -44.570312 Z M 110.765625 -44.570312 "/></g></g></g><g clip-path="url(#1888dc251c)"><path fill="#fbfaf9" d="M 20.160156 156.992188 L 360.351562 156.992188 L 360.351562 190.925781 L 20.160156 190.925781 Z M 20.160156 156.992188 " fill-opacity="1" fill-rule="nonzero"/></g><g fill="#dec2ba" fill-opacity="1"><g transform="translate(47.081744, 178.082904)"><g><path d="M 1.140625 -8.6875 L 4.90625 -8.6875 C 5.8125 -8.6875 6.523438 -8.492188 7.046875 -8.109375 C 7.566406 -7.722656 7.828125 -7.191406 7.828125 -6.515625 C 7.828125 -6.023438 7.691406 -5.609375 7.421875 -5.265625 C 7.148438 -4.921875 6.773438 -4.691406 6.296875 -4.578125 C 6.878906 -4.472656 7.332031 -4.226562 7.65625 -3.84375 C 7.988281 -3.457031 8.15625 -2.96875 8.15625 -2.375 C 8.15625 -1.632812 7.875 -1.050781 7.3125 -0.625 C 6.75 -0.207031 5.976562 0 5 0 L 1.140625 0 Z M 2.609375 -7.375 L 2.609375 -5.09375 L 4.84375 -5.09375 C 5.300781 -5.09375 5.660156 -5.191406 5.921875 -5.390625 C 6.191406 -5.597656 6.328125 -5.882812 6.328125 -6.25 C 6.328125 -6.613281 6.195312 -6.890625 5.9375 -7.078125 C 5.675781 -7.273438 5.3125 -7.375 4.84375 -7.375 Z M 2.609375 -3.796875 L 2.609375 -1.296875 L 4.84375 -1.296875 C 5.414062 -1.296875 5.859375 -1.40625 6.171875 -1.625 C 6.492188 -1.84375 6.65625 -2.15625 6.65625 -2.5625 C 6.65625 -2.945312 6.492188 -3.25 6.171875 -3.46875 C 5.847656 -3.6875 5.40625 -3.796875 4.84375 -3.796875 Z M 2.609375 -3.796875 "/></g></g></g><g fill="#dec2ba" fill-opacity="1"><g transform="translate(65.762211, 178.082904)"><g><path d="M 4.703125 -2.890625 L 4.703125 0 L 3.25 0 L 3.25 -2.84375 L 0.015625 -8.6875 L 1.484375 -8.6875 L 3.96875 -4.453125 L 6.40625 -8.6875 L 7.890625 -8.6875 Z M 4.703125 -2.890625 "/></g></g></g><g fill="#dec2ba" fill-opacity="1"><g transform="translate(83.587187, 178.082904)"><g><path d="M 7.078125 -7.375 L 4.3125 -7.375 L 4.3125 0 L 2.859375 0 L 2.859375 -7.375 L 0.109375 -7.375 L 0.109375 -8.6875 L 7.078125 -8.6875 Z M 7.078125 -7.375 "/></g></g></g><g fill="#dec2ba" fill-opacity="1"><g transform="translate(100.693053, 178.082904)"><g><path d="M 8.671875 0 L 7.203125 0 L 7.203125 -3.59375 L 2.609375 -3.59375 L 2.609375 0 L 1.140625 0 L 1.140625 -8.6875 L 2.609375 -8.6875 L 2.609375 -4.90625 L 7.203125 -4.90625 L 7.203125 -8.6875 L 8.671875 -8.6875 Z M 8.671875 0 "/></g></g></g><g fill="#dec2ba" fill-opacity="1"><g transform="translate(120.427381, 178.082904)"><g><path d="M 7.34375 -7.375 L 2.609375 -7.375 L 2.609375 -5.03125 L 6.84375 -5.03125 L 6.84375 -3.703125 L 2.609375 -3.703125 L 2.609375 -1.3125 L 7.5 -1.3125 L 7.5 0 L 1.140625 0 L 1.140625 -8.6875 L 7.34375 -8.6875 Z M 7.34375 -7.375 "/></g></g></g><g fill="#dec2ba" fill-opacity="1"><g transform="translate(138.487919, 178.082904)"><g><path d="M 8.671875 0 L 7.203125 0 L 7.203125 -3.59375 L 2.609375 -3.59375 L 2.609375 0 L 1.140625 0 L 1.140625 -8.6875 L 2.609375 -8.6875 L 2.609375 -4.90625 L 7.203125 -4.90625 L 7.203125 -8.6875 L 8.671875 -8.6875 Z M 8.671875 0 "/></g></g></g><g fill="#dec2ba" fill-opacity="1"><g transform="translate(158.222247, 178.082904)"><g><path d="M 1.75 -7.453125 C 2.632812 -8.296875 3.722656 -8.71875 5.015625 -8.71875 C 6.316406 -8.71875 7.410156 -8.296875 8.296875 -7.453125 C 9.179688 -6.617188 9.625 -5.582031 9.625 -4.34375 C 9.625 -3.101562 9.179688 -2.054688 8.296875 -1.203125 C 7.410156 -0.359375 6.316406 0.0625 5.015625 0.0625 C 3.722656 0.0625 2.632812 -0.359375 1.75 -1.203125 C 0.863281 -2.054688 0.421875 -3.101562 0.421875 -4.34375 C 0.421875 -5.582031 0.863281 -6.617188 1.75 -7.453125 Z M 5.03125 -7.40625 C 4.175781 -7.40625 3.441406 -7.109375 2.828125 -6.515625 C 2.210938 -5.921875 1.90625 -5.191406 1.90625 -4.328125 C 1.90625 -3.472656 2.210938 -2.742188 2.828125 -2.140625 C 3.453125 -1.546875 4.1875 -1.25 5.03125 -1.25 C 5.882812 -1.25 6.613281 -1.546875 7.21875 -2.140625 C 7.820312 -2.742188 8.125 -3.472656 8.125 -4.328125 C 8.125 -5.191406 7.820312 -5.921875 7.21875 -6.515625 C 6.613281 -7.109375 5.882812 -7.40625 5.03125 -7.40625 Z M 5.03125 -7.40625 "/></g></g></g><g fill="#dec2ba" fill-opacity="1"><g transform="translate(178.19214, 178.082904)"><g><path d="M 8.515625 -8.6875 L 8.515625 -3.59375 C 8.515625 -2.457031 8.179688 -1.5625 7.515625 -0.90625 C 6.847656 -0.257812 5.925781 0.0625 4.75 0.0625 C 3.570312 0.0625 2.644531 -0.257812 1.96875 -0.90625 C 1.300781 -1.5625 0.96875 -2.457031 0.96875 -3.59375 L 0.96875 -8.6875 L 2.4375 -8.6875 L 2.4375 -3.59375 C 2.4375 -2.863281 2.644531 -2.289062 3.0625 -1.875 C 3.476562 -1.457031 4.046875 -1.25 4.765625 -1.25 C 5.472656 -1.25 6.03125 -1.457031 6.4375 -1.875 C 6.851562 -2.289062 7.0625 -2.863281 7.0625 -3.59375 L 7.0625 -8.6875 Z M 8.515625 -8.6875 "/></g></g></g><g fill="#dec2ba" fill-opacity="1"><g transform="translate(197.591706, 178.082904)"><g><path d="M 4 -8.75 C 5.125 -8.75 6.132812 -8.453125 7.03125 -7.859375 L 6.421875 -6.5625 C 5.535156 -7.101562 4.691406 -7.375 3.890625 -7.375 C 3.441406 -7.375 3.09375 -7.289062 2.84375 -7.125 C 2.59375 -6.96875 2.46875 -6.742188 2.46875 -6.453125 C 2.46875 -6.171875 2.582031 -5.925781 2.8125 -5.71875 C 3.039062 -5.519531 3.328125 -5.375 3.671875 -5.28125 C 4.023438 -5.1875 4.40625 -5.066406 4.8125 -4.921875 C 5.21875 -4.773438 5.59375 -4.617188 5.9375 -4.453125 C 6.289062 -4.296875 6.578125 -4.046875 6.796875 -3.703125 C 7.023438 -3.359375 7.140625 -2.941406 7.140625 -2.453125 C 7.140625 -1.691406 6.835938 -1.082031 6.234375 -0.625 C 5.628906 -0.175781 4.84375 0.046875 3.875 0.046875 C 3.207031 0.046875 2.5625 -0.0703125 1.9375 -0.3125 C 1.320312 -0.5625 0.785156 -0.898438 0.328125 -1.328125 L 0.953125 -2.59375 C 1.390625 -2.1875 1.867188 -1.875 2.390625 -1.65625 C 2.921875 -1.4375 3.421875 -1.328125 3.890625 -1.328125 C 4.410156 -1.328125 4.8125 -1.421875 5.09375 -1.609375 C 5.375 -1.796875 5.515625 -2.050781 5.515625 -2.375 C 5.515625 -2.675781 5.398438 -2.925781 5.171875 -3.125 C 4.941406 -3.332031 4.648438 -3.484375 4.296875 -3.578125 C 3.953125 -3.671875 3.578125 -3.785156 3.171875 -3.921875 C 2.765625 -4.054688 2.390625 -4.203125 2.046875 -4.359375 C 1.703125 -4.515625 1.410156 -4.757812 1.171875 -5.09375 C 0.941406 -5.4375 0.828125 -5.847656 0.828125 -6.328125 C 0.828125 -7.066406 1.113281 -7.65625 1.6875 -8.09375 C 2.269531 -8.53125 3.039062 -8.75 4 -8.75 Z M 4 -8.75 "/></g></g></g><g fill="#dec2ba" fill-opacity="1"><g transform="translate(215.2307, 178.082904)"><g><path d="M 7.34375 -7.375 L 2.609375 -7.375 L 2.609375 -5.03125 L 6.84375 -5.03125 L 6.84375 -3.703125 L 2.609375 -3.703125 L 2.609375 -1.3125 L 7.5 -1.3125 L 7.5 0 L 1.140625 0 L 1.140625 -8.6875 L 7.34375 -8.6875 Z M 7.34375 -7.375 "/></g></g></g><g fill="#dec2ba" fill-opacity="1"><g transform="translate(233.291238, 178.082904)"><g><path d="M 1.75 -7.453125 C 2.632812 -8.296875 3.722656 -8.71875 5.015625 -8.71875 C 6.316406 -8.71875 7.410156 -8.296875 8.296875 -7.453125 C 9.179688 -6.617188 9.625 -5.582031 9.625 -4.34375 C 9.625 -3.101562 9.179688 -2.054688 8.296875 -1.203125 C 7.410156 -0.359375 6.316406 0.0625 5.015625 0.0625 C 3.722656 0.0625 2.632812 -0.359375 1.75 -1.203125 C 0.863281 -2.054688 0.421875 -3.101562 0.421875 -4.34375 C 0.421875 -5.582031 0.863281 -6.617188 1.75 -7.453125 Z M 5.03125 -7.40625 C 4.175781 -7.40625 3.441406 -7.109375 2.828125 -6.515625 C 2.210938 -5.921875 1.90625 -5.191406 1.90625 -4.328125 C 1.90625 -3.472656 2.210938 -2.742188 2.828125 -2.140625 C 3.453125 -1.546875 4.1875 -1.25 5.03125 -1.25 C 5.882812 -1.25 6.613281 -1.546875 7.21875 -2.140625 C 7.820312 -2.742188 8.125 -3.472656 8.125 -4.328125 C 8.125 -5.191406 7.820312 -5.921875 7.21875 -6.515625 C 6.613281 -7.109375 5.882812 -7.40625 5.03125 -7.40625 Z M 5.03125 -7.40625 "/></g></g></g><g fill="#dec2ba" fill-opacity="1"><g transform="translate(253.261143, 178.082904)"><g><path d="M 6.953125 -7.375 L 2.609375 -7.375 L 2.609375 -4.859375 L 6.546875 -4.859375 L 6.546875 -3.5625 L 2.609375 -3.5625 L 2.609375 0 L 1.140625 0 L 1.140625 -8.6875 L 6.96875 -8.6875 Z M 6.953125 -7.375 "/></g></g></g><g fill="#dec2ba" fill-opacity="1"><g transform="translate(270.317416, 178.082904)"><g><path d="M 1.140625 -8.6875 L 4.703125 -8.6875 C 6.003906 -8.6875 7.078125 -8.273438 7.921875 -7.453125 C 8.765625 -6.640625 9.1875 -5.601562 9.1875 -4.34375 C 9.1875 -3.082031 8.757812 -2.039062 7.90625 -1.21875 C 7.0625 -0.40625 5.984375 0 4.671875 0 L 1.140625 0 Z M 2.609375 -7.375 L 2.609375 -1.3125 L 4.734375 -1.3125 C 5.585938 -1.3125 6.296875 -1.59375 6.859375 -2.15625 C 7.429688 -2.726562 7.71875 -3.453125 7.71875 -4.328125 C 7.71875 -5.203125 7.425781 -5.925781 6.84375 -6.5 C 6.257812 -7.082031 5.535156 -7.375 4.671875 -7.375 Z M 2.609375 -7.375 "/></g></g></g><g fill="#dec2ba" fill-opacity="1"><g transform="translate(289.853372, 178.082904)"><g><path d="M 10.328125 0 L 8.96875 0 L 8.953125 -6.484375 L 6.21875 -0.90625 L 5.265625 -0.90625 L 2.515625 -6.484375 L 2.515625 0 L 1.140625 0 L 1.140625 -8.6875 L 2.875 -8.6875 L 5.75 -2.921875 L 8.59375 -8.6875 L 10.328125 -8.6875 Z M 10.328125 0 "/></g></g></g><g fill="#dec2ba" fill-opacity="1"><g transform="translate(311.249084, 178.082904)"><g><path d="M 4.984375 -8.71875 C 5.597656 -8.71875 6.195312 -8.597656 6.78125 -8.359375 C 7.363281 -8.128906 7.863281 -7.800781 8.28125 -7.375 L 7.4375 -6.3125 C 7.113281 -6.65625 6.738281 -6.925781 6.3125 -7.125 C 5.882812 -7.320312 5.453125 -7.421875 5.015625 -7.421875 C 4.140625 -7.421875 3.398438 -7.125 2.796875 -6.53125 C 2.203125 -5.9375 1.90625 -5.210938 1.90625 -4.359375 C 1.90625 -3.503906 2.203125 -2.78125 2.796875 -2.1875 C 3.398438 -1.59375 4.140625 -1.296875 5.015625 -1.296875 C 5.910156 -1.296875 6.71875 -1.640625 7.4375 -2.328125 L 8.296875 -1.359375 C 7.847656 -0.921875 7.328125 -0.570312 6.734375 -0.3125 C 6.140625 -0.0625 5.539062 0.0625 4.9375 0.0625 C 3.664062 0.0625 2.59375 -0.359375 1.71875 -1.203125 C 0.851562 -2.054688 0.421875 -3.109375 0.421875 -4.359375 C 0.421875 -5.585938 0.859375 -6.617188 1.734375 -7.453125 C 2.617188 -8.296875 3.703125 -8.71875 4.984375 -8.71875 Z M 4.984375 -8.71875 "/></g></g></g></svg>