<svg xmlns="http://www.w3.org/2000/svg" xmlns:xlink="http://www.w3.org/1999/xlink" width="500" zoomAndPan="magnify" viewBox="0 0 375 374.999991" height="500" preserveAspectRatio="xMidYMid meet" version="1.0"><defs><g/><clipPath id="625fc7f72d"><path d="M 91.738281 187.5 L 105.476562 187.5 L 105.476562 194.574219 L 91.738281 194.574219 Z M 91.738281 187.5 " clip-rule="nonzero"/></clipPath><clipPath id="08b013af59"><path d="M 93.238281 187.5 L 103.976562 187.5 C 104.375 187.5 104.753906 187.65625 105.035156 187.9375 C 105.316406 188.21875 105.476562 188.601562 105.476562 189 L 105.476562 193.074219 C 105.476562 193.472656 105.316406 193.851562 105.035156 194.132812 C 104.753906 194.414062 104.375 194.574219 103.976562 194.574219 L 93.238281 194.574219 C 92.839844 194.574219 92.460938 194.414062 92.179688 194.132812 C 91.898438 193.851562 91.738281 193.472656 91.738281 193.074219 L 91.738281 189 C 91.738281 188.601562 91.898438 188.21875 92.179688 187.9375 C 92.460938 187.65625 92.839844 187.5 93.238281 187.5 " clip-rule="nonzero"/></clipPath><clipPath id="1c5a6ef297"><path d="M 267.855469 191.035156 L 278.375 191.035156 L 278.375 201.554688 L 267.855469 201.554688 Z M 267.855469 191.035156 " clip-rule="nonzero"/></clipPath><clipPath id="42b373f2db"><path d="M 273.113281 191.035156 C 270.210938 191.035156 267.855469 193.390625 267.855469 196.296875 C 267.855469 199.203125 270.210938 201.554688 273.113281 201.554688 C 276.019531 201.554688 278.375 199.203125 278.375 196.296875 C 278.375 193.390625 276.019531 191.035156 273.113281 191.035156 " clip-rule="nonzero"/></clipPath><clipPath id="7e381935aa"><path d="M 160.019531 227.984375 L 214.757812 227.984375 L 214.757812 242.984375 L 160.019531 242.984375 Z M 160.019531 227.984375 " clip-rule="nonzero"/></clipPath><clipPath id="b93f4a27a2"><path d="M 167.351562 227.984375 L 207.414062 227.984375 C 211.464844 227.984375 214.75 231.339844 214.75 235.484375 C 214.75 239.625 211.464844 242.984375 207.414062 242.984375 L 167.351562 242.984375 C 163.300781 242.984375 160.019531 239.625 160.019531 235.484375 C 160.019531 231.339844 163.300781 227.984375 167.351562 227.984375 " clip-rule="nonzero"/></clipPath></defs><g clip-path="url(#625fc7f72d)"><g clip-path="url(#08b013af59)"><path fill="#000000" d="M 91.738281 187.5 L 105.476562 187.5 L 105.476562 194.574219 L 91.738281 194.574219 Z M 91.738281 187.5 " fill-opacity="1" fill-rule="nonzero"/></g></g><g clip-path="url(#1c5a6ef297)"><g clip-path="url(#42b373f2db)"><path fill="#000000" d="M 267.855469 191.035156 L 278.375 191.035156 L 278.375 201.554688 L 267.855469 201.554688 Z M 267.855469 191.035156 " fill-opacity="1" fill-rule="nonzero"/></g></g><g clip-path="url(#7e381935aa)"><g clip-path="url(#b93f4a27a2)"><path stroke-linecap="butt" transform="matrix(0.746962, 0, 0, 0.763723, 160.017944, 227.983461)" fill="none" stroke-linejoin="miter" d="M 9.817924 0.00119673 L 63.451832 0.00119673 C 68.874839 0.00119673 73.272861 4.394764 73.272861 9.82151 C 73.272861 15.243141 68.874839 19.641822 63.451832 19.641822 L 9.817924 19.641822 C 4.394917 19.641822 0.00212442 15.243141 0.00212442 9.82151 C 0.00212442 4.394764 4.394917 0.00119673 9.817924 0.00119673 " stroke="#000000" stroke-width="2" stroke-opacity="1" stroke-miterlimit="4"/></g></g><g fill="#000000" fill-opacity="1"><g transform="translate(106.112614, 200.524706)"><g><path d="M 18.734375 -20.40625 L 18.734375 0 L 9.921875 0 L 9.921875 -20.40625 L 0.921875 -20.40625 L 0.921875 -27.421875 L 27.703125 -27.421875 L 27.703125 -20.40625 Z M 18.734375 -20.40625 "/></g></g></g><g fill="#000000" fill-opacity="1"><g transform="translate(130.82215, 200.524706)"><g><path d="M 10.328125 -18.859375 C 11.171875 -19.703125 12.164062 -20.359375 13.3125 -20.828125 C 14.457031 -21.296875 15.65625 -21.53125 16.90625 -21.53125 C 19.34375 -21.53125 21.171875 -20.847656 22.390625 -19.484375 C 23.617188 -18.128906 24.234375 -16.175781 24.234375 -13.625 L 24.234375 0 L 16.296875 0 L 16.296875 -12.671875 C 16.296875 -13.578125 16.0625 -14.300781 15.59375 -14.84375 C 15.132812 -15.394531 14.476562 -15.671875 13.625 -15.671875 C 12.644531 -15.671875 11.847656 -15.347656 11.234375 -14.703125 C 10.628906 -14.066406 10.328125 -13.285156 10.328125 -12.359375 L 10.328125 0 L 2.390625 0 L 2.390625 -28.890625 L 10.328125 -28.890625 Z M 10.328125 -18.859375 "/></g></g></g><g fill="#000000" fill-opacity="1"><g transform="translate(153.339649, 200.524706)"><g><path d="M 13.265625 -21.53125 C 17.117188 -21.53125 20.0625 -20.625 22.09375 -18.8125 C 24.132812 -17.007812 25.15625 -14.242188 25.15625 -10.515625 L 25.15625 -9.171875 L 9.359375 -9.171875 C 9.359375 -7.648438 9.695312 -6.503906 10.375 -5.734375 C 11.0625 -4.960938 12.132812 -4.578125 13.59375 -4.578125 C 14.914062 -4.578125 15.890625 -4.859375 16.515625 -5.421875 C 17.140625 -5.984375 17.453125 -6.726562 17.453125 -7.65625 L 25.15625 -7.65625 C 25.15625 -5.101562 24.179688 -3.109375 22.234375 -1.671875 C 20.296875 -0.234375 17.46875 0.484375 13.75 0.484375 C 9.84375 0.484375 6.8125 -0.425781 4.65625 -2.25 C 2.507812 -4.070312 1.4375 -6.828125 1.4375 -10.515625 C 1.4375 -14.128906 2.484375 -16.867188 4.578125 -18.734375 C 6.679688 -20.597656 9.578125 -21.53125 13.265625 -21.53125 Z M 13.59375 -16.46875 C 11.09375 -16.46875 9.695312 -15.285156 9.40625 -12.921875 L 17.140625 -12.921875 C 17.140625 -14.003906 16.828125 -14.863281 16.203125 -15.5 C 15.578125 -16.144531 14.707031 -16.46875 13.59375 -16.46875 Z M 13.59375 -16.46875 "/></g></g></g><g fill="#000000" fill-opacity="1"><g transform="translate(175.857147, 200.524706)"><g><path d="M 14.828125 -27.421875 C 24.421875 -27.421875 29.21875 -22.851562 29.21875 -13.71875 C 29.21875 -4.570312 24.421875 0 14.828125 0 L 2.953125 0 L 2.953125 -27.421875 Z M 11.765625 -6.578125 L 14.671875 -6.578125 C 18.359375 -6.578125 20.203125 -8.554688 20.203125 -12.515625 L 20.203125 -14.90625 C 20.203125 -18.863281 18.359375 -20.84375 14.671875 -20.84375 L 11.765625 -20.84375 Z M 11.765625 -6.578125 "/></g></g></g><g fill="#000000" fill-opacity="1"><g transform="translate(202.79857, 200.524706)"><g><path d="M 26.5 0 L 26.5 -9.890625 C 26.5 -11.109375 26.546875 -12.359375 26.640625 -13.640625 C 26.734375 -14.929688 26.832031 -16.015625 26.9375 -16.890625 C 27.050781 -17.773438 27.117188 -18.335938 27.140625 -18.578125 L 26.984375 -18.578125 L 21.921875 0 L 15.03125 0 L 9.921875 -18.53125 L 9.765625 -18.53125 C 9.796875 -18.289062 9.867188 -17.738281 9.984375 -16.875 C 10.109375 -16.007812 10.222656 -14.929688 10.328125 -13.640625 C 10.429688 -12.359375 10.484375 -11.109375 10.484375 -9.890625 L 10.484375 0 L 2.390625 0 L 2.390625 -27.421875 L 14.828125 -27.421875 L 18.96875 -11.59375 L 19.125 -11.59375 L 23.234375 -27.421875 L 35.234375 -27.421875 L 35.234375 0 Z M 26.5 0 "/></g></g></g><g fill="#000000" fill-opacity="1"><g transform="translate(236.355961, 200.524706)"><g><path d="M 16.015625 -27.90625 C 20.085938 -27.90625 23.304688 -26.882812 25.671875 -24.84375 C 28.035156 -22.8125 29.21875 -19.910156 29.21875 -16.140625 L 20.8125 -16.140625 C 20.8125 -17.734375 20.390625 -18.992188 19.546875 -19.921875 C 18.710938 -20.859375 17.523438 -21.328125 15.984375 -21.328125 C 14.203125 -21.328125 12.890625 -20.765625 12.046875 -19.640625 C 11.210938 -18.523438 10.796875 -16.972656 10.796875 -14.984375 L 10.796875 -12.4375 C 10.796875 -10.46875 11.210938 -8.914062 12.046875 -7.78125 C 12.890625 -6.65625 14.175781 -6.09375 15.90625 -6.09375 C 17.601562 -6.09375 18.890625 -6.53125 19.765625 -7.40625 C 20.640625 -8.289062 21.078125 -9.53125 21.078125 -11.125 L 29.21875 -11.125 C 29.21875 -7.375 28.066406 -4.5 25.765625 -2.5 C 23.472656 -0.507812 20.222656 0.484375 16.015625 0.484375 C 11.347656 0.484375 7.8125 -0.710938 5.40625 -3.109375 C 3 -5.503906 1.796875 -9.039062 1.796875 -13.71875 C 1.796875 -18.394531 3 -21.925781 5.40625 -24.3125 C 7.8125 -26.707031 11.347656 -27.90625 16.015625 -27.90625 Z M 16.015625 -27.90625 "/></g></g></g><g fill="#000000" fill-opacity="1"><g transform="translate(166.412937, 239.477444)"><g><path d="M 5.726562 -3.0625 L 6.753906 0 L 7.921875 0 L 4.933594 -8.664062 L 3.476562 -8.664062 L 0.363281 0 L 1.519531 0 L 2.535156 -3.0625 Z M 2.835938 -3.941406 L 4.179688 -7.808594 L 5.4375 -3.941406 Z M 2.835938 -3.941406 "/></g></g></g><g fill="#000000" fill-opacity="1"><g transform="translate(172.988456, 239.477444)"><g><path d="M 5.007812 -4.179688 L 5.007812 -3.300781 L 7.03125 -3.300781 C 7.03125 -1.757812 5.988281 -0.679688 4.582031 -0.679688 C 2.875 -0.679688 1.796875 -2.210938 1.796875 -4.34375 C 1.796875 -6.441406 2.886719 -7.984375 4.65625 -7.984375 C 6.101562 -7.984375 6.867188 -7.144531 7.117188 -5.902344 L 7.144531 -5.773438 L 8.222656 -5.773438 L 8.210938 -5.902344 C 8.035156 -7.597656 6.878906 -8.839844 4.683594 -8.839844 C 2.222656 -8.839844 0.589844 -6.929688 0.589844 -4.292969 C 0.589844 -1.757812 1.996094 0.175781 4.519531 0.175781 C 5.511719 0.175781 6.277344 -0.152344 6.765625 -0.703125 L 7.15625 -1.507812 L 7.15625 0 L 8.109375 0 L 8.109375 -4.179688 Z M 5.007812 -4.179688 "/></g></g></g><g fill="#000000" fill-opacity="1"><g transform="translate(180.45508, 239.477444)"><g><path d="M 7.019531 -0.878906 L 2.335938 -0.878906 L 2.335938 -3.890625 L 6.515625 -3.890625 L 6.515625 -4.769531 L 2.335938 -4.769531 L 2.335938 -7.785156 L 6.894531 -7.785156 L 6.894531 -8.664062 L 1.253906 -8.664062 L 1.253906 0 L 7.019531 0 Z M 7.019531 -0.878906 "/></g></g></g><g fill="#000000" fill-opacity="1"><g transform="translate(186.377965, 239.477444)"><g><path d="M 8.035156 0 L 8.011719 -8.664062 L 6.957031 -8.664062 L 6.957031 -4.332031 C 6.957031 -3.316406 6.96875 -2.070312 6.992188 -1.054688 L 2.914062 -8.664062 L 1.253906 -8.664062 L 1.253906 0 L 2.335938 0 L 2.335938 -4.332031 C 2.335938 -5.347656 2.324219 -6.589844 2.296875 -7.609375 L 6.378906 0 Z M 8.035156 0 "/></g></g></g><g fill="#000000" fill-opacity="1"><g transform="translate(193.945, 239.477444)"><g><path d="M 4.683594 -8.839844 C 2.222656 -8.839844 0.589844 -6.929688 0.589844 -4.292969 C 0.589844 -1.757812 1.996094 0.175781 4.519531 0.175781 C 6.804688 0.175781 7.972656 -1.191406 8.136719 -2.761719 L 8.148438 -2.886719 L 7.070312 -2.886719 L 7.042969 -2.761719 C 6.792969 -1.519531 6.027344 -0.679688 4.582031 -0.679688 C 2.875 -0.679688 1.796875 -2.210938 1.796875 -4.34375 C 1.796875 -6.441406 2.886719 -7.984375 4.65625 -7.984375 C 6.101562 -7.984375 6.867188 -7.144531 7.117188 -5.902344 L 7.144531 -5.773438 L 8.222656 -5.773438 L 8.210938 -5.902344 C 8.035156 -7.597656 6.878906 -8.839844 4.683594 -8.839844 Z M 4.683594 -8.839844 "/></g></g></g><g fill="#000000" fill-opacity="1"><g transform="translate(201.273561, 239.477444)"><g><path d="M 4.382812 -3.414062 L 7.445312 -8.664062 L 6.226562 -8.664062 L 3.890625 -4.457031 L 1.480469 -8.664062 L 0.238281 -8.664062 L 3.300781 -3.414062 L 3.300781 0 L 4.382812 0 Z M 4.382812 -3.414062 "/></g></g></g></svg>