<svg xmlns="http://www.w3.org/2000/svg" xmlns:xlink="http://www.w3.org/1999/xlink" width="500" zoomAndPan="magnify" viewBox="0 0 375 374.999991" height="500" preserveAspectRatio="xMidYMid meet" version="1.0"><defs><g/><clipPath id="d620ac1c36"><path d="M 261.332031 209.011719 L 280.933594 209.011719 L 280.933594 228.613281 L 261.332031 228.613281 Z M 261.332031 209.011719 " clip-rule="nonzero"/></clipPath><clipPath id="686b814081"><path d="M 271.132812 209.011719 C 265.722656 209.011719 261.332031 213.402344 261.332031 218.8125 C 261.332031 224.226562 265.722656 228.613281 271.132812 228.613281 C 276.546875 228.613281 280.933594 224.226562 280.933594 218.8125 C 280.933594 213.402344 276.546875 209.011719 271.132812 209.011719 " clip-rule="nonzero"/></clipPath></defs><g fill="#000000" fill-opacity="1"><g transform="translate(112.067853, 224.624985)"><g><path d="M 3.578125 -80.84375 L 25.875 -80.84375 C 31.644531 -80.84375 35.972656 -79.238281 38.859375 -76.03125 C 41.753906 -72.832031 43.234375 -68.097656 43.296875 -61.828125 L 43.484375 -24 C 43.546875 -16.03125 42.164062 -10.035156 39.34375 -6.015625 C 36.519531 -2.003906 31.84375 0 25.3125 0 L 3.578125 0 Z M 22.6875 -14.296875 C 25.632812 -14.296875 27.109375 -15.742188 27.109375 -18.640625 L 27.109375 -60.328125 C 27.109375 -62.140625 26.960938 -63.5 26.671875 -64.40625 C 26.390625 -65.320312 25.875 -65.9375 25.125 -66.25 C 24.375 -66.5625 23.210938 -66.71875 21.640625 -66.71875 L 19.859375 -66.71875 L 19.859375 -14.296875 Z M 22.6875 -14.296875 "/></g></g></g><g fill="#000000" fill-opacity="1"><g transform="translate(153.283941, 224.624985)"><g><path d="M 3.578125 0 L 3.578125 -80.84375 L 28.234375 -80.84375 L 35.015625 -31.53125 L 41.78125 -80.84375 L 66.625 -80.84375 L 66.625 0 L 51.859375 0 L 51.859375 -58.25 L 42.53125 0 L 28.046875 0 L 18.15625 -58.25 L 18.15625 0 Z M 3.578125 0 "/></g></g></g><g fill="#000000" fill-opacity="1"><g transform="translate(218.307722, 224.624985)"><g><path d="M 22.390625 0.75 C 16.492188 0.75 11.773438 -1.097656 8.234375 -4.796875 C 4.691406 -8.503906 2.921875 -13.585938 2.921875 -20.046875 L 2.921875 -57.3125 C 2.921875 -65.34375 4.519531 -71.394531 7.71875 -75.46875 C 10.914062 -79.550781 15.9375 -81.59375 22.78125 -81.59375 C 28.738281 -81.59375 33.535156 -79.960938 37.171875 -76.703125 C 40.804688 -73.441406 42.625 -68.734375 42.625 -62.578125 L 42.625 -48.65625 L 26.53125 -48.65625 L 26.53125 -60.609375 C 26.53125 -62.929688 26.25 -64.53125 25.6875 -65.40625 C 25.125 -66.28125 24.15625 -66.71875 22.78125 -66.71875 C 21.332031 -66.71875 20.34375 -66.21875 19.8125 -65.21875 C 19.28125 -64.21875 19.015625 -62.742188 19.015625 -60.796875 L 19.015625 -20.234375 C 19.015625 -18.097656 19.328125 -16.539062 19.953125 -15.5625 C 20.578125 -14.59375 21.519531 -14.109375 22.78125 -14.109375 C 25.28125 -14.109375 26.53125 -16.148438 26.53125 -20.234375 L 26.53125 -34.828125 L 42.8125 -34.828125 L 42.8125 -19.578125 C 42.8125 -6.023438 36.003906 0.75 22.390625 0.75 Z M 22.390625 0.75 "/></g></g></g><g clip-path="url(#d620ac1c36)"><g clip-path="url(#686b814081)"><path fill="#000000" d="M 261.332031 209.011719 L 280.933594 209.011719 L 280.933594 228.613281 L 261.332031 228.613281 Z M 261.332031 209.011719 " fill-opacity="1" fill-rule="nonzero"/></g></g></svg>