<svg xmlns="http://www.w3.org/2000/svg" xmlns:xlink="http://www.w3.org/1999/xlink" width="500" zoomAndPan="magnify" viewBox="0 0 375 374.999991" height="500" preserveAspectRatio="xMidYMid meet" version="1.0"><defs><g/><clipPath id="c4d14c1061"><path d="M 162 121 L 207 121 L 207 180 L 162 180 Z M 162 121 " clip-rule="nonzero"/></clipPath><clipPath id="9c5a0e449e"><path d="M 192.605469 121.207031 L 206.121094 129.363281 L 175.582031 179.96875 L 162.066406 171.8125 Z M 192.605469 121.207031 " clip-rule="nonzero"/></clipPath><clipPath id="8c109c36a3"><path d="M 192.605469 121.207031 L 206.121094 129.363281 L 175.582031 179.96875 L 162.066406 171.8125 Z M 192.605469 121.207031 " clip-rule="nonzero"/></clipPath><clipPath id="2f0edebf41"><path d="M 163 129 L 194 129 L 194 160 L 163 160 Z M 163 129 " clip-rule="nonzero"/></clipPath><clipPath id="f699a98c46"><path d="M 174.800781 129.265625 L 193.21875 140.378906 L 181.894531 159.144531 L 163.476562 148.027344 Z M 174.800781 129.265625 " clip-rule="nonzero"/></clipPath><clipPath id="b9435c50e4"><path d="M 174.800781 129.265625 L 193.21875 140.378906 L 181.894531 159.144531 L 163.476562 148.027344 Z M 174.800781 129.265625 " clip-rule="nonzero"/></clipPath><clipPath id="be4f462fca"><path d="M 185 131 L 214 131 L 214 160 L 185 160 Z M 185 131 " clip-rule="nonzero"/></clipPath><clipPath id="6f80ed6f38"><path d="M 195.132812 131.269531 L 213.546875 142.382812 L 203.429688 159.144531 L 185.015625 148.027344 Z M 195.132812 131.269531 " clip-rule="nonzero"/></clipPath><clipPath id="832bb580b2"><path d="M 195.132812 131.269531 L 213.546875 142.382812 L 203.429688 159.144531 L 185.015625 148.027344 Z M 195.132812 131.269531 " clip-rule="nonzero"/></clipPath><clipPath id="4fe952ea1a"><path d="M 156 106 L 215 106 L 215 188 L 156 188 Z M 156 106 " clip-rule="nonzero"/></clipPath><clipPath id="57c5bb371a"><path d="M 154.253906 186.953125 L 212.53125 103.976562 L 216.859375 107.015625 L 158.582031 189.992188 Z M 154.253906 186.953125 " clip-rule="nonzero"/></clipPath><clipPath id="fc80e092d6"><path d="M 156.601562 186.765625 L 157.839844 187.632812 L 175.539062 162.429688 L 174.300781 161.5625 Z M 195.375 131.5625 L 196.609375 132.429688 L 214.308594 107.226562 L 213.074219 106.359375 Z M 195.375 131.5625 " clip-rule="nonzero"/></clipPath></defs><g fill="#3d3b3a" fill-opacity="1"><g transform="translate(54.075224, 238.401137)"><g><path d="M 1.546875 -11.734375 L 6.359375 -11.734375 C 8.109375 -11.734375 9.554688 -11.179688 10.703125 -10.078125 C 11.847656 -8.972656 12.421875 -7.566406 12.421875 -5.859375 C 12.421875 -4.160156 11.84375 -2.757812 10.6875 -1.65625 C 9.539062 -0.550781 8.078125 0 6.296875 0 L 1.546875 0 Z M 3.515625 -9.953125 L 3.515625 -1.78125 L 6.40625 -1.78125 C 7.550781 -1.78125 8.503906 -2.160156 9.265625 -2.921875 C 10.035156 -3.691406 10.421875 -4.664062 10.421875 -5.84375 C 10.421875 -7.03125 10.023438 -8.007812 9.234375 -8.78125 C 8.453125 -9.5625 7.484375 -9.953125 6.328125 -9.953125 Z M 3.515625 -9.953125 "/></g></g></g><g fill="#3d3b3a" fill-opacity="1"><g transform="translate(73.782522, 238.401137)"><g><path d="M 9.125 -2.65625 L 3.203125 -2.65625 L 2.078125 0 L 0.015625 0 L 5.203125 -11.734375 L 7.21875 -11.734375 L 12.359375 0 L 10.25 0 Z M 8.359375 -4.40625 L 6.15625 -9.625 L 3.9375 -4.40625 Z M 8.359375 -4.40625 "/></g></g></g><g fill="#3d3b3a" fill-opacity="1"><g transform="translate(92.869282, 238.401137)"><g><path d="M 8.984375 0 L 6.84375 -3.546875 C 6.726562 -3.535156 6.546875 -3.53125 6.296875 -3.53125 L 3.515625 -3.53125 L 3.515625 0 L 1.546875 0 L 1.546875 -11.734375 L 6.296875 -11.734375 C 7.796875 -11.734375 8.957031 -11.382812 9.78125 -10.6875 C 10.613281 -9.988281 11.03125 -9.003906 11.03125 -7.734375 C 11.03125 -6.796875 10.820312 -6 10.40625 -5.34375 C 9.988281 -4.695312 9.382812 -4.222656 8.59375 -3.921875 L 11.234375 0 Z M 3.515625 -5.3125 L 6.296875 -5.3125 C 8.203125 -5.3125 9.15625 -6.097656 9.15625 -7.671875 C 9.15625 -9.191406 8.203125 -9.953125 6.296875 -9.953125 L 3.515625 -9.953125 Z M 3.515625 -5.3125 "/></g></g></g><g fill="#3d3b3a" fill-opacity="1"><g transform="translate(111.704475, 238.401137)"><g><path d="M 5.40625 -11.8125 C 6.914062 -11.8125 8.28125 -11.410156 9.5 -10.609375 L 8.6875 -8.875 C 7.488281 -9.59375 6.34375 -9.953125 5.25 -9.953125 C 4.65625 -9.953125 4.1875 -9.847656 3.84375 -9.640625 C 3.507812 -9.429688 3.34375 -9.128906 3.34375 -8.734375 C 3.34375 -8.335938 3.5 -8.003906 3.8125 -7.734375 C 4.125 -7.460938 4.515625 -7.257812 4.984375 -7.125 C 5.453125 -7 5.957031 -6.835938 6.5 -6.640625 C 7.050781 -6.453125 7.5625 -6.25 8.03125 -6.03125 C 8.5 -5.8125 8.882812 -5.46875 9.1875 -5 C 9.5 -4.539062 9.65625 -3.976562 9.65625 -3.3125 C 9.65625 -2.289062 9.242188 -1.472656 8.421875 -0.859375 C 7.597656 -0.242188 6.535156 0.0625 5.234375 0.0625 C 4.335938 0.0625 3.46875 -0.101562 2.625 -0.4375 C 1.789062 -0.769531 1.0625 -1.222656 0.4375 -1.796875 L 1.296875 -3.5 C 1.878906 -2.957031 2.523438 -2.535156 3.234375 -2.234375 C 3.953125 -1.941406 4.628906 -1.796875 5.265625 -1.796875 C 5.953125 -1.796875 6.488281 -1.921875 6.875 -2.171875 C 7.257812 -2.421875 7.453125 -2.769531 7.453125 -3.21875 C 7.453125 -3.625 7.296875 -3.960938 6.984375 -4.234375 C 6.671875 -4.503906 6.28125 -4.703125 5.8125 -4.828125 C 5.34375 -4.960938 4.832031 -5.117188 4.28125 -5.296875 C 3.738281 -5.484375 3.234375 -5.679688 2.765625 -5.890625 C 2.296875 -6.097656 1.90625 -6.429688 1.59375 -6.890625 C 1.28125 -7.347656 1.125 -7.898438 1.125 -8.546875 C 1.125 -9.546875 1.515625 -10.335938 2.296875 -10.921875 C 3.078125 -11.515625 4.113281 -11.8125 5.40625 -11.8125 Z M 5.40625 -11.8125 "/></g></g></g><g fill="#3d3b3a" fill-opacity="1"><g transform="translate(128.845749, 238.401137)"><g><path d="M 11.71875 0 L 9.734375 0 L 9.734375 -4.859375 L 3.515625 -4.859375 L 3.515625 0 L 1.546875 0 L 1.546875 -11.734375 L 3.515625 -11.734375 L 3.515625 -6.640625 L 9.734375 -6.640625 L 9.734375 -11.734375 L 11.71875 -11.734375 Z M 11.71875 0 "/></g></g></g><g fill="#3d3b3a" fill-opacity="1"><g transform="translate(148.821401, 238.401137)"><g><path d="M 3.515625 0 L 1.546875 0 L 1.546875 -11.734375 L 3.515625 -11.734375 Z M 3.515625 0 "/></g></g></g><g fill="#3d3b3a" fill-opacity="1"><g transform="translate(160.595813, 238.401137)"><g><path d="M 3.515625 -1.796875 L 8.59375 -1.796875 L 8.59375 0 L 1.546875 0 L 1.546875 -11.734375 L 3.515625 -11.734375 Z M 3.515625 -1.796875 "/></g></g></g><g fill="#3d3b3a" fill-opacity="1"><g transform="translate(176.261199, 238.401137)"><g/></g></g><g fill="#3d3b3a" fill-opacity="1"><g transform="translate(187.297676, 238.401137)"><g><path d="M 3.515625 -1.796875 L 8.59375 -1.796875 L 8.59375 0 L 1.546875 0 L 1.546875 -11.734375 L 3.515625 -11.734375 Z M 3.515625 -1.796875 "/></g></g></g><g fill="#3d3b3a" fill-opacity="1"><g transform="translate(202.963062, 238.401137)"><g><path d="M 9.125 -2.65625 L 3.203125 -2.65625 L 2.078125 0 L 0.015625 0 L 5.203125 -11.734375 L 7.21875 -11.734375 L 12.359375 0 L 10.25 0 Z M 8.359375 -4.40625 L 6.15625 -9.625 L 3.9375 -4.40625 Z M 8.359375 -4.40625 "/></g></g></g><g fill="#3d3b3a" fill-opacity="1"><g transform="translate(222.049818, 238.401137)"><g><path d="M 5.40625 -11.8125 C 6.914062 -11.8125 8.28125 -11.410156 9.5 -10.609375 L 8.6875 -8.875 C 7.488281 -9.59375 6.34375 -9.953125 5.25 -9.953125 C 4.65625 -9.953125 4.1875 -9.847656 3.84375 -9.640625 C 3.507812 -9.429688 3.34375 -9.128906 3.34375 -8.734375 C 3.34375 -8.335938 3.5 -8.003906 3.8125 -7.734375 C 4.125 -7.460938 4.515625 -7.257812 4.984375 -7.125 C 5.453125 -7 5.957031 -6.835938 6.5 -6.640625 C 7.050781 -6.453125 7.5625 -6.25 8.03125 -6.03125 C 8.5 -5.8125 8.882812 -5.46875 9.1875 -5 C 9.5 -4.539062 9.65625 -3.976562 9.65625 -3.3125 C 9.65625 -2.289062 9.242188 -1.472656 8.421875 -0.859375 C 7.597656 -0.242188 6.535156 0.0625 5.234375 0.0625 C 4.335938 0.0625 3.46875 -0.101562 2.625 -0.4375 C 1.789062 -0.769531 1.0625 -1.222656 0.4375 -1.796875 L 1.296875 -3.5 C 1.878906 -2.957031 2.523438 -2.535156 3.234375 -2.234375 C 3.953125 -1.941406 4.628906 -1.796875 5.265625 -1.796875 C 5.953125 -1.796875 6.488281 -1.921875 6.875 -2.171875 C 7.257812 -2.421875 7.453125 -2.769531 7.453125 -3.21875 C 7.453125 -3.625 7.296875 -3.960938 6.984375 -4.234375 C 6.671875 -4.503906 6.28125 -4.703125 5.8125 -4.828125 C 5.34375 -4.960938 4.832031 -5.117188 4.28125 -5.296875 C 3.738281 -5.484375 3.234375 -5.679688 2.765625 -5.890625 C 2.296875 -6.097656 1.90625 -6.429688 1.59375 -6.890625 C 1.28125 -7.347656 1.125 -7.898438 1.125 -8.546875 C 1.125 -9.546875 1.515625 -10.335938 2.296875 -10.921875 C 3.078125 -11.515625 4.113281 -11.8125 5.40625 -11.8125 Z M 5.40625 -11.8125 "/></g></g></g><g fill="#3d3b3a" fill-opacity="1"><g transform="translate(239.191086, 238.401137)"><g><path d="M 11.71875 0 L 9.734375 0 L 9.734375 -4.859375 L 3.515625 -4.859375 L 3.515625 0 L 1.546875 0 L 1.546875 -11.734375 L 3.515625 -11.734375 L 3.515625 -6.640625 L 9.734375 -6.640625 L 9.734375 -11.734375 L 11.71875 -11.734375 Z M 11.71875 0 "/></g></g></g><g fill="#3d3b3a" fill-opacity="1"><g transform="translate(259.166732, 238.401137)"><g><path d="M 9.375 0 L 5.515625 -5.1875 L 3.515625 -2.984375 L 3.515625 0 L 1.546875 0 L 1.546875 -11.734375 L 3.515625 -11.734375 L 3.515625 -5.671875 L 9.125 -11.734375 L 11.453125 -11.734375 L 6.90625 -6.71875 L 11.75 0 Z M 9.375 0 "/></g></g></g><g fill="#3d3b3a" fill-opacity="1"><g transform="translate(277.918074, 238.401137)"><g><path d="M 9.125 -2.65625 L 3.203125 -2.65625 L 2.078125 0 L 0.015625 0 L 5.203125 -11.734375 L 7.21875 -11.734375 L 12.359375 0 L 10.25 0 Z M 8.359375 -4.40625 L 6.15625 -9.625 L 3.9375 -4.40625 Z M 8.359375 -4.40625 "/></g></g></g><g fill="#3d3b3a" fill-opacity="1"><g transform="translate(297.00483, 238.401137)"><g><path d="M 8.984375 0 L 6.84375 -3.546875 C 6.726562 -3.535156 6.546875 -3.53125 6.296875 -3.53125 L 3.515625 -3.53125 L 3.515625 0 L 1.546875 0 L 1.546875 -11.734375 L 6.296875 -11.734375 C 7.796875 -11.734375 8.957031 -11.382812 9.78125 -10.6875 C 10.613281 -9.988281 11.03125 -9.003906 11.03125 -7.734375 C 11.03125 -6.796875 10.820312 -6 10.40625 -5.34375 C 9.988281 -4.695312 9.382812 -4.222656 8.59375 -3.921875 L 11.234375 0 Z M 3.515625 -5.3125 L 6.296875 -5.3125 C 8.203125 -5.3125 9.15625 -6.097656 9.15625 -7.671875 C 9.15625 -9.191406 8.203125 -9.953125 6.296875 -9.953125 L 3.515625 -9.953125 Z M 3.515625 -5.3125 "/></g></g></g><g fill="#3d3b3a" fill-opacity="1"><g transform="translate(315.84002, 238.401137)"><g><path d="M 3.515625 0 L 1.546875 0 L 1.546875 -11.734375 L 3.515625 -11.734375 Z M 3.515625 0 "/></g></g></g><g fill="#3d3b3a" fill-opacity="1"><g transform="translate(140.376192, 152.935602)"><g><path d="M 27.703125 0.375 C 25.898438 0.375 23.878906 0.28125 21.640625 0.09375 C 20.773438 0.03125 19.703125 -0.03125 18.421875 -0.09375 C 17.148438 -0.15625 15.738281 -0.1875 14.1875 -0.1875 L 8.03125 -0.09375 C 6.90625 -0.03125 5.347656 0 3.359375 0 C 3.234375 0 3.171875 -0.1875 3.171875 -0.5625 C 3.171875 -0.9375 3.234375 -1.125 3.359375 -1.125 C 5.785156 -1.125 7.570312 -1.273438 8.71875 -1.578125 C 9.875 -1.890625 10.664062 -2.5 11.09375 -3.40625 C 11.53125 -4.3125 11.75 -5.695312 11.75 -7.5625 L 11.75 -50.75 C 11.75 -52.613281 11.546875 -53.984375 11.140625 -54.859375 C 10.742188 -55.734375 9.96875 -56.335938 8.8125 -56.671875 C 7.664062 -57.015625 5.878906 -57.1875 3.453125 -57.1875 C 3.328125 -57.1875 3.265625 -57.375 3.265625 -57.75 C 3.265625 -58.125 3.328125 -58.3125 3.453125 -58.3125 L 8.03125 -58.21875 C 10.632812 -58.09375 12.6875 -58.03125 14.1875 -58.03125 C 16.363281 -58.03125 18.570312 -58.125 20.8125 -58.3125 C 23.539062 -58.4375 25.40625 -58.5 26.40625 -58.5 C 32.9375 -58.5 38.71875 -57.253906 43.75 -54.765625 C 48.789062 -52.273438 52.691406 -48.882812 55.453125 -44.59375 C 58.222656 -40.300781 59.609375 -35.484375 59.609375 -30.140625 C 59.609375 -24.097656 58.160156 -18.757812 55.265625 -14.125 C 52.378906 -9.5 48.507812 -5.925781 43.65625 -3.40625 C 38.8125 -0.882812 33.492188 0.375 27.703125 0.375 Z M 26.78125 -0.84375 C 32 -0.84375 36.628906 -1.898438 40.671875 -4.015625 C 44.710938 -6.128906 47.867188 -9.238281 50.140625 -13.34375 C 52.410156 -17.445312 53.546875 -22.359375 53.546875 -28.078125 C 53.546875 -33.554688 52.472656 -38.503906 50.328125 -42.921875 C 48.179688 -47.335938 45.101562 -50.832031 41.09375 -53.40625 C 37.082031 -55.988281 32.46875 -57.28125 27.25 -57.28125 C 24.507812 -57.28125 22.40625 -57.125 20.9375 -56.8125 C 19.476562 -56.5 18.40625 -55.859375 17.71875 -54.890625 C 17.039062 -53.929688 16.703125 -52.488281 16.703125 -50.5625 L 16.703125 -8.578125 C 16.703125 -6.710938 16.976562 -5.21875 17.53125 -4.09375 C 18.09375 -2.976562 19.085938 -2.15625 20.515625 -1.625 C 21.953125 -1.101562 24.039062 -0.84375 26.78125 -0.84375 Z M 26.78125 -0.84375 "/></g></g></g><g fill="#3d3b3a" fill-opacity="1"><g transform="translate(173.852792, 196.85343)"><g><path d="M 37.96875 -59.34375 C 42.070312 -59.34375 45.429688 -59.046875 48.046875 -58.453125 C 50.660156 -57.859375 53.425781 -56.816406 56.34375 -55.328125 C 56.71875 -55.078125 56.953125 -54.875 57.046875 -54.71875 C 57.140625 -54.5625 57.21875 -54.078125 57.28125 -53.265625 L 58.40625 -42.640625 C 58.40625 -42.453125 58.234375 -42.34375 57.890625 -42.3125 C 57.546875 -42.28125 57.34375 -42.359375 57.28125 -42.546875 C 55.914062 -47.703125 53.644531 -51.570312 50.46875 -54.15625 C 47.300781 -56.738281 43.132812 -58.03125 37.96875 -58.03125 C 32.5 -58.03125 27.695312 -56.878906 23.5625 -54.578125 C 19.425781 -52.273438 16.222656 -48.992188 13.953125 -44.734375 C 11.679688 -40.472656 10.546875 -35.515625 10.546875 -29.859375 C 10.546875 -24.566406 11.800781 -19.632812 14.3125 -15.0625 C 16.832031 -10.488281 20.222656 -6.847656 24.484375 -4.140625 C 28.742188 -1.441406 33.300781 -0.09375 38.15625 -0.09375 C 48.476562 -0.09375 55.070312 -5.160156 57.9375 -15.296875 C 57.9375 -15.421875 58.09375 -15.484375 58.40625 -15.484375 C 58.84375 -15.484375 59.0625 -15.390625 59.0625 -15.203125 L 58.3125 -5.3125 C 58.25 -4.570312 58.15625 -4.109375 58.03125 -3.921875 C 57.90625 -3.734375 57.65625 -3.515625 57.28125 -3.265625 C 54.050781 -1.585938 51.019531 -0.421875 48.1875 0.234375 C 45.351562 0.890625 41.976562 1.21875 38.0625 1.21875 C 31.59375 1.21875 25.820312 -0.0703125 20.75 -2.65625 C 15.6875 -5.238281 11.722656 -8.878906 8.859375 -13.578125 C 6.003906 -18.273438 4.578125 -23.671875 4.578125 -29.765625 C 4.578125 -35.609375 6.003906 -40.769531 8.859375 -45.25 C 11.722656 -49.726562 15.6875 -53.195312 20.75 -55.65625 C 25.820312 -58.113281 31.5625 -59.34375 37.96875 -59.34375 Z M 37.96875 -59.34375 "/></g></g></g><g clip-path="url(#c4d14c1061)"><g clip-path="url(#9c5a0e449e)"><g clip-path="url(#8c109c36a3)"><path fill="#ffffff" d="M 192.605469 121.207031 L 206.121094 129.363281 L 175.582031 179.96875 L 162.066406 171.8125 Z M 192.605469 121.207031 " fill-opacity="1" fill-rule="nonzero"/></g></g></g><g clip-path="url(#2f0edebf41)"><g clip-path="url(#f699a98c46)"><g clip-path="url(#b9435c50e4)"><path fill="#ffffff" d="M 174.800781 129.265625 L 193.21875 140.378906 L 181.894531 159.144531 L 163.476562 148.027344 Z M 174.800781 129.265625 " fill-opacity="1" fill-rule="nonzero"/></g></g></g><g clip-path="url(#be4f462fca)"><g clip-path="url(#6f80ed6f38)"><g clip-path="url(#832bb580b2)"><path fill="#ffffff" d="M 195.132812 131.269531 L 213.546875 142.382812 L 203.429688 159.144531 L 185.015625 148.027344 Z M 195.132812 131.269531 " fill-opacity="1" fill-rule="nonzero"/></g></g></g><g clip-path="url(#4fe952ea1a)"><g clip-path="url(#57c5bb371a)"><g clip-path="url(#fc80e092d6)"><path stroke-linecap="butt" transform="matrix(0.431671, -0.614633, 0.618083, 0.434094, 148.319892, 180.948504)" fill="none" stroke-linejoin="miter" d="M -0.000916808 14.398163 L 130.820147 14.399781 " stroke="#3d3b3a" stroke-width="2" stroke-opacity="1" stroke-miterlimit="4"/></g></g></g><g fill="#000000" fill-opacity="1"><g transform="translate(180.884444, 161.2025)"><g><path d="M -4.671875 -8.25 C -4.160156 -8.96875 -3.601562 -9.488281 -3 -9.8125 C -2.394531 -10.144531 -1.734375 -10.265625 -1.015625 -10.171875 C -0.304688 -10.078125 0.441406 -9.753906 1.234375 -9.203125 C 2.015625 -8.660156 2.566406 -8.066406 2.890625 -7.421875 C 3.222656 -6.773438 3.335938 -6.109375 3.234375 -5.421875 C 3.140625 -4.742188 2.835938 -4.046875 2.328125 -3.328125 L 0.75 -1.0625 L -6.25 -5.984375 Z M 1.578125 -3.75 C 1.992188 -4.332031 2.242188 -4.878906 2.328125 -5.390625 C 2.410156 -5.898438 2.316406 -6.394531 2.046875 -6.875 C 1.773438 -7.363281 1.300781 -7.847656 0.625 -8.328125 C -0.0625 -8.804688 -0.679688 -9.09375 -1.234375 -9.1875 C -1.785156 -9.28125 -2.285156 -9.195312 -2.734375 -8.9375 C -3.179688 -8.6875 -3.613281 -8.269531 -4.03125 -7.6875 L -5 -6.3125 L 0.609375 -2.375 Z M 1.578125 -3.75 "/></g></g><g transform="translate(186.117698, 153.751152)"><g><path d="M 1.28125 -1.828125 L 0.75 -1.0625 L -6.25 -5.984375 L -5.390625 -7.203125 L 2.015625 -5.15625 L 2.09375 -5.265625 L -2.34375 -11.5625 L -1.515625 -12.734375 L 5.484375 -7.8125 L 4.9375 -7.03125 L -0.78125 -11.046875 L -0.890625 -10.9375 L 3.390625 -4.828125 L 2.8125 -4.015625 L -4.375 -5.96875 L -4.4375 -5.84375 Z M 1.28125 -1.828125 "/></g></g><g transform="translate(192.35113, 144.875704)"><g><path d="M 2.828125 -3.796875 C 2.398438 -3.179688 1.875 -2.734375 1.25 -2.453125 C 0.632812 -2.171875 -0.0351562 -2.082031 -0.765625 -2.1875 C -1.492188 -2.300781 -2.238281 -2.625 -3 -3.15625 C -3.757812 -3.695312 -4.316406 -4.289062 -4.671875 -4.9375 C -5.023438 -5.59375 -5.171875 -6.257812 -5.109375 -6.9375 C -5.054688 -7.613281 -4.816406 -8.257812 -4.390625 -8.875 C -3.929688 -9.53125 -3.425781 -9.984375 -2.875 -10.234375 C -2.320312 -10.492188 -1.726562 -10.546875 -1.09375 -10.390625 L -1.109375 -9.625 L -1.1875 -9.515625 C -1.726562 -9.597656 -2.191406 -9.539062 -2.578125 -9.34375 C -2.960938 -9.15625 -3.320312 -8.820312 -3.65625 -8.34375 C -3.96875 -7.894531 -4.144531 -7.429688 -4.1875 -6.953125 C -4.226562 -6.484375 -4.101562 -5.992188 -3.8125 -5.484375 C -3.53125 -4.984375 -3.054688 -4.5 -2.390625 -4.03125 C -1.722656 -3.570312 -1.109375 -3.289062 -0.546875 -3.1875 C 0.015625 -3.09375 0.515625 -3.144531 0.953125 -3.34375 C 1.390625 -3.550781 1.765625 -3.878906 2.078125 -4.328125 C 2.441406 -4.835938 2.617188 -5.332031 2.609375 -5.8125 C 2.609375 -6.289062 2.410156 -6.789062 2.015625 -7.3125 L 2.09375 -7.421875 L 2.75 -7.796875 C 3.257812 -7.191406 3.519531 -6.546875 3.53125 -5.859375 C 3.550781 -5.171875 3.316406 -4.484375 2.828125 -3.796875 Z M 2.828125 -3.796875 "/></g></g></g><g fill="#3d3b3a" fill-opacity="1"><g transform="translate(120.454939, 262.353344)"><g><path d="M 3.578125 -4.9375 C 4.015625 -4.9375 4.34375 -4.820312 4.5625 -4.59375 C 4.789062 -4.375 4.90625 -4.050781 4.90625 -3.625 C 4.90625 -3.476562 4.894531 -3.332031 4.875 -3.1875 C 4.78125 -2.625 4.582031 -2.097656 4.28125 -1.609375 C 3.976562 -1.117188 3.601562 -0.722656 3.15625 -0.421875 C 2.71875 -0.128906 2.273438 0.015625 1.828125 0.015625 C 1.691406 0.015625 1.523438 0.00390625 1.328125 -0.015625 L 0.921875 2.234375 C 0.890625 2.441406 0.875 2.566406 0.875 2.609375 C 0.875 2.734375 0.898438 2.820312 0.953125 2.875 C 1.015625 2.925781 1.113281 2.953125 1.25 2.953125 C 1.289062 2.953125 1.378906 2.945312 1.515625 2.9375 C 1.546875 2.9375 1.566406 2.957031 1.578125 3 C 1.585938 3.039062 1.578125 3.0625 1.546875 3.0625 L -0.84375 3.453125 C -0.863281 3.460938 -0.878906 3.441406 -0.890625 3.390625 C -0.910156 3.347656 -0.90625 3.320312 -0.875 3.3125 C -0.695312 3.269531 -0.570312 3.21875 -0.5 3.15625 C -0.425781 3.101562 -0.367188 3.019531 -0.328125 2.90625 C -0.285156 2.789062 -0.238281 2.597656 -0.1875 2.328125 L 0.890625 -3.703125 C 0.710938 -3.597656 0.5 -3.453125 0.25 -3.265625 C 0.238281 -3.253906 0.226562 -3.25 0.21875 -3.25 C 0.175781 -3.25 0.144531 -3.265625 0.125 -3.296875 C 0.113281 -3.335938 0.125 -3.367188 0.15625 -3.390625 C 0.5 -3.660156 0.757812 -3.851562 0.9375 -3.96875 L 1.09375 -4.859375 C 1.09375 -4.867188 1.164062 -4.914062 1.3125 -5 C 1.539062 -5.144531 1.734375 -5.28125 1.890625 -5.40625 C 2.054688 -5.53125 2.160156 -5.675781 2.203125 -5.84375 C 2.210938 -5.875 2.238281 -5.882812 2.28125 -5.875 C 2.332031 -5.863281 2.351562 -5.84375 2.34375 -5.8125 L 2.125 -4.609375 C 2.625 -4.828125 3.109375 -4.9375 3.578125 -4.9375 Z M 3.734375 -2.765625 C 3.753906 -2.921875 3.765625 -3.035156 3.765625 -3.109375 C 3.765625 -3.460938 3.679688 -3.753906 3.515625 -3.984375 C 3.347656 -4.210938 3.082031 -4.328125 2.71875 -4.328125 C 2.488281 -4.328125 2.269531 -4.296875 2.0625 -4.234375 L 1.40625 -0.546875 C 1.6875 -0.421875 1.984375 -0.359375 2.296875 -0.359375 C 2.691406 -0.359375 3.003906 -0.570312 3.234375 -1 C 3.472656 -1.4375 3.640625 -2.023438 3.734375 -2.765625 Z M 3.734375 -2.765625 "/></g></g></g><g fill="#3d3b3a" fill-opacity="1"><g transform="translate(129.319931, 262.353344)"><g><path d="M 3.734375 -4.96875 C 3.953125 -4.96875 4.160156 -4.882812 4.359375 -4.71875 C 4.554688 -4.5625 4.640625 -4.382812 4.609375 -4.1875 C 4.585938 -4.0625 4.523438 -3.941406 4.421875 -3.828125 C 4.328125 -3.722656 4.203125 -3.671875 4.046875 -3.671875 C 3.898438 -3.671875 3.738281 -3.742188 3.5625 -3.890625 C 3.5 -3.929688 3.4375 -3.96875 3.375 -4 C 3.320312 -4.03125 3.265625 -4.046875 3.203125 -4.046875 C 3.066406 -4.046875 2.890625 -3.820312 2.671875 -3.375 C 2.460938 -2.9375 2.265625 -2.410156 2.078125 -1.796875 C 1.890625 -1.179688 1.753906 -0.632812 1.671875 -0.15625 C 1.648438 -0.0703125 1.582031 -0.0078125 1.46875 0.03125 C 1.351562 0.0703125 1.1875 0.09375 0.96875 0.09375 C 0.6875 0.09375 0.546875 0.0625 0.546875 0 C 0.554688 -0.0625 0.582031 -0.1875 0.625 -0.375 C 0.675781 -0.570312 0.71875 -0.757812 0.75 -0.9375 L 1.265625 -3.734375 C 1.285156 -3.867188 1.296875 -3.957031 1.296875 -4 C 1.296875 -4.238281 1.21875 -4.359375 1.0625 -4.359375 C 0.894531 -4.359375 0.660156 -4.1875 0.359375 -3.84375 C 0.347656 -3.84375 0.332031 -3.84375 0.3125 -3.84375 C 0.28125 -3.84375 0.253906 -3.851562 0.234375 -3.875 C 0.222656 -3.90625 0.226562 -3.9375 0.25 -3.96875 C 0.550781 -4.3125 0.820312 -4.5625 1.0625 -4.71875 C 1.300781 -4.882812 1.539062 -4.96875 1.78125 -4.96875 C 1.988281 -4.96875 2.140625 -4.910156 2.234375 -4.796875 C 2.328125 -4.679688 2.375 -4.515625 2.375 -4.296875 C 2.375 -4.171875 2.363281 -4.035156 2.34375 -3.890625 L 2.09375 -2.5 C 2.582031 -4.144531 3.128906 -4.96875 3.734375 -4.96875 Z M 3.734375 -4.96875 "/></g></g></g><g fill="#3d3b3a" fill-opacity="1"><g transform="translate(137.569039, 262.353344)"><g><path d="M 1.984375 0.171875 C 1.429688 0.171875 1.007812 -0.00390625 0.71875 -0.359375 C 0.4375 -0.710938 0.296875 -1.175781 0.296875 -1.75 C 0.296875 -2 0.316406 -2.222656 0.359375 -2.421875 C 0.441406 -2.929688 0.617188 -3.378906 0.890625 -3.765625 C 1.171875 -4.160156 1.503906 -4.46875 1.890625 -4.6875 C 2.273438 -4.90625 2.6875 -5.015625 3.125 -5.015625 C 3.6875 -5.015625 4.117188 -4.84375 4.421875 -4.5 C 4.722656 -4.164062 4.875 -3.710938 4.875 -3.140625 C 4.875 -2.921875 4.847656 -2.679688 4.796875 -2.421875 C 4.679688 -1.867188 4.476562 -1.394531 4.1875 -1 C 3.90625 -0.613281 3.566406 -0.320312 3.171875 -0.125 C 2.785156 0.0703125 2.390625 0.171875 1.984375 0.171875 Z M 2.421875 -0.140625 C 2.679688 -0.140625 2.910156 -0.289062 3.109375 -0.59375 C 3.304688 -0.90625 3.453125 -1.332031 3.546875 -1.875 C 3.609375 -2.195312 3.640625 -2.53125 3.640625 -2.875 C 3.640625 -3.414062 3.554688 -3.859375 3.390625 -4.203125 C 3.222656 -4.546875 3 -4.71875 2.71875 -4.71875 C 2.46875 -4.71875 2.242188 -4.570312 2.046875 -4.28125 C 1.847656 -3.988281 1.695312 -3.550781 1.59375 -2.96875 C 1.539062 -2.644531 1.515625 -2.3125 1.515625 -1.96875 C 1.515625 -1.425781 1.59375 -0.984375 1.75 -0.640625 C 1.90625 -0.304688 2.128906 -0.140625 2.421875 -0.140625 Z M 2.421875 -0.140625 "/></g></g></g><g fill="#3d3b3a" fill-opacity="1"><g transform="translate(146.471741, 262.353344)"><g><path d="M 4.5625 -1.125 C 4.539062 -1 4.53125 -0.894531 4.53125 -0.8125 C 4.53125 -0.625 4.59375 -0.53125 4.71875 -0.53125 C 4.800781 -0.53125 4.894531 -0.566406 5 -0.640625 C 5.101562 -0.710938 5.234375 -0.820312 5.390625 -0.96875 C 5.398438 -0.988281 5.414062 -1 5.4375 -1 C 5.457031 -1 5.472656 -0.984375 5.484375 -0.953125 C 5.503906 -0.921875 5.503906 -0.894531 5.484375 -0.875 C 5.203125 -0.53125 4.953125 -0.28125 4.734375 -0.125 C 4.515625 0.03125 4.285156 0.109375 4.046875 0.109375 C 3.648438 0.109375 3.453125 -0.128906 3.453125 -0.609375 C 3.453125 -0.773438 3.46875 -0.945312 3.5 -1.125 L 3.65625 -1.984375 C 3.3125 -1.304688 2.941406 -0.78125 2.546875 -0.40625 C 2.160156 -0.03125 1.765625 0.15625 1.359375 0.15625 C 1.035156 0.15625 0.765625 0.0546875 0.546875 -0.140625 C 0.335938 -0.347656 0.234375 -0.660156 0.234375 -1.078125 C 0.234375 -1.242188 0.253906 -1.410156 0.296875 -1.578125 C 0.398438 -2.171875 0.632812 -2.726562 1 -3.25 C 1.375 -3.78125 1.800781 -4.207031 2.28125 -4.53125 C 2.769531 -4.851562 3.242188 -5.015625 3.703125 -5.015625 C 3.890625 -5.015625 4.054688 -4.988281 4.203125 -4.9375 L 4.65625 -7.40625 C 4.675781 -7.570312 4.6875 -7.710938 4.6875 -7.828125 C 4.6875 -8.066406 4.609375 -8.1875 4.453125 -8.1875 C 4.347656 -8.1875 4.171875 -8.128906 3.921875 -8.015625 L 3.90625 -8.015625 C 3.863281 -8.015625 3.835938 -8.035156 3.828125 -8.078125 C 3.828125 -8.128906 3.84375 -8.15625 3.875 -8.15625 L 5.828125 -9.125 L 5.84375 -9.125 C 5.882812 -9.125 5.914062 -9.109375 5.9375 -9.078125 C 5.96875 -9.054688 5.976562 -9.035156 5.96875 -9.015625 Z M 1.984375 -0.71875 C 2.253906 -0.71875 2.515625 -0.84375 2.765625 -1.09375 C 3.023438 -1.34375 3.25 -1.648438 3.4375 -2.015625 C 3.625 -2.378906 3.757812 -2.726562 3.84375 -3.0625 L 3.90625 -3.390625 C 3.945312 -3.710938 3.875 -3.960938 3.6875 -4.140625 C 3.5 -4.316406 3.265625 -4.40625 2.984375 -4.40625 C 2.160156 -4.40625 1.628906 -3.691406 1.390625 -2.265625 C 1.359375 -2.066406 1.34375 -1.859375 1.34375 -1.640625 C 1.34375 -1.023438 1.554688 -0.71875 1.984375 -0.71875 Z M 1.984375 -0.71875 "/></g></g></g><g fill="#3d3b3a" fill-opacity="1"><g transform="translate(155.902355, 262.353344)"><g><path d="M 5.609375 -1 C 5.617188 -1.007812 5.628906 -1.015625 5.640625 -1.015625 C 5.671875 -1.015625 5.691406 -1 5.703125 -0.96875 C 5.722656 -0.945312 5.722656 -0.921875 5.703125 -0.890625 C 5.398438 -0.535156 5.128906 -0.28125 4.890625 -0.125 C 4.660156 0.03125 4.421875 0.109375 4.171875 0.109375 C 3.773438 0.109375 3.578125 -0.109375 3.578125 -0.546875 C 3.578125 -0.671875 3.59375 -0.8125 3.625 -0.96875 L 3.828125 -2.109375 C 3.535156 -1.378906 3.195312 -0.816406 2.8125 -0.421875 C 2.425781 -0.0351562 2.019531 0.15625 1.59375 0.15625 C 1.019531 0.15625 0.734375 -0.1875 0.734375 -0.875 C 0.734375 -1.082031 0.753906 -1.289062 0.796875 -1.5 L 1.234375 -3.734375 C 1.253906 -3.859375 1.265625 -3.957031 1.265625 -4.03125 C 1.265625 -4.226562 1.195312 -4.328125 1.0625 -4.328125 C 0.976562 -4.328125 0.890625 -4.289062 0.796875 -4.21875 C 0.703125 -4.144531 0.578125 -4.035156 0.421875 -3.890625 C 0.398438 -3.867188 0.378906 -3.859375 0.359375 -3.859375 C 0.335938 -3.859375 0.316406 -3.875 0.296875 -3.90625 C 0.285156 -3.9375 0.289062 -3.960938 0.3125 -3.984375 C 0.59375 -4.316406 0.84375 -4.5625 1.0625 -4.71875 C 1.28125 -4.882812 1.503906 -4.96875 1.734375 -4.96875 C 2.148438 -4.96875 2.359375 -4.726562 2.359375 -4.25 C 2.359375 -4.132812 2.335938 -3.960938 2.296875 -3.734375 L 1.90625 -1.734375 C 1.863281 -1.546875 1.84375 -1.359375 1.84375 -1.171875 C 1.84375 -0.753906 1.972656 -0.546875 2.234375 -0.546875 C 2.472656 -0.546875 2.71875 -0.695312 2.96875 -1 C 3.21875 -1.3125 3.453125 -1.757812 3.671875 -2.34375 C 3.898438 -2.9375 4.085938 -3.644531 4.234375 -4.46875 L 4.28125 -4.703125 C 4.320312 -4.867188 4.554688 -4.953125 4.984375 -4.953125 C 5.117188 -4.953125 5.21875 -4.941406 5.28125 -4.921875 C 5.351562 -4.898438 5.390625 -4.878906 5.390625 -4.859375 L 5.34375 -4.59375 C 5.257812 -4.195312 5.210938 -3.972656 5.203125 -3.921875 L 4.6875 -1.125 C 4.675781 -1.039062 4.671875 -0.945312 4.671875 -0.84375 C 4.671875 -0.613281 4.738281 -0.5 4.875 -0.5 C 5.050781 -0.5 5.296875 -0.664062 5.609375 -1 Z M 5.609375 -1 "/></g></g></g><g fill="#3d3b3a" fill-opacity="1"><g transform="translate(165.659766, 262.353344)"><g><path d="M 2.015625 0.15625 C 1.421875 0.15625 0.984375 -0.03125 0.703125 -0.40625 C 0.429688 -0.789062 0.296875 -1.269531 0.296875 -1.84375 C 0.296875 -2.050781 0.316406 -2.285156 0.359375 -2.546875 C 0.441406 -3.023438 0.632812 -3.453125 0.9375 -3.828125 C 1.238281 -4.210938 1.585938 -4.503906 1.984375 -4.703125 C 2.390625 -4.910156 2.789062 -5.015625 3.1875 -5.015625 C 3.488281 -5.015625 3.757812 -4.945312 4 -4.8125 C 4.238281 -4.675781 4.359375 -4.484375 4.359375 -4.234375 C 4.359375 -4.046875 4.300781 -3.894531 4.1875 -3.78125 C 4.082031 -3.664062 3.925781 -3.609375 3.71875 -3.609375 C 3.519531 -3.609375 3.375 -3.660156 3.28125 -3.765625 C 3.1875 -3.867188 3.125 -4.003906 3.09375 -4.171875 C 3.050781 -4.335938 3 -4.460938 2.9375 -4.546875 C 2.875 -4.628906 2.769531 -4.671875 2.625 -4.671875 C 2.375 -4.671875 2.148438 -4.515625 1.953125 -4.203125 C 1.765625 -3.898438 1.628906 -3.492188 1.546875 -2.984375 C 1.492188 -2.703125 1.46875 -2.4375 1.46875 -2.1875 C 1.46875 -1.65625 1.578125 -1.234375 1.796875 -0.921875 C 2.015625 -0.609375 2.34375 -0.453125 2.78125 -0.453125 C 2.945312 -0.453125 3.140625 -0.488281 3.359375 -0.5625 C 3.578125 -0.644531 3.753906 -0.738281 3.890625 -0.84375 L 3.90625 -0.84375 C 3.925781 -0.84375 3.945312 -0.828125 3.96875 -0.796875 C 4 -0.773438 4.003906 -0.753906 3.984375 -0.734375 C 3.679688 -0.441406 3.359375 -0.21875 3.015625 -0.0625 C 2.671875 0.0820312 2.335938 0.15625 2.015625 0.15625 Z M 2.015625 0.15625 "/></g></g></g><g fill="#3d3b3a" fill-opacity="1"><g transform="translate(173.795751, 262.353344)"><g><path d="M 3.828125 -4.859375 C 3.878906 -4.859375 3.90625 -4.816406 3.90625 -4.734375 C 3.90625 -4.671875 3.859375 -4.570312 3.765625 -4.4375 C 3.671875 -4.300781 3.582031 -4.234375 3.5 -4.234375 C 3.46875 -4.234375 3.328125 -4.253906 3.078125 -4.296875 C 2.835938 -4.335938 2.5625 -4.367188 2.25 -4.390625 L 1.71875 -1.390625 C 1.707031 -1.253906 1.703125 -1.164062 1.703125 -1.125 C 1.703125 -0.914062 1.753906 -0.765625 1.859375 -0.671875 C 1.960938 -0.585938 2.125 -0.546875 2.34375 -0.546875 C 2.65625 -0.546875 3.003906 -0.695312 3.390625 -1 L 3.40625 -1 C 3.4375 -1 3.460938 -0.988281 3.484375 -0.96875 C 3.515625 -0.945312 3.519531 -0.921875 3.5 -0.890625 C 3.113281 -0.523438 2.769531 -0.257812 2.46875 -0.09375 C 2.175781 0.0703125 1.878906 0.15625 1.578125 0.15625 C 0.898438 0.15625 0.5625 -0.148438 0.5625 -0.765625 C 0.5625 -0.890625 0.578125 -1.03125 0.609375 -1.1875 L 1.09375 -3.84375 C 1.113281 -3.988281 1.125 -4.109375 1.125 -4.203125 C 1.125 -4.328125 1.09375 -4.410156 1.03125 -4.453125 C 0.96875 -4.492188 0.847656 -4.515625 0.671875 -4.515625 C 0.640625 -4.515625 0.625 -4.546875 0.625 -4.609375 C 0.625 -4.679688 0.640625 -4.71875 0.671875 -4.71875 C 1.335938 -4.71875 1.867188 -5.085938 2.265625 -5.828125 C 2.285156 -5.847656 2.316406 -5.859375 2.359375 -5.859375 C 2.398438 -5.859375 2.4375 -5.847656 2.46875 -5.828125 C 2.5 -5.816406 2.507812 -5.800781 2.5 -5.78125 L 2.3125 -4.75 C 2.550781 -4.757812 2.753906 -4.769531 2.921875 -4.78125 C 3.085938 -4.800781 3.226562 -4.8125 3.34375 -4.8125 C 3.5625 -4.84375 3.722656 -4.859375 3.828125 -4.859375 Z M 3.828125 -4.859375 "/></g></g></g><g fill="#3d3b3a" fill-opacity="1"><g transform="translate(181.353553, 262.353344)"><g/></g></g><g fill="#3d3b3a" fill-opacity="1"><g transform="translate(188.069212, 262.353344)"><g><path d="M 6.53125 -7.859375 C 6.59375 -7.859375 6.617188 -7.820312 6.609375 -7.75 L 6.34375 -6.0625 C 6.34375 -6.039062 6.320312 -6.03125 6.28125 -6.03125 C 6.257812 -6.03125 6.238281 -6.035156 6.21875 -6.046875 C 6.195312 -6.054688 6.1875 -6.066406 6.1875 -6.078125 C 6.15625 -6.535156 5.988281 -6.898438 5.6875 -7.171875 C 5.394531 -7.453125 5.019531 -7.59375 4.5625 -7.59375 L 4.34375 -7.59375 C 4.09375 -7.59375 3.910156 -7.570312 3.796875 -7.53125 C 3.691406 -7.5 3.617188 -7.429688 3.578125 -7.328125 C 3.535156 -7.234375 3.492188 -7.066406 3.453125 -6.828125 L 3 -4.265625 L 4.421875 -4.265625 C 4.804688 -4.265625 5.097656 -4.335938 5.296875 -4.484375 C 5.503906 -4.628906 5.644531 -4.875 5.71875 -5.21875 C 5.726562 -5.257812 5.757812 -5.273438 5.8125 -5.265625 C 5.863281 -5.265625 5.882812 -5.242188 5.875 -5.203125 C 5.84375 -4.972656 5.789062 -4.710938 5.71875 -4.421875 C 5.71875 -4.390625 5.695312 -4.28125 5.65625 -4.09375 C 5.632812 -3.9375 5.609375 -3.738281 5.578125 -3.5 C 5.554688 -3.40625 5.535156 -3.296875 5.515625 -3.171875 C 5.503906 -3.054688 5.484375 -2.929688 5.453125 -2.796875 C 5.453125 -2.753906 5.425781 -2.734375 5.375 -2.734375 C 5.320312 -2.742188 5.300781 -2.769531 5.3125 -2.8125 C 5.320312 -2.925781 5.328125 -3.007812 5.328125 -3.0625 C 5.328125 -3.332031 5.238281 -3.539062 5.0625 -3.6875 C 4.894531 -3.832031 4.648438 -3.90625 4.328125 -3.90625 L 2.9375 -3.90625 L 2.421875 -1.0625 C 2.398438 -0.914062 2.390625 -0.789062 2.390625 -0.6875 C 2.390625 -0.519531 2.4375 -0.40625 2.53125 -0.34375 C 2.625 -0.289062 2.789062 -0.265625 3.03125 -0.265625 L 3.359375 -0.265625 C 3.847656 -0.265625 4.328125 -0.421875 4.796875 -0.734375 C 5.265625 -1.046875 5.65625 -1.46875 5.96875 -2 C 5.96875 -2.019531 5.992188 -2.023438 6.046875 -2.015625 C 6.097656 -2.003906 6.113281 -1.988281 6.09375 -1.96875 C 5.96875 -1.539062 5.828125 -0.945312 5.671875 -0.1875 C 5.648438 -0.113281 5.628906 -0.0625 5.609375 -0.03125 C 5.585938 -0.0078125 5.539062 0 5.46875 0 L 0.25 0 C 0.226562 0 0.21875 -0.0234375 0.21875 -0.078125 C 0.21875 -0.128906 0.226562 -0.15625 0.25 -0.15625 C 0.488281 -0.15625 0.660156 -0.175781 0.765625 -0.21875 C 0.878906 -0.257812 0.960938 -0.335938 1.015625 -0.453125 C 1.078125 -0.566406 1.132812 -0.753906 1.1875 -1.015625 L 2.203125 -6.84375 C 2.234375 -7 2.25 -7.140625 2.25 -7.265625 C 2.25 -7.441406 2.203125 -7.554688 2.109375 -7.609375 C 2.015625 -7.671875 1.835938 -7.703125 1.578125 -7.703125 C 1.566406 -7.703125 1.5625 -7.726562 1.5625 -7.78125 C 1.5625 -7.832031 1.566406 -7.859375 1.578125 -7.859375 Z M 6.53125 -7.859375 "/></g></g></g><g fill="#3d3b3a" fill-opacity="1"><g transform="translate(198.517931, 262.353344)"><g><path d="M 5.609375 -0.96875 C 5.628906 -0.988281 5.640625 -1 5.640625 -1 C 5.671875 -1 5.691406 -0.984375 5.703125 -0.953125 C 5.722656 -0.921875 5.722656 -0.894531 5.703125 -0.875 C 5.421875 -0.53125 5.164062 -0.28125 4.9375 -0.125 C 4.71875 0.03125 4.492188 0.109375 4.265625 0.109375 C 3.859375 0.109375 3.65625 -0.125 3.65625 -0.59375 C 3.65625 -0.71875 3.675781 -0.894531 3.71875 -1.125 L 4.09375 -3.125 C 4.132812 -3.351562 4.15625 -3.539062 4.15625 -3.6875 C 4.15625 -4.09375 4.019531 -4.296875 3.75 -4.296875 C 3.507812 -4.296875 3.265625 -4.144531 3.015625 -3.84375 C 2.765625 -3.539062 2.523438 -3.09375 2.296875 -2.5 C 2.078125 -1.914062 1.894531 -1.210938 1.75 -0.390625 L 1.703125 -0.15625 C 1.660156 0.0078125 1.425781 0.09375 1 0.09375 C 0.726562 0.09375 0.59375 0.0625 0.59375 0 L 0.640625 -0.265625 C 0.722656 -0.660156 0.769531 -0.882812 0.78125 -0.9375 L 1.296875 -3.734375 C 1.316406 -3.804688 1.328125 -3.898438 1.328125 -4.015625 C 1.328125 -4.242188 1.253906 -4.359375 1.109375 -4.359375 C 0.929688 -4.359375 0.6875 -4.1875 0.375 -3.84375 C 0.363281 -3.84375 0.351562 -3.84375 0.34375 -3.84375 C 0.3125 -3.84375 0.285156 -3.851562 0.265625 -3.875 C 0.253906 -3.90625 0.257812 -3.9375 0.28125 -3.96875 C 0.582031 -4.3125 0.851562 -4.5625 1.09375 -4.71875 C 1.332031 -4.882812 1.570312 -4.96875 1.8125 -4.96875 C 2.207031 -4.96875 2.40625 -4.742188 2.40625 -4.296875 C 2.40625 -4.171875 2.390625 -4.035156 2.359375 -3.890625 L 2.15625 -2.734375 C 2.457031 -3.472656 2.796875 -4.035156 3.171875 -4.421875 C 3.554688 -4.816406 3.960938 -5.015625 4.390625 -5.015625 C 4.960938 -5.015625 5.25 -4.664062 5.25 -3.96875 C 5.25 -3.8125 5.226562 -3.609375 5.1875 -3.359375 L 4.78125 -1.125 C 4.75 -1 4.734375 -0.894531 4.734375 -0.8125 C 4.734375 -0.625 4.800781 -0.53125 4.9375 -0.53125 C 5.019531 -0.53125 5.113281 -0.566406 5.21875 -0.640625 C 5.332031 -0.710938 5.460938 -0.820312 5.609375 -0.96875 Z M 5.609375 -0.96875 "/></g></g></g><g fill="#3d3b3a" fill-opacity="1"><g transform="translate(208.262779, 262.353344)"><g><path d="M 4.953125 -4.984375 C 4.992188 -4.984375 5.015625 -4.914062 5.015625 -4.78125 C 5.015625 -4.632812 4.992188 -4.484375 4.953125 -4.328125 C 4.921875 -4.179688 4.890625 -4.125 4.859375 -4.15625 C 4.585938 -4.332031 4.273438 -4.429688 3.921875 -4.453125 C 4.117188 -4.210938 4.21875 -3.910156 4.21875 -3.546875 C 4.21875 -3.378906 4.195312 -3.226562 4.15625 -3.09375 C 4.039062 -2.53125 3.769531 -2.078125 3.34375 -1.734375 C 2.914062 -1.398438 2.445312 -1.234375 1.9375 -1.234375 C 1.832031 -1.234375 1.753906 -1.238281 1.703125 -1.25 C 1.648438 -1.144531 1.625 -1.0625 1.625 -1 C 1.59375 -0.789062 1.660156 -0.617188 1.828125 -0.484375 C 2.003906 -0.347656 2.285156 -0.179688 2.671875 0.015625 C 3.003906 0.171875 3.269531 0.304688 3.46875 0.421875 C 3.664062 0.546875 3.832031 0.703125 3.96875 0.890625 C 4.113281 1.085938 4.1875 1.320312 4.1875 1.59375 C 4.1875 1.976562 4.054688 2.316406 3.796875 2.609375 C 3.535156 2.910156 3.191406 3.140625 2.765625 3.296875 C 2.335938 3.453125 1.878906 3.53125 1.390625 3.53125 C 0.773438 3.53125 0.289062 3.410156 -0.0625 3.171875 C -0.414062 2.929688 -0.59375 2.632812 -0.59375 2.28125 C -0.59375 1.945312 -0.441406 1.632812 -0.140625 1.34375 C 0.148438 1.050781 0.566406 0.757812 1.109375 0.46875 C 0.804688 0.257812 0.65625 0.046875 0.65625 -0.171875 C 0.65625 -0.347656 0.722656 -0.523438 0.859375 -0.703125 C 1.003906 -0.878906 1.210938 -1.078125 1.484375 -1.296875 C 1.191406 -1.378906 0.960938 -1.539062 0.796875 -1.78125 C 0.640625 -2.03125 0.5625 -2.320312 0.5625 -2.65625 C 0.5625 -2.75 0.578125 -2.894531 0.609375 -3.09375 C 0.710938 -3.625 0.972656 -4.0625 1.390625 -4.40625 C 1.816406 -4.757812 2.296875 -4.9375 2.828125 -4.9375 C 3.191406 -4.9375 3.484375 -4.847656 3.703125 -4.671875 C 4.148438 -4.878906 4.566406 -4.984375 4.953125 -4.984375 Z M 3.0625 -2.984375 C 3.082031 -3.148438 3.09375 -3.285156 3.09375 -3.390625 C 3.09375 -3.734375 3.046875 -4.03125 2.953125 -4.28125 C 2.859375 -4.539062 2.71875 -4.671875 2.53125 -4.671875 C 2.34375 -4.671875 2.171875 -4.523438 2.015625 -4.234375 C 1.859375 -3.953125 1.753906 -3.601562 1.703125 -3.1875 C 1.691406 -2.976562 1.6875 -2.832031 1.6875 -2.75 C 1.6875 -2.382812 1.738281 -2.085938 1.84375 -1.859375 C 1.957031 -1.628906 2.097656 -1.515625 2.265625 -1.515625 C 2.453125 -1.515625 2.617188 -1.648438 2.765625 -1.921875 C 2.921875 -2.191406 3.019531 -2.546875 3.0625 -2.984375 Z M 3.15625 2.1875 C 3.15625 1.875 3.035156 1.617188 2.796875 1.421875 C 2.566406 1.234375 2.226562 1.03125 1.78125 0.8125 C 1.601562 0.738281 1.4375 0.65625 1.28125 0.5625 C 0.789062 0.957031 0.546875 1.40625 0.546875 1.90625 C 0.546875 2.257812 0.6875 2.550781 0.96875 2.78125 C 1.25 3.019531 1.601562 3.140625 2.03125 3.140625 C 2.414062 3.140625 2.695312 3.046875 2.875 2.859375 C 3.0625 2.671875 3.15625 2.445312 3.15625 2.1875 Z M 3.15625 2.1875 "/></g></g></g><g fill="#3d3b3a" fill-opacity="1"><g transform="translate(216.914099, 262.353344)"><g><path d="M 2.171875 -6.28125 C 1.953125 -6.28125 1.773438 -6.34375 1.640625 -6.46875 C 1.515625 -6.601562 1.453125 -6.78125 1.453125 -7 C 1.453125 -7.207031 1.515625 -7.375 1.640625 -7.5 C 1.773438 -7.625 1.953125 -7.6875 2.171875 -7.6875 C 2.390625 -7.6875 2.5625 -7.625 2.6875 -7.5 C 2.8125 -7.375 2.875 -7.207031 2.875 -7 C 2.875 -6.769531 2.8125 -6.59375 2.6875 -6.46875 C 2.5625 -6.34375 2.390625 -6.28125 2.171875 -6.28125 Z M 1.328125 0.109375 C 0.929688 0.109375 0.734375 -0.125 0.734375 -0.59375 C 0.734375 -0.71875 0.753906 -0.894531 0.796875 -1.125 L 1.3125 -3.734375 C 1.332031 -3.847656 1.34375 -3.945312 1.34375 -4.03125 C 1.34375 -4.132812 1.320312 -4.210938 1.28125 -4.265625 C 1.238281 -4.328125 1.1875 -4.359375 1.125 -4.359375 C 0.945312 -4.359375 0.707031 -4.1875 0.40625 -3.84375 C 0.394531 -3.84375 0.378906 -3.84375 0.359375 -3.84375 C 0.328125 -3.84375 0.300781 -3.851562 0.28125 -3.875 C 0.269531 -3.90625 0.273438 -3.9375 0.296875 -3.96875 C 0.585938 -4.3125 0.851562 -4.5625 1.09375 -4.71875 C 1.34375 -4.882812 1.585938 -4.96875 1.828125 -4.96875 C 2.222656 -4.96875 2.421875 -4.75 2.421875 -4.3125 C 2.421875 -4.164062 2.40625 -4.023438 2.375 -3.890625 L 1.84375 -1.125 C 1.832031 -1.039062 1.828125 -0.941406 1.828125 -0.828125 C 1.828125 -0.628906 1.890625 -0.53125 2.015625 -0.53125 C 2.097656 -0.53125 2.191406 -0.566406 2.296875 -0.640625 C 2.398438 -0.710938 2.523438 -0.820312 2.671875 -0.96875 C 2.691406 -0.988281 2.710938 -1 2.734375 -1 C 2.753906 -1 2.769531 -0.984375 2.78125 -0.953125 C 2.800781 -0.921875 2.800781 -0.894531 2.78125 -0.875 C 2.5 -0.53125 2.242188 -0.28125 2.015625 -0.125 C 1.796875 0.03125 1.566406 0.109375 1.328125 0.109375 Z M 1.328125 0.109375 "/></g></g></g><g fill="#3d3b3a" fill-opacity="1"><g transform="translate(223.79315, 262.353344)"><g><path d="M 5.609375 -0.96875 C 5.628906 -0.988281 5.640625 -1 5.640625 -1 C 5.671875 -1 5.691406 -0.984375 5.703125 -0.953125 C 5.722656 -0.921875 5.722656 -0.894531 5.703125 -0.875 C 5.421875 -0.53125 5.164062 -0.28125 4.9375 -0.125 C 4.71875 0.03125 4.492188 0.109375 4.265625 0.109375 C 3.859375 0.109375 3.65625 -0.125 3.65625 -0.59375 C 3.65625 -0.71875 3.675781 -0.894531 3.71875 -1.125 L 4.09375 -3.125 C 4.132812 -3.351562 4.15625 -3.539062 4.15625 -3.6875 C 4.15625 -4.09375 4.019531 -4.296875 3.75 -4.296875 C 3.507812 -4.296875 3.265625 -4.144531 3.015625 -3.84375 C 2.765625 -3.539062 2.523438 -3.09375 2.296875 -2.5 C 2.078125 -1.914062 1.894531 -1.210938 1.75 -0.390625 L 1.703125 -0.15625 C 1.660156 0.0078125 1.425781 0.09375 1 0.09375 C 0.726562 0.09375 0.59375 0.0625 0.59375 0 L 0.640625 -0.265625 C 0.722656 -0.660156 0.769531 -0.882812 0.78125 -0.9375 L 1.296875 -3.734375 C 1.316406 -3.804688 1.328125 -3.898438 1.328125 -4.015625 C 1.328125 -4.242188 1.253906 -4.359375 1.109375 -4.359375 C 0.929688 -4.359375 0.6875 -4.1875 0.375 -3.84375 C 0.363281 -3.84375 0.351562 -3.84375 0.34375 -3.84375 C 0.3125 -3.84375 0.285156 -3.851562 0.265625 -3.875 C 0.253906 -3.90625 0.257812 -3.9375 0.28125 -3.96875 C 0.582031 -4.3125 0.851562 -4.5625 1.09375 -4.71875 C 1.332031 -4.882812 1.570312 -4.96875 1.8125 -4.96875 C 2.207031 -4.96875 2.40625 -4.742188 2.40625 -4.296875 C 2.40625 -4.171875 2.390625 -4.035156 2.359375 -3.890625 L 2.15625 -2.734375 C 2.457031 -3.472656 2.796875 -4.035156 3.171875 -4.421875 C 3.554688 -4.816406 3.960938 -5.015625 4.390625 -5.015625 C 4.960938 -5.015625 5.25 -4.664062 5.25 -3.96875 C 5.25 -3.8125 5.226562 -3.609375 5.1875 -3.359375 L 4.78125 -1.125 C 4.75 -1 4.734375 -0.894531 4.734375 -0.8125 C 4.734375 -0.625 4.800781 -0.53125 4.9375 -0.53125 C 5.019531 -0.53125 5.113281 -0.566406 5.21875 -0.640625 C 5.332031 -0.710938 5.460938 -0.820312 5.609375 -0.96875 Z M 5.609375 -0.96875 "/></g></g></g><g fill="#3d3b3a" fill-opacity="1"><g transform="translate(233.537999, 262.353344)"><g><path d="M 3.390625 -5.015625 C 3.710938 -5.015625 3.960938 -4.957031 4.140625 -4.84375 C 4.316406 -4.738281 4.40625 -4.59375 4.40625 -4.40625 C 4.40625 -4.03125 4.125 -3.675781 3.5625 -3.34375 C 3.007812 -3.007812 2.335938 -2.765625 1.546875 -2.609375 C 1.523438 -2.429688 1.515625 -2.253906 1.515625 -2.078125 C 1.515625 -1.578125 1.617188 -1.171875 1.828125 -0.859375 C 2.035156 -0.554688 2.34375 -0.40625 2.75 -0.40625 C 2.925781 -0.40625 3.117188 -0.4375 3.328125 -0.5 C 3.535156 -0.5625 3.722656 -0.660156 3.890625 -0.796875 L 3.90625 -0.796875 C 3.925781 -0.796875 3.945312 -0.78125 3.96875 -0.75 C 3.988281 -0.726562 3.988281 -0.707031 3.96875 -0.6875 C 3.664062 -0.394531 3.347656 -0.179688 3.015625 -0.046875 C 2.679688 0.0859375 2.347656 0.15625 2.015625 0.15625 C 1.429688 0.15625 0.992188 -0.0195312 0.703125 -0.375 C 0.421875 -0.726562 0.28125 -1.171875 0.28125 -1.703125 C 0.28125 -1.890625 0.300781 -2.097656 0.34375 -2.328125 C 0.425781 -2.773438 0.609375 -3.203125 0.890625 -3.609375 C 1.179688 -4.023438 1.546875 -4.363281 1.984375 -4.625 C 2.421875 -4.882812 2.890625 -5.015625 3.390625 -5.015625 Z M 3.125 -4.078125 C 3.132812 -4.109375 3.140625 -4.15625 3.140625 -4.21875 C 3.140625 -4.363281 3.101562 -4.472656 3.03125 -4.546875 C 2.96875 -4.628906 2.867188 -4.671875 2.734375 -4.671875 C 2.472656 -4.671875 2.238281 -4.5 2.03125 -4.15625 C 1.820312 -3.8125 1.671875 -3.363281 1.578125 -2.8125 C 2.535156 -3.0625 3.050781 -3.484375 3.125 -4.078125 Z M 3.125 -4.078125 "/></g></g></g><g fill="#3d3b3a" fill-opacity="1"><g transform="translate(241.799671, 262.353344)"><g><path d="M 3.390625 -5.015625 C 3.710938 -5.015625 3.960938 -4.957031 4.140625 -4.84375 C 4.316406 -4.738281 4.40625 -4.59375 4.40625 -4.40625 C 4.40625 -4.03125 4.125 -3.675781 3.5625 -3.34375 C 3.007812 -3.007812 2.335938 -2.765625 1.546875 -2.609375 C 1.523438 -2.429688 1.515625 -2.253906 1.515625 -2.078125 C 1.515625 -1.578125 1.617188 -1.171875 1.828125 -0.859375 C 2.035156 -0.554688 2.34375 -0.40625 2.75 -0.40625 C 2.925781 -0.40625 3.117188 -0.4375 3.328125 -0.5 C 3.535156 -0.5625 3.722656 -0.660156 3.890625 -0.796875 L 3.90625 -0.796875 C 3.925781 -0.796875 3.945312 -0.78125 3.96875 -0.75 C 3.988281 -0.726562 3.988281 -0.707031 3.96875 -0.6875 C 3.664062 -0.394531 3.347656 -0.179688 3.015625 -0.046875 C 2.679688 0.0859375 2.347656 0.15625 2.015625 0.15625 C 1.429688 0.15625 0.992188 -0.0195312 0.703125 -0.375 C 0.421875 -0.726562 0.28125 -1.171875 0.28125 -1.703125 C 0.28125 -1.890625 0.300781 -2.097656 0.34375 -2.328125 C 0.425781 -2.773438 0.609375 -3.203125 0.890625 -3.609375 C 1.179688 -4.023438 1.546875 -4.363281 1.984375 -4.625 C 2.421875 -4.882812 2.890625 -5.015625 3.390625 -5.015625 Z M 3.125 -4.078125 C 3.132812 -4.109375 3.140625 -4.15625 3.140625 -4.21875 C 3.140625 -4.363281 3.101562 -4.472656 3.03125 -4.546875 C 2.96875 -4.628906 2.867188 -4.671875 2.734375 -4.671875 C 2.472656 -4.671875 2.238281 -4.5 2.03125 -4.15625 C 1.820312 -3.8125 1.671875 -3.363281 1.578125 -2.8125 C 2.535156 -3.0625 3.050781 -3.484375 3.125 -4.078125 Z M 3.125 -4.078125 "/></g></g></g><g fill="#3d3b3a" fill-opacity="1"><g transform="translate(250.061343, 262.353344)"><g><path d="M 3.734375 -4.96875 C 3.953125 -4.96875 4.160156 -4.882812 4.359375 -4.71875 C 4.554688 -4.5625 4.640625 -4.382812 4.609375 -4.1875 C 4.585938 -4.0625 4.523438 -3.941406 4.421875 -3.828125 C 4.328125 -3.722656 4.203125 -3.671875 4.046875 -3.671875 C 3.898438 -3.671875 3.738281 -3.742188 3.5625 -3.890625 C 3.5 -3.929688 3.4375 -3.96875 3.375 -4 C 3.320312 -4.03125 3.265625 -4.046875 3.203125 -4.046875 C 3.066406 -4.046875 2.890625 -3.820312 2.671875 -3.375 C 2.460938 -2.9375 2.265625 -2.410156 2.078125 -1.796875 C 1.890625 -1.179688 1.753906 -0.632812 1.671875 -0.15625 C 1.648438 -0.0703125 1.582031 -0.0078125 1.46875 0.03125 C 1.351562 0.0703125 1.1875 0.09375 0.96875 0.09375 C 0.6875 0.09375 0.546875 0.0625 0.546875 0 C 0.554688 -0.0625 0.582031 -0.1875 0.625 -0.375 C 0.675781 -0.570312 0.71875 -0.757812 0.75 -0.9375 L 1.265625 -3.734375 C 1.285156 -3.867188 1.296875 -3.957031 1.296875 -4 C 1.296875 -4.238281 1.21875 -4.359375 1.0625 -4.359375 C 0.894531 -4.359375 0.660156 -4.1875 0.359375 -3.84375 C 0.347656 -3.84375 0.332031 -3.84375 0.3125 -3.84375 C 0.28125 -3.84375 0.253906 -3.851562 0.234375 -3.875 C 0.222656 -3.90625 0.226562 -3.9375 0.25 -3.96875 C 0.550781 -4.3125 0.820312 -4.5625 1.0625 -4.71875 C 1.300781 -4.882812 1.539062 -4.96875 1.78125 -4.96875 C 1.988281 -4.96875 2.140625 -4.910156 2.234375 -4.796875 C 2.328125 -4.679688 2.375 -4.515625 2.375 -4.296875 C 2.375 -4.171875 2.363281 -4.035156 2.34375 -3.890625 L 2.09375 -2.5 C 2.582031 -4.144531 3.128906 -4.96875 3.734375 -4.96875 Z M 3.734375 -4.96875 "/></g></g></g></svg>