<svg xmlns="http://www.w3.org/2000/svg" xmlns:xlink="http://www.w3.org/1999/xlink" width="500" zoomAndPan="magnify" viewBox="0 0 375 374.999991" height="500" preserveAspectRatio="xMidYMid meet" version="1.0"><defs><clipPath id="99f238501a"><path d="M 162 121 L 207 121 L 207 180 L 162 180 Z M 162 121 " clip-rule="nonzero"/></clipPath><clipPath id="c2aa7752a9"><path d="M 192.605469 121.207031 L 206.121094 129.363281 L 175.582031 179.96875 L 162.066406 171.8125 Z M 192.605469 121.207031 " clip-rule="nonzero"/></clipPath><clipPath id="7ea030a272"><path d="M 192.605469 121.207031 L 206.121094 129.363281 L 175.582031 179.96875 L 162.066406 171.8125 Z M 192.605469 121.207031 " clip-rule="nonzero"/></clipPath><clipPath id="71d4b7de31"><path d="M 163 129 L 194 129 L 194 160 L 163 160 Z M 163 129 " clip-rule="nonzero"/></clipPath><clipPath id="d9eb733c7a"><path d="M 174.800781 129.265625 L 193.21875 140.378906 L 181.894531 159.144531 L 163.476562 148.027344 Z M 174.800781 129.265625 " clip-rule="nonzero"/></clipPath><clipPath id="e8b486278b"><path d="M 174.800781 129.265625 L 193.21875 140.378906 L 181.894531 159.144531 L 163.476562 148.027344 Z M 174.800781 129.265625 " clip-rule="nonzero"/></clipPath><clipPath id="ec796f7990"><path d="M 185 131 L 214 131 L 214 160 L 185 160 Z M 185 131 " clip-rule="nonzero"/></clipPath><clipPath id="fbb595b7c9"><path d="M 195.132812 131.269531 L 213.546875 142.382812 L 203.429688 159.144531 L 185.015625 148.027344 Z M 195.132812 131.269531 " clip-rule="nonzero"/></clipPath><clipPath id="512e3b3b61"><path d="M 195.132812 131.269531 L 213.546875 142.382812 L 203.429688 159.144531 L 185.015625 148.027344 Z M 195.132812 131.269531 " clip-rule="nonzero"/></clipPath><clipPath id="6a80e29438"><path d="M 156 106 L 215 106 L 215 188 L 156 188 Z M 156 106 " clip-rule="nonzero"/></clipPath><clipPath id="4967048557"><path d="M 154.253906 186.953125 L 212.53125 103.976562 L 216.859375 107.015625 L 158.582031 189.992188 Z M 154.253906 186.953125 " clip-rule="nonzero"/></clipPath><clipPath id="be2565f494"><path d="M 156.601562 186.765625 L 157.839844 187.632812 L 175.539062 162.429688 L 174.300781 161.5625 Z M 195.375 131.5625 L 196.609375 132.429688 L 214.308594 107.226562 L 213.074219 106.359375 Z M 195.375 131.5625 " clip-rule="nonzero"/></clipPath></defs><path fill="#ffffff" d="M 55.621094 226.667969 L 60.433594 226.667969 C 62.183594 226.667969 63.628906 227.222656 64.777344 228.324219 C 65.921875 229.429688 66.496094 230.835938 66.496094 232.542969 C 66.496094 234.242188 65.917969 235.644531 64.761719 236.746094 C 63.613281 237.851562 62.152344 238.402344 60.371094 238.402344 L 55.621094 238.402344 Z M 57.589844 228.449219 L 57.589844 236.621094 L 60.480469 236.621094 C 61.625 236.621094 62.578125 236.242188 63.339844 235.480469 C 64.109375 234.710938 64.496094 233.738281 64.496094 232.558594 C 64.496094 231.371094 64.097656 230.394531 63.308594 229.621094 C 62.527344 228.839844 61.558594 228.449219 60.402344 228.449219 Z M 57.589844 228.449219 " fill-opacity="1" fill-rule="nonzero"/><path fill="#ffffff" d="M 82.90625 235.746094 L 76.984375 235.746094 L 75.859375 238.402344 L 73.796875 238.402344 L 78.984375 226.667969 L 81 226.667969 L 86.140625 238.402344 L 84.03125 238.402344 Z M 82.140625 233.996094 L 79.9375 228.777344 L 77.71875 233.996094 Z M 82.140625 233.996094 " fill-opacity="1" fill-rule="nonzero"/><path fill="#ffffff" d="M 101.855469 238.402344 L 99.714844 234.855469 C 99.597656 234.867188 99.417969 234.871094 99.167969 234.871094 L 96.386719 234.871094 L 96.386719 238.402344 L 94.417969 238.402344 L 94.417969 226.667969 L 99.167969 226.667969 C 100.667969 226.667969 101.828125 227.019531 102.652344 227.714844 C 103.484375 228.414062 103.902344 229.398438 103.902344 230.667969 C 103.902344 231.605469 103.691406 232.402344 103.277344 233.058594 C 102.859375 233.707031 102.253906 234.179688 101.464844 234.480469 L 104.105469 238.402344 Z M 96.386719 233.089844 L 99.167969 233.089844 C 101.074219 233.089844 102.027344 232.304688 102.027344 230.730469 C 102.027344 229.210938 101.074219 228.449219 99.167969 228.449219 L 96.386719 228.449219 Z M 96.386719 233.089844 " fill-opacity="1" fill-rule="nonzero"/><path fill="#ffffff" d="M 117.109375 226.589844 C 118.617188 226.589844 119.984375 226.992188 121.203125 227.792969 L 120.390625 229.527344 C 119.191406 228.808594 118.046875 228.449219 116.953125 228.449219 C 116.359375 228.449219 115.890625 228.554688 115.546875 228.761719 C 115.210938 228.972656 115.046875 229.273438 115.046875 229.667969 C 115.046875 230.066406 115.203125 230.398438 115.515625 230.667969 C 115.828125 230.941406 116.21875 231.144531 116.6875 231.277344 C 117.15625 231.402344 117.660156 231.566406 118.203125 231.761719 C 118.753906 231.949219 119.265625 232.152344 119.734375 232.371094 C 120.203125 232.589844 120.585938 232.933594 120.890625 233.402344 C 121.203125 233.863281 121.359375 234.425781 121.359375 235.089844 C 121.359375 236.113281 120.945312 236.929688 120.125 237.542969 C 119.300781 238.160156 118.238281 238.464844 116.9375 238.464844 C 116.039062 238.464844 115.171875 238.300781 114.328125 237.964844 C 113.492188 237.632812 112.765625 237.179688 112.140625 236.605469 L 113 234.902344 C 113.582031 235.445312 114.226562 235.867188 114.9375 236.167969 C 115.65625 236.460938 116.332031 236.605469 116.96875 236.605469 C 117.65625 236.605469 118.191406 236.480469 118.578125 236.230469 C 118.960938 235.980469 119.15625 235.632812 119.15625 235.183594 C 119.15625 234.777344 119 234.441406 118.6875 234.167969 C 118.375 233.898438 117.984375 233.699219 117.515625 233.574219 C 117.046875 233.441406 116.535156 233.285156 115.984375 233.105469 C 115.441406 232.917969 114.9375 232.722656 114.46875 232.511719 C 114 232.304688 113.609375 231.972656 113.296875 231.511719 C 112.984375 231.054688 112.828125 230.503906 112.828125 229.855469 C 112.828125 228.855469 113.21875 228.066406 114 227.480469 C 114.78125 226.886719 115.816406 226.589844 117.109375 226.589844 Z M 117.109375 226.589844 " fill-opacity="1" fill-rule="nonzero"/><path fill="#ffffff" d="M 140.566406 238.402344 L 138.582031 238.402344 L 138.582031 233.542969 L 132.363281 233.542969 L 132.363281 238.402344 L 130.394531 238.402344 L 130.394531 226.667969 L 132.363281 226.667969 L 132.363281 231.761719 L 138.582031 231.761719 L 138.582031 226.667969 L 140.566406 226.667969 Z M 140.566406 238.402344 " fill-opacity="1" fill-rule="nonzero"/><path fill="#ffffff" d="M 150.367188 226.667969 L 152.335938 226.667969 L 152.335938 238.402344 L 150.367188 238.402344 Z M 150.367188 226.667969 " fill-opacity="1" fill-rule="nonzero"/><path fill="#ffffff" d="M 164.113281 236.605469 L 169.191406 236.605469 L 169.191406 238.402344 L 162.144531 238.402344 L 162.144531 226.667969 L 164.113281 226.667969 Z M 164.113281 236.605469 " fill-opacity="1" fill-rule="nonzero"/><path fill="#ffffff" d="M 190.8125 236.605469 L 195.890625 236.605469 L 195.890625 238.402344 L 188.84375 238.402344 L 188.84375 226.667969 L 190.8125 226.667969 Z M 190.8125 236.605469 " fill-opacity="1" fill-rule="nonzero"/><path fill="#ffffff" d="M 212.089844 235.746094 L 206.167969 235.746094 L 205.042969 238.402344 L 202.980469 238.402344 L 208.167969 226.667969 L 210.183594 226.667969 L 215.324219 238.402344 L 213.214844 238.402344 Z M 211.324219 233.996094 L 209.121094 228.777344 L 206.902344 233.996094 Z M 211.324219 233.996094 " fill-opacity="1" fill-rule="nonzero"/><path fill="#ffffff" d="M 227.457031 226.589844 C 228.964844 226.589844 230.332031 226.992188 231.550781 227.792969 L 230.738281 229.527344 C 229.539062 228.808594 228.394531 228.449219 227.300781 228.449219 C 226.707031 228.449219 226.238281 228.554688 225.894531 228.761719 C 225.558594 228.972656 225.394531 229.273438 225.394531 229.667969 C 225.394531 230.066406 225.550781 230.398438 225.863281 230.667969 C 226.175781 230.941406 226.566406 231.144531 227.035156 231.277344 C 227.503906 231.402344 228.007812 231.566406 228.550781 231.761719 C 229.101562 231.949219 229.613281 232.152344 230.082031 232.371094 C 230.550781 232.589844 230.933594 232.933594 231.238281 233.402344 C 231.550781 233.863281 231.707031 234.425781 231.707031 235.089844 C 231.707031 236.113281 231.292969 236.929688 230.472656 237.542969 C 229.648438 238.160156 228.585938 238.464844 227.285156 238.464844 C 226.386719 238.464844 225.519531 238.300781 224.675781 237.964844 C 223.839844 237.632812 223.113281 237.179688 222.488281 236.605469 L 223.347656 234.902344 C 223.929688 235.445312 224.574219 235.867188 225.285156 236.167969 C 226.003906 236.460938 226.679688 236.605469 227.316406 236.605469 C 228.003906 236.605469 228.539062 236.480469 228.925781 236.230469 C 229.308594 235.980469 229.503906 235.632812 229.503906 235.183594 C 229.503906 234.777344 229.347656 234.441406 229.035156 234.167969 C 228.722656 233.898438 228.332031 233.699219 227.863281 233.574219 C 227.394531 233.441406 226.882812 233.285156 226.332031 233.105469 C 225.789062 232.917969 225.285156 232.722656 224.816406 232.511719 C 224.347656 232.304688 223.957031 231.972656 223.644531 231.511719 C 223.332031 231.054688 223.175781 230.503906 223.175781 229.855469 C 223.175781 228.855469 223.566406 228.066406 224.347656 227.480469 C 225.128906 226.886719 226.164062 226.589844 227.457031 226.589844 Z M 227.457031 226.589844 " fill-opacity="1" fill-rule="nonzero"/><path fill="#ffffff" d="M 250.910156 238.402344 L 248.925781 238.402344 L 248.925781 233.542969 L 242.707031 233.542969 L 242.707031 238.402344 L 240.738281 238.402344 L 240.738281 226.667969 L 242.707031 226.667969 L 242.707031 231.761719 L 248.925781 231.761719 L 248.925781 226.667969 L 250.910156 226.667969 Z M 250.910156 238.402344 " fill-opacity="1" fill-rule="nonzero"/><path fill="#ffffff" d="M 268.542969 238.402344 L 264.683594 233.214844 L 262.683594 235.417969 L 262.683594 238.402344 L 260.714844 238.402344 L 260.714844 226.667969 L 262.683594 226.667969 L 262.683594 232.730469 L 268.292969 226.667969 L 270.621094 226.667969 L 266.074219 231.683594 L 270.917969 238.402344 Z M 268.542969 238.402344 " fill-opacity="1" fill-rule="nonzero"/><path fill="#ffffff" d="M 287.042969 235.746094 L 281.121094 235.746094 L 279.996094 238.402344 L 277.933594 238.402344 L 283.121094 226.667969 L 285.136719 226.667969 L 290.277344 238.402344 L 288.167969 238.402344 Z M 286.277344 233.996094 L 284.074219 228.777344 L 281.855469 233.996094 Z M 286.277344 233.996094 " fill-opacity="1" fill-rule="nonzero"/><path fill="#ffffff" d="M 305.988281 238.402344 L 303.847656 234.855469 C 303.730469 234.867188 303.550781 234.871094 303.300781 234.871094 L 300.519531 234.871094 L 300.519531 238.402344 L 298.550781 238.402344 L 298.550781 226.667969 L 303.300781 226.667969 C 304.800781 226.667969 305.960938 227.019531 306.785156 227.714844 C 307.617188 228.414062 308.035156 229.398438 308.035156 230.667969 C 308.035156 231.605469 307.824219 232.402344 307.410156 233.058594 C 306.992188 233.707031 306.386719 234.179688 305.597656 234.480469 L 308.238281 238.402344 Z M 300.519531 233.089844 L 303.300781 233.089844 C 305.207031 233.089844 306.160156 232.304688 306.160156 230.730469 C 306.160156 229.210938 305.207031 228.449219 303.300781 228.449219 L 300.519531 228.449219 Z M 300.519531 233.089844 " fill-opacity="1" fill-rule="nonzero"/><path fill="#ffffff" d="M 317.386719 226.667969 L 319.355469 226.667969 L 319.355469 238.402344 L 317.386719 238.402344 Z M 317.386719 226.667969 " fill-opacity="1" fill-rule="nonzero"/><path fill="#ffffff" d="M 168.078125 153.3125 C 166.273438 153.3125 164.253906 153.21875 162.015625 153.03125 C 161.148438 152.96875 160.078125 152.90625 158.796875 152.84375 C 157.523438 152.78125 156.113281 152.75 154.5625 152.75 L 148.40625 152.84375 C 147.28125 152.90625 145.722656 152.9375 143.734375 152.9375 C 143.609375 152.9375 143.546875 152.75 143.546875 152.375 C 143.546875 152 143.609375 151.8125 143.734375 151.8125 C 146.160156 151.8125 147.945312 151.664062 149.09375 151.359375 C 150.25 151.046875 151.039062 150.4375 151.46875 149.53125 C 151.90625 148.625 152.125 147.242188 152.125 145.375 L 152.125 102.1875 C 152.125 100.324219 151.921875 98.953125 151.515625 98.078125 C 151.117188 97.203125 150.34375 96.601562 149.1875 96.265625 C 148.039062 95.921875 146.253906 95.75 143.828125 95.75 C 143.703125 95.75 143.640625 95.5625 143.640625 95.1875 C 143.640625 94.8125 143.703125 94.625 143.828125 94.625 L 148.40625 94.71875 C 151.007812 94.84375 153.0625 94.90625 154.5625 94.90625 C 156.738281 94.90625 158.945312 94.8125 161.1875 94.625 C 163.914062 94.5 165.78125 94.4375 166.78125 94.4375 C 173.3125 94.4375 179.09375 95.683594 184.125 98.171875 C 189.164062 100.664062 193.066406 104.054688 195.828125 108.34375 C 198.597656 112.636719 199.984375 117.453125 199.984375 122.796875 C 199.984375 128.839844 198.535156 134.179688 195.640625 138.8125 C 192.753906 143.4375 188.882812 147.011719 184.03125 149.53125 C 179.1875 152.054688 173.867188 153.3125 168.078125 153.3125 Z M 167.15625 152.09375 C 172.375 152.09375 177.003906 151.039062 181.046875 148.921875 C 185.085938 146.808594 188.242188 143.699219 190.515625 139.59375 C 192.785156 135.492188 193.921875 130.578125 193.921875 124.859375 C 193.921875 119.382812 192.847656 114.433594 190.703125 110.015625 C 188.554688 105.601562 185.476562 102.105469 181.46875 99.53125 C 177.457031 96.949219 172.84375 95.65625 167.625 95.65625 C 164.882812 95.65625 162.78125 95.8125 161.3125 96.125 C 159.851562 96.4375 158.78125 97.078125 158.09375 98.046875 C 157.414062 99.007812 157.078125 100.449219 157.078125 102.375 L 157.078125 144.359375 C 157.078125 146.226562 157.351562 147.71875 157.90625 148.84375 C 158.46875 149.960938 159.460938 150.78125 160.890625 151.3125 C 162.328125 151.835938 164.414062 152.09375 167.15625 152.09375 Z M 167.15625 152.09375 " fill-opacity="1" fill-rule="nonzero"/><path fill="#ffffff" d="M 211.820312 137.507812 C 215.921875 137.507812 219.28125 137.804688 221.898438 138.398438 C 224.511719 138.992188 227.277344 140.035156 230.195312 141.523438 C 230.570312 141.773438 230.804688 141.976562 230.898438 142.132812 C 230.992188 142.289062 231.070312 142.773438 231.132812 143.585938 L 232.257812 154.210938 C 232.257812 154.398438 232.085938 154.507812 231.742188 154.539062 C 231.398438 154.570312 231.195312 154.492188 231.132812 154.304688 C 229.765625 149.148438 227.496094 145.28125 224.320312 142.695312 C 221.152344 140.113281 216.984375 138.820312 211.820312 138.820312 C 206.351562 138.820312 201.546875 139.972656 197.414062 142.273438 C 193.277344 144.578125 190.074219 147.859375 187.804688 152.117188 C 185.53125 156.378906 184.398438 161.335938 184.398438 166.992188 C 184.398438 172.285156 185.652344 177.21875 188.164062 181.789062 C 190.683594 186.363281 194.074219 190.003906 198.335938 192.710938 C 202.59375 195.410156 207.152344 196.757812 212.007812 196.757812 C 222.328125 196.757812 228.921875 191.691406 231.789062 181.554688 C 231.789062 181.429688 231.945312 181.367188 232.257812 181.367188 C 232.695312 181.367188 232.914062 181.460938 232.914062 181.648438 L 232.164062 191.539062 C 232.101562 192.28125 232.007812 192.742188 231.882812 192.929688 C 231.757812 193.117188 231.507812 193.335938 231.132812 193.585938 C 227.902344 195.265625 224.871094 196.429688 222.039062 197.085938 C 219.203125 197.742188 215.828125 198.070312 211.914062 198.070312 C 205.445312 198.070312 199.671875 196.78125 194.601562 194.195312 C 189.539062 191.613281 185.574219 187.972656 182.710938 183.273438 C 179.855469 178.578125 178.429688 173.179688 178.429688 167.085938 C 178.429688 161.242188 179.855469 156.082031 182.710938 151.601562 C 185.574219 147.125 189.539062 143.65625 194.601562 141.195312 C 199.671875 138.738281 205.414062 137.507812 211.820312 137.507812 Z M 211.820312 137.507812 " fill-opacity="1" fill-rule="nonzero"/><g clip-path="url(#99f238501a)"><g clip-path="url(#c2aa7752a9)"><g clip-path="url(#7ea030a272)"><path fill="#0e0a0f" d="M 192.605469 121.207031 L 206.121094 129.363281 L 175.582031 179.96875 L 162.066406 171.8125 Z M 192.605469 121.207031 " fill-opacity="1" fill-rule="nonzero"/></g></g></g><g clip-path="url(#71d4b7de31)"><g clip-path="url(#d9eb733c7a)"><g clip-path="url(#e8b486278b)"><path fill="#0e0a0f" d="M 174.800781 129.265625 L 193.21875 140.378906 L 181.894531 159.144531 L 163.476562 148.027344 Z M 174.800781 129.265625 " fill-opacity="1" fill-rule="nonzero"/></g></g></g><g clip-path="url(#ec796f7990)"><g clip-path="url(#fbb595b7c9)"><g clip-path="url(#512e3b3b61)"><path fill="#0e0a0f" d="M 195.132812 131.269531 L 213.546875 142.382812 L 203.429688 159.144531 L 185.015625 148.027344 Z M 195.132812 131.269531 " fill-opacity="1" fill-rule="nonzero"/></g></g></g><g clip-path="url(#6a80e29438)"><g clip-path="url(#4967048557)"><g clip-path="url(#be2565f494)"><path stroke-linecap="butt" transform="matrix(0.43167, -0.61463, 0.61808, 0.4341, 148.320009, 180.949001)" fill="none" stroke-linejoin="miter" d="M -0.000337069 14.397628 L 130.821264 14.399073 " stroke="#3d3b3a" stroke-width="2" stroke-opacity="1" stroke-miterlimit="4"/></g></g></g><path fill="#ffffff" d="M 176.210938 152.953125 C 176.722656 152.234375 177.28125 151.714844 177.882812 151.390625 C 178.488281 151.058594 179.148438 150.9375 179.867188 151.03125 C 180.578125 151.125 181.324219 151.449219 182.117188 152 C 182.898438 152.542969 183.449219 153.136719 183.773438 153.78125 C 184.105469 154.429688 184.21875 155.09375 184.117188 155.78125 C 184.023438 156.460938 183.71875 157.15625 183.210938 157.875 L 181.632812 160.140625 L 174.632812 155.21875 Z M 182.460938 157.453125 C 182.875 156.871094 183.125 156.324219 183.210938 155.8125 C 183.292969 155.304688 183.199219 154.808594 182.929688 154.328125 C 182.65625 153.839844 182.183594 153.355469 181.507812 152.875 C 180.820312 152.398438 180.203125 152.109375 179.648438 152.015625 C 179.097656 151.921875 178.597656 152.007812 178.148438 152.265625 C 177.703125 152.515625 177.269531 152.933594 176.851562 153.515625 L 175.882812 154.890625 L 181.492188 158.828125 Z M 182.460938 157.453125 " fill-opacity="1" fill-rule="nonzero"/><path fill="#ffffff" d="M 187.398438 151.921875 L 186.867188 152.6875 L 179.867188 147.765625 L 180.726562 146.546875 L 188.132812 148.59375 L 188.210938 148.484375 L 183.773438 142.1875 L 184.601562 141.015625 L 191.601562 145.9375 L 191.054688 146.71875 L 185.335938 142.703125 L 185.226562 142.8125 L 189.507812 148.921875 L 188.929688 149.734375 L 181.742188 147.78125 L 181.679688 147.90625 Z M 187.398438 151.921875 " fill-opacity="1" fill-rule="nonzero"/><path fill="#ffffff" d="M 195.179688 141.078125 C 194.75 141.695312 194.226562 142.140625 193.601562 142.421875 C 192.984375 142.703125 192.316406 142.792969 191.585938 142.6875 C 190.859375 142.574219 190.113281 142.25 189.351562 141.71875 C 188.59375 141.179688 188.035156 140.585938 187.679688 139.9375 C 187.328125 139.28125 187.179688 138.617188 187.242188 137.9375 C 187.296875 137.261719 187.535156 136.617188 187.960938 136 C 188.421875 135.34375 188.925781 134.890625 189.476562 134.640625 C 190.03125 134.382812 190.625 134.328125 191.257812 134.484375 L 191.242188 135.25 L 191.164062 135.359375 C 190.625 135.277344 190.160156 135.335938 189.773438 135.53125 C 189.390625 135.71875 189.03125 136.054688 188.695312 136.53125 C 188.382812 136.980469 188.207031 137.445312 188.164062 137.921875 C 188.125 138.390625 188.25 138.882812 188.539062 139.390625 C 188.820312 139.890625 189.296875 140.375 189.960938 140.84375 C 190.628906 141.304688 191.242188 141.585938 191.804688 141.6875 C 192.367188 141.78125 192.867188 141.730469 193.304688 141.53125 C 193.742188 141.324219 194.117188 140.996094 194.429688 140.546875 C 194.792969 140.039062 194.96875 139.542969 194.960938 139.0625 C 194.960938 138.585938 194.761719 138.085938 194.367188 137.5625 L 194.445312 137.453125 L 195.101562 137.078125 C 195.609375 137.683594 195.871094 138.328125 195.882812 139.015625 C 195.902344 139.703125 195.667969 140.390625 195.179688 141.078125 Z M 195.179688 141.078125 " fill-opacity="1" fill-rule="nonzero"/><path fill="#ffffff" d="M 124.03125 257.414062 C 124.46875 257.414062 124.796875 257.53125 125.015625 257.757812 C 125.242188 257.976562 125.359375 258.300781 125.359375 258.726562 C 125.359375 258.875 125.347656 259.019531 125.328125 259.164062 C 125.234375 259.726562 125.035156 260.253906 124.734375 260.742188 C 124.429688 261.234375 124.054688 261.628906 123.609375 261.929688 C 123.171875 262.222656 122.726562 262.367188 122.28125 262.367188 C 122.144531 262.367188 121.976562 262.355469 121.78125 262.335938 L 121.375 264.585938 C 121.34375 264.792969 121.328125 264.917969 121.328125 264.960938 C 121.328125 265.085938 121.351562 265.171875 121.40625 265.226562 C 121.46875 265.277344 121.566406 265.304688 121.703125 265.304688 C 121.742188 265.304688 121.832031 265.296875 121.96875 265.289062 C 122 265.289062 122.019531 265.308594 122.03125 265.351562 C 122.039062 265.390625 122.03125 265.414062 122 265.414062 L 119.609375 265.804688 C 119.589844 265.8125 119.574219 265.792969 119.5625 265.742188 C 119.542969 265.699219 119.546875 265.671875 119.578125 265.664062 C 119.757812 265.621094 119.882812 265.570312 119.953125 265.507812 C 120.027344 265.453125 120.085938 265.371094 120.125 265.257812 C 120.167969 265.140625 120.214844 264.949219 120.265625 264.679688 L 121.34375 258.648438 C 121.164062 258.753906 120.953125 258.898438 120.703125 259.085938 C 120.691406 259.097656 120.679688 259.101562 120.671875 259.101562 C 120.628906 259.101562 120.597656 259.085938 120.578125 259.054688 C 120.566406 259.015625 120.578125 258.984375 120.609375 258.960938 C 120.953125 258.691406 121.210938 258.5 121.390625 258.382812 L 121.546875 257.492188 C 121.546875 257.484375 121.617188 257.4375 121.765625 257.351562 C 121.992188 257.207031 122.1875 257.070312 122.34375 256.945312 C 122.507812 256.820312 122.613281 256.675781 122.65625 256.507812 C 122.664062 256.476562 122.691406 256.46875 122.734375 256.476562 C 122.785156 256.488281 122.804688 256.507812 122.796875 256.539062 L 122.578125 257.742188 C 123.078125 257.523438 123.5625 257.414062 124.03125 257.414062 Z M 124.1875 259.585938 C 124.207031 259.429688 124.21875 259.316406 124.21875 259.242188 C 124.21875 258.890625 124.132812 258.597656 123.96875 258.367188 C 123.800781 258.140625 123.535156 258.023438 123.171875 258.023438 C 122.941406 258.023438 122.722656 258.054688 122.515625 258.117188 L 121.859375 261.804688 C 122.140625 261.929688 122.4375 261.992188 122.75 261.992188 C 123.144531 261.992188 123.457031 261.78125 123.6875 261.351562 C 123.925781 260.914062 124.09375 260.328125 124.1875 259.585938 Z M 124.1875 259.585938 " fill-opacity="1" fill-rule="nonzero"/><path fill="#ffffff" d="M 133.054688 257.382812 C 133.273438 257.382812 133.480469 257.46875 133.679688 257.632812 C 133.875 257.789062 133.960938 257.96875 133.929688 258.164062 C 133.90625 258.289062 133.84375 258.410156 133.742188 258.523438 C 133.648438 258.628906 133.523438 258.679688 133.367188 258.679688 C 133.21875 258.679688 133.058594 258.609375 132.882812 258.460938 C 132.820312 258.421875 132.757812 258.382812 132.695312 258.351562 C 132.640625 258.320312 132.585938 258.304688 132.523438 258.304688 C 132.386719 258.304688 132.210938 258.53125 131.992188 258.976562 C 131.78125 259.414062 131.585938 259.941406 131.398438 260.554688 C 131.210938 261.171875 131.074219 261.71875 130.992188 262.195312 C 130.96875 262.28125 130.902344 262.34375 130.789062 262.382812 C 130.671875 262.421875 130.507812 262.445312 130.289062 262.445312 C 130.007812 262.445312 129.867188 262.414062 129.867188 262.351562 C 129.875 262.289062 129.902344 262.164062 129.945312 261.976562 C 129.996094 261.78125 130.039062 261.59375 130.070312 261.414062 L 130.585938 258.617188 C 130.605469 258.484375 130.617188 258.394531 130.617188 258.351562 C 130.617188 258.113281 130.539062 257.992188 130.382812 257.992188 C 130.214844 257.992188 129.980469 258.164062 129.679688 258.507812 C 129.667969 258.507812 129.652344 258.507812 129.632812 258.507812 C 129.601562 258.507812 129.574219 258.5 129.554688 258.476562 C 129.542969 258.445312 129.546875 258.414062 129.570312 258.382812 C 129.871094 258.039062 130.140625 257.789062 130.382812 257.632812 C 130.621094 257.46875 130.859375 257.382812 131.101562 257.382812 C 131.308594 257.382812 131.460938 257.441406 131.554688 257.554688 C 131.648438 257.671875 131.695312 257.835938 131.695312 258.054688 C 131.695312 258.179688 131.683594 258.316406 131.664062 258.460938 L 131.414062 259.851562 C 131.902344 258.207031 132.449219 257.382812 133.054688 257.382812 Z M 133.054688 257.382812 " fill-opacity="1" fill-rule="nonzero"/><path fill="#ffffff" d="M 139.554688 262.523438 C 139 262.523438 138.578125 262.347656 138.289062 261.992188 C 138.007812 261.640625 137.867188 261.175781 137.867188 260.601562 C 137.867188 260.351562 137.886719 260.128906 137.929688 259.929688 C 138.011719 259.421875 138.1875 258.972656 138.460938 258.585938 C 138.742188 258.191406 139.074219 257.882812 139.460938 257.664062 C 139.84375 257.445312 140.257812 257.335938 140.695312 257.335938 C 141.257812 257.335938 141.6875 257.507812 141.992188 257.851562 C 142.292969 258.1875 142.445312 258.640625 142.445312 259.210938 C 142.445312 259.429688 142.417969 259.671875 142.367188 259.929688 C 142.25 260.484375 142.046875 260.957031 141.757812 261.351562 C 141.476562 261.738281 141.136719 262.03125 140.742188 262.226562 C 140.355469 262.421875 139.960938 262.523438 139.554688 262.523438 Z M 139.992188 262.210938 C 140.25 262.210938 140.480469 262.0625 140.679688 261.757812 C 140.875 261.445312 141.023438 261.019531 141.117188 260.476562 C 141.179688 260.15625 141.210938 259.820312 141.210938 259.476562 C 141.210938 258.9375 141.125 258.492188 140.960938 258.148438 C 140.792969 257.804688 140.570312 257.632812 140.289062 257.632812 C 140.039062 257.632812 139.8125 257.78125 139.617188 258.070312 C 139.417969 258.363281 139.265625 258.800781 139.164062 259.382812 C 139.109375 259.707031 139.085938 260.039062 139.085938 260.382812 C 139.085938 260.925781 139.164062 261.367188 139.320312 261.710938 C 139.476562 262.046875 139.699219 262.210938 139.992188 262.210938 Z M 139.992188 262.210938 " fill-opacity="1" fill-rule="nonzero"/><path fill="#ffffff" d="M 151.035156 261.226562 C 151.011719 261.351562 151.003906 261.457031 151.003906 261.539062 C 151.003906 261.726562 151.066406 261.820312 151.191406 261.820312 C 151.273438 261.820312 151.367188 261.785156 151.472656 261.710938 C 151.574219 261.640625 151.707031 261.53125 151.863281 261.382812 C 151.871094 261.363281 151.886719 261.351562 151.910156 261.351562 C 151.929688 261.351562 151.945312 261.367188 151.957031 261.398438 C 151.976562 261.429688 151.976562 261.457031 151.957031 261.476562 C 151.675781 261.820312 151.425781 262.070312 151.207031 262.226562 C 150.988281 262.382812 150.757812 262.460938 150.519531 262.460938 C 150.121094 262.460938 149.925781 262.222656 149.925781 261.742188 C 149.925781 261.578125 149.941406 261.40625 149.972656 261.226562 L 150.128906 260.367188 C 149.785156 261.046875 149.414062 261.570312 149.019531 261.945312 C 148.632812 262.320312 148.238281 262.507812 147.832031 262.507812 C 147.507812 262.507812 147.238281 262.40625 147.019531 262.210938 C 146.808594 262.003906 146.707031 261.691406 146.707031 261.273438 C 146.707031 261.109375 146.726562 260.941406 146.769531 260.773438 C 146.871094 260.179688 147.105469 259.625 147.472656 259.101562 C 147.847656 258.570312 148.273438 258.144531 148.753906 257.820312 C 149.242188 257.5 149.714844 257.335938 150.175781 257.335938 C 150.363281 257.335938 150.527344 257.363281 150.675781 257.414062 L 151.128906 254.945312 C 151.148438 254.78125 151.160156 254.640625 151.160156 254.523438 C 151.160156 254.285156 151.082031 254.164062 150.925781 254.164062 C 150.820312 254.164062 150.644531 254.222656 150.394531 254.335938 L 150.378906 254.335938 C 150.335938 254.335938 150.308594 254.316406 150.300781 254.273438 C 150.300781 254.222656 150.316406 254.195312 150.347656 254.195312 L 152.300781 253.226562 L 152.316406 253.226562 C 152.355469 253.226562 152.386719 253.242188 152.410156 253.273438 C 152.441406 253.296875 152.449219 253.316406 152.441406 253.335938 Z M 148.457031 261.632812 C 148.726562 261.632812 148.988281 261.507812 149.238281 261.257812 C 149.496094 261.007812 149.722656 260.703125 149.910156 260.335938 C 150.097656 259.972656 150.230469 259.625 150.316406 259.289062 L 150.378906 258.960938 C 150.417969 258.640625 150.347656 258.390625 150.160156 258.210938 C 149.972656 258.035156 149.738281 257.945312 149.457031 257.945312 C 148.632812 257.945312 148.101562 258.660156 147.863281 260.085938 C 147.832031 260.285156 147.816406 260.492188 147.816406 260.710938 C 147.816406 261.328125 148.027344 261.632812 148.457031 261.632812 Z M 148.457031 261.632812 " fill-opacity="1" fill-rule="nonzero"/><path fill="#ffffff" d="M 161.511719 261.351562 C 161.519531 261.34375 161.53125 261.335938 161.542969 261.335938 C 161.574219 261.335938 161.59375 261.351562 161.605469 261.382812 C 161.625 261.40625 161.625 261.429688 161.605469 261.460938 C 161.300781 261.816406 161.03125 262.070312 160.792969 262.226562 C 160.5625 262.382812 160.324219 262.460938 160.074219 262.460938 C 159.675781 262.460938 159.480469 262.242188 159.480469 261.804688 C 159.480469 261.679688 159.496094 261.539062 159.527344 261.382812 L 159.730469 260.242188 C 159.4375 260.972656 159.097656 261.535156 158.714844 261.929688 C 158.328125 262.316406 157.921875 262.507812 157.496094 262.507812 C 156.921875 262.507812 156.636719 262.164062 156.636719 261.476562 C 156.636719 261.269531 156.65625 261.0625 156.699219 260.851562 L 157.136719 258.617188 C 157.15625 258.492188 157.167969 258.394531 157.167969 258.320312 C 157.167969 258.125 157.097656 258.023438 156.964844 258.023438 C 156.878906 258.023438 156.792969 258.0625 156.699219 258.132812 C 156.605469 258.207031 156.480469 258.316406 156.324219 258.460938 C 156.300781 258.484375 156.28125 258.492188 156.261719 258.492188 C 156.238281 258.492188 156.21875 258.476562 156.199219 258.445312 C 156.1875 258.414062 156.191406 258.390625 156.214844 258.367188 C 156.496094 258.035156 156.746094 257.789062 156.964844 257.632812 C 157.183594 257.46875 157.40625 257.382812 157.636719 257.382812 C 158.050781 257.382812 158.261719 257.625 158.261719 258.101562 C 158.261719 258.21875 158.238281 258.390625 158.199219 258.617188 L 157.808594 260.617188 C 157.765625 260.804688 157.746094 260.992188 157.746094 261.179688 C 157.746094 261.597656 157.875 261.804688 158.136719 261.804688 C 158.375 261.804688 158.621094 261.65625 158.871094 261.351562 C 159.121094 261.039062 159.355469 260.59375 159.574219 260.007812 C 159.800781 259.414062 159.988281 258.707031 160.136719 257.882812 L 160.183594 257.648438 C 160.222656 257.484375 160.457031 257.398438 160.886719 257.398438 C 161.019531 257.398438 161.121094 257.410156 161.183594 257.429688 C 161.253906 257.453125 161.292969 257.472656 161.292969 257.492188 L 161.246094 257.757812 C 161.160156 258.15625 161.113281 258.378906 161.105469 258.429688 L 160.589844 261.226562 C 160.578125 261.3125 160.574219 261.40625 160.574219 261.507812 C 160.574219 261.738281 160.640625 261.851562 160.777344 261.851562 C 160.953125 261.851562 161.199219 261.6875 161.511719 261.351562 Z M 161.511719 261.351562 " fill-opacity="1" fill-rule="nonzero"/><path fill="#ffffff" d="M 167.675781 262.507812 C 167.082031 262.507812 166.644531 262.320312 166.363281 261.945312 C 166.089844 261.5625 165.957031 261.082031 165.957031 260.507812 C 165.957031 260.300781 165.976562 260.066406 166.019531 259.804688 C 166.101562 259.328125 166.292969 258.898438 166.597656 258.523438 C 166.898438 258.140625 167.246094 257.847656 167.644531 257.648438 C 168.050781 257.441406 168.449219 257.335938 168.847656 257.335938 C 169.148438 257.335938 169.417969 257.40625 169.660156 257.539062 C 169.898438 257.675781 170.019531 257.867188 170.019531 258.117188 C 170.019531 258.304688 169.960938 258.457031 169.847656 258.570312 C 169.742188 258.6875 169.585938 258.742188 169.378906 258.742188 C 169.179688 258.742188 169.035156 258.691406 168.941406 258.585938 C 168.847656 258.484375 168.785156 258.347656 168.753906 258.179688 C 168.710938 258.015625 168.660156 257.890625 168.597656 257.804688 C 168.535156 257.722656 168.429688 257.679688 168.285156 257.679688 C 168.035156 257.679688 167.808594 257.835938 167.613281 258.148438 C 167.425781 258.453125 167.289062 258.859375 167.207031 259.367188 C 167.152344 259.648438 167.128906 259.914062 167.128906 260.164062 C 167.128906 260.695312 167.238281 261.117188 167.457031 261.429688 C 167.675781 261.742188 168.003906 261.898438 168.441406 261.898438 C 168.605469 261.898438 168.800781 261.863281 169.019531 261.789062 C 169.238281 261.707031 169.414062 261.613281 169.550781 261.507812 L 169.566406 261.507812 C 169.585938 261.507812 169.605469 261.523438 169.628906 261.554688 C 169.660156 261.578125 169.664062 261.597656 169.644531 261.617188 C 169.339844 261.910156 169.019531 262.132812 168.675781 262.289062 C 168.332031 262.433594 167.996094 262.507812 167.675781 262.507812 Z M 167.675781 262.507812 " fill-opacity="1" fill-rule="nonzero"/><path fill="#ffffff" d="M 177.625 257.492188 C 177.675781 257.492188 177.703125 257.535156 177.703125 257.617188 C 177.703125 257.679688 177.65625 257.78125 177.5625 257.914062 C 177.46875 258.050781 177.378906 258.117188 177.296875 258.117188 C 177.265625 258.117188 177.125 258.097656 176.875 258.054688 C 176.632812 258.015625 176.359375 257.984375 176.046875 257.960938 L 175.515625 260.960938 C 175.503906 261.097656 175.5 261.1875 175.5 261.226562 C 175.5 261.4375 175.550781 261.585938 175.65625 261.679688 C 175.757812 261.765625 175.921875 261.804688 176.140625 261.804688 C 176.453125 261.804688 176.800781 261.65625 177.1875 261.351562 L 177.203125 261.351562 C 177.234375 261.351562 177.257812 261.363281 177.28125 261.382812 C 177.3125 261.40625 177.316406 261.429688 177.296875 261.460938 C 176.910156 261.828125 176.566406 262.09375 176.265625 262.257812 C 175.972656 262.421875 175.675781 262.507812 175.375 262.507812 C 174.695312 262.507812 174.359375 262.203125 174.359375 261.585938 C 174.359375 261.460938 174.375 261.320312 174.40625 261.164062 L 174.890625 258.507812 C 174.910156 258.363281 174.921875 258.242188 174.921875 258.148438 C 174.921875 258.023438 174.890625 257.941406 174.828125 257.898438 C 174.765625 257.859375 174.644531 257.835938 174.46875 257.835938 C 174.4375 257.835938 174.421875 257.804688 174.421875 257.742188 C 174.421875 257.671875 174.4375 257.632812 174.46875 257.632812 C 175.132812 257.632812 175.664062 257.265625 176.0625 256.523438 C 176.082031 256.503906 176.113281 256.492188 176.15625 256.492188 C 176.195312 256.492188 176.234375 256.503906 176.265625 256.523438 C 176.296875 256.535156 176.304688 256.550781 176.296875 256.570312 L 176.109375 257.601562 C 176.347656 257.59375 176.550781 257.582031 176.71875 257.570312 C 176.882812 257.550781 177.023438 257.539062 177.140625 257.539062 C 177.359375 257.507812 177.519531 257.492188 177.625 257.492188 Z M 177.625 257.492188 " fill-opacity="1" fill-rule="nonzero"/><path fill="#ffffff" d="M 194.601562 254.492188 C 194.664062 254.492188 194.6875 254.53125 194.679688 254.601562 L 194.414062 256.289062 C 194.414062 256.3125 194.390625 256.320312 194.351562 256.320312 C 194.328125 256.320312 194.308594 256.316406 194.289062 256.304688 C 194.265625 256.296875 194.257812 256.285156 194.257812 256.273438 C 194.226562 255.816406 194.058594 255.453125 193.757812 255.179688 C 193.464844 254.898438 193.089844 254.757812 192.632812 254.757812 L 192.414062 254.757812 C 192.164062 254.757812 191.980469 254.78125 191.867188 254.820312 C 191.761719 254.851562 191.6875 254.921875 191.648438 255.023438 C 191.605469 255.117188 191.5625 255.285156 191.523438 255.523438 L 191.070312 258.085938 L 192.492188 258.085938 C 192.875 258.085938 193.167969 258.015625 193.367188 257.867188 C 193.574219 257.722656 193.714844 257.476562 193.789062 257.132812 C 193.796875 257.09375 193.828125 257.078125 193.882812 257.085938 C 193.933594 257.085938 193.953125 257.109375 193.945312 257.148438 C 193.914062 257.378906 193.859375 257.640625 193.789062 257.929688 C 193.789062 257.960938 193.765625 258.070312 193.726562 258.257812 C 193.703125 258.414062 193.679688 258.613281 193.648438 258.851562 C 193.625 258.945312 193.605469 259.054688 193.585938 259.179688 C 193.574219 259.296875 193.554688 259.421875 193.523438 259.554688 C 193.523438 259.597656 193.496094 259.617188 193.445312 259.617188 C 193.390625 259.609375 193.371094 259.582031 193.382812 259.539062 C 193.390625 259.425781 193.398438 259.34375 193.398438 259.289062 C 193.398438 259.019531 193.308594 258.8125 193.132812 258.664062 C 192.964844 258.519531 192.71875 258.445312 192.398438 258.445312 L 191.007812 258.445312 L 190.492188 261.289062 C 190.46875 261.4375 190.460938 261.5625 190.460938 261.664062 C 190.460938 261.832031 190.507812 261.945312 190.601562 262.007812 C 190.695312 262.0625 190.859375 262.085938 191.101562 262.085938 L 191.429688 262.085938 C 191.917969 262.085938 192.398438 261.929688 192.867188 261.617188 C 193.335938 261.304688 193.726562 260.882812 194.039062 260.351562 C 194.039062 260.332031 194.0625 260.328125 194.117188 260.335938 C 194.167969 260.347656 194.183594 260.363281 194.164062 260.382812 C 194.039062 260.8125 193.898438 261.40625 193.742188 262.164062 C 193.71875 262.238281 193.699219 262.289062 193.679688 262.320312 C 193.65625 262.34375 193.609375 262.351562 193.539062 262.351562 L 188.320312 262.351562 C 188.296875 262.351562 188.289062 262.328125 188.289062 262.273438 C 188.289062 262.222656 188.296875 262.195312 188.320312 262.195312 C 188.558594 262.195312 188.730469 262.175781 188.835938 262.132812 C 188.949219 262.09375 189.03125 262.015625 189.085938 261.898438 C 189.148438 261.785156 189.203125 261.597656 189.257812 261.335938 L 190.273438 255.507812 C 190.304688 255.351562 190.320312 255.210938 190.320312 255.085938 C 190.320312 254.910156 190.273438 254.796875 190.179688 254.742188 C 190.085938 254.679688 189.90625 254.648438 189.648438 254.648438 C 189.636719 254.648438 189.632812 254.625 189.632812 254.570312 C 189.632812 254.519531 189.636719 254.492188 189.648438 254.492188 Z M 194.601562 254.492188 " fill-opacity="1" fill-rule="nonzero"/><path fill="#ffffff" d="M 204.128906 261.382812 C 204.148438 261.363281 204.160156 261.351562 204.160156 261.351562 C 204.191406 261.351562 204.210938 261.367188 204.222656 261.398438 C 204.242188 261.429688 204.242188 261.457031 204.222656 261.476562 C 203.941406 261.820312 203.683594 262.070312 203.457031 262.226562 C 203.238281 262.382812 203.011719 262.460938 202.785156 262.460938 C 202.378906 262.460938 202.175781 262.226562 202.175781 261.757812 C 202.175781 261.632812 202.195312 261.457031 202.238281 261.226562 L 202.613281 259.226562 C 202.652344 259 202.675781 258.8125 202.675781 258.664062 C 202.675781 258.257812 202.539062 258.054688 202.269531 258.054688 C 202.027344 258.054688 201.785156 258.207031 201.535156 258.507812 C 201.285156 258.8125 201.042969 259.257812 200.816406 259.851562 C 200.597656 260.4375 200.414062 261.140625 200.269531 261.960938 L 200.222656 262.195312 C 200.179688 262.359375 199.945312 262.445312 199.519531 262.445312 C 199.246094 262.445312 199.113281 262.414062 199.113281 262.351562 L 199.160156 262.085938 C 199.242188 261.691406 199.289062 261.46875 199.300781 261.414062 L 199.816406 258.617188 C 199.835938 258.546875 199.847656 258.453125 199.847656 258.335938 C 199.847656 258.109375 199.773438 257.992188 199.628906 257.992188 C 199.449219 257.992188 199.207031 258.164062 198.894531 258.507812 C 198.882812 258.507812 198.871094 258.507812 198.863281 258.507812 C 198.832031 258.507812 198.804688 258.5 198.785156 258.476562 C 198.773438 258.445312 198.777344 258.414062 198.800781 258.382812 C 199.101562 258.039062 199.371094 257.789062 199.613281 257.632812 C 199.851562 257.46875 200.089844 257.382812 200.332031 257.382812 C 200.726562 257.382812 200.925781 257.609375 200.925781 258.054688 C 200.925781 258.179688 200.910156 258.316406 200.878906 258.460938 L 200.675781 259.617188 C 200.976562 258.878906 201.316406 258.316406 201.691406 257.929688 C 202.074219 257.535156 202.480469 257.335938 202.910156 257.335938 C 203.480469 257.335938 203.769531 257.6875 203.769531 258.382812 C 203.769531 258.539062 203.746094 258.742188 203.707031 258.992188 L 203.300781 261.226562 C 203.269531 261.351562 203.253906 261.457031 203.253906 261.539062 C 203.253906 261.726562 203.320312 261.820312 203.457031 261.820312 C 203.539062 261.820312 203.632812 261.785156 203.738281 261.710938 C 203.851562 261.640625 203.980469 261.53125 204.128906 261.382812 Z M 204.128906 261.382812 " fill-opacity="1" fill-rule="nonzero"/><path fill="#ffffff" d="M 213.214844 257.367188 C 213.253906 257.367188 213.277344 257.4375 213.277344 257.570312 C 213.277344 257.71875 213.253906 257.867188 213.214844 258.023438 C 213.183594 258.171875 213.152344 258.226562 213.121094 258.195312 C 212.847656 258.019531 212.535156 257.921875 212.183594 257.898438 C 212.378906 258.140625 212.480469 258.441406 212.480469 258.804688 C 212.480469 258.972656 212.457031 259.125 212.417969 259.257812 C 212.300781 259.820312 212.03125 260.273438 211.605469 260.617188 C 211.175781 260.953125 210.707031 261.117188 210.199219 261.117188 C 210.09375 261.117188 210.015625 261.113281 209.964844 261.101562 C 209.910156 261.207031 209.886719 261.289062 209.886719 261.351562 C 209.855469 261.5625 209.921875 261.734375 210.089844 261.867188 C 210.265625 262.003906 210.546875 262.171875 210.933594 262.367188 C 211.265625 262.523438 211.53125 262.65625 211.730469 262.773438 C 211.925781 262.898438 212.09375 263.054688 212.230469 263.242188 C 212.375 263.4375 212.449219 263.671875 212.449219 263.945312 C 212.449219 264.328125 212.316406 264.667969 212.058594 264.960938 C 211.796875 265.261719 211.453125 265.492188 211.027344 265.648438 C 210.597656 265.804688 210.140625 265.882812 209.652344 265.882812 C 209.035156 265.882812 208.550781 265.761719 208.199219 265.523438 C 207.847656 265.28125 207.667969 264.984375 207.667969 264.632812 C 207.667969 264.296875 207.820312 263.984375 208.121094 263.695312 C 208.410156 263.402344 208.828125 263.109375 209.371094 262.820312 C 209.066406 262.609375 208.917969 262.398438 208.917969 262.179688 C 208.917969 262.003906 208.984375 261.828125 209.121094 261.648438 C 209.265625 261.472656 209.472656 261.273438 209.746094 261.054688 C 209.453125 260.972656 209.222656 260.8125 209.058594 260.570312 C 208.902344 260.320312 208.824219 260.03125 208.824219 259.695312 C 208.824219 259.601562 208.839844 259.457031 208.871094 259.257812 C 208.972656 258.726562 209.234375 258.289062 209.652344 257.945312 C 210.078125 257.59375 210.558594 257.414062 211.089844 257.414062 C 211.453125 257.414062 211.746094 257.503906 211.964844 257.679688 C 212.410156 257.472656 212.828125 257.367188 213.214844 257.367188 Z M 211.324219 259.367188 C 211.34375 259.203125 211.355469 259.066406 211.355469 258.960938 C 211.355469 258.617188 211.308594 258.320312 211.214844 258.070312 C 211.121094 257.8125 210.980469 257.679688 210.792969 257.679688 C 210.605469 257.679688 210.433594 257.828125 210.277344 258.117188 C 210.121094 258.398438 210.015625 258.75 209.964844 259.164062 C 209.953125 259.375 209.949219 259.519531 209.949219 259.601562 C 209.949219 259.96875 210 260.265625 210.105469 260.492188 C 210.21875 260.722656 210.359375 260.835938 210.527344 260.835938 C 210.714844 260.835938 210.878906 260.703125 211.027344 260.429688 C 211.183594 260.160156 211.28125 259.804688 211.324219 259.367188 Z M 211.417969 264.539062 C 211.417969 264.226562 211.296875 263.96875 211.058594 263.773438 C 210.828125 263.585938 210.488281 263.382812 210.042969 263.164062 C 209.863281 263.089844 209.699219 263.007812 209.542969 262.914062 C 209.050781 263.308594 208.808594 263.757812 208.808594 264.257812 C 208.808594 264.609375 208.949219 264.902344 209.230469 265.132812 C 209.511719 265.371094 209.863281 265.492188 210.292969 265.492188 C 210.675781 265.492188 210.957031 265.398438 211.136719 265.210938 C 211.324219 265.023438 211.417969 264.796875 211.417969 264.539062 Z M 211.417969 264.539062 " fill-opacity="1" fill-rule="nonzero"/><path fill="#ffffff" d="M 219.085938 256.070312 C 218.867188 256.070312 218.6875 256.007812 218.554688 255.882812 C 218.429688 255.75 218.367188 255.570312 218.367188 255.351562 C 218.367188 255.144531 218.429688 254.976562 218.554688 254.851562 C 218.6875 254.726562 218.867188 254.664062 219.085938 254.664062 C 219.304688 254.664062 219.476562 254.726562 219.601562 254.851562 C 219.726562 254.976562 219.789062 255.144531 219.789062 255.351562 C 219.789062 255.582031 219.726562 255.757812 219.601562 255.882812 C 219.476562 256.007812 219.304688 256.070312 219.085938 256.070312 Z M 218.242188 262.460938 C 217.84375 262.460938 217.648438 262.226562 217.648438 261.757812 C 217.648438 261.632812 217.667969 261.457031 217.710938 261.226562 L 218.226562 258.617188 C 218.246094 258.503906 218.257812 258.40625 218.257812 258.320312 C 218.257812 258.21875 218.234375 258.140625 218.195312 258.085938 C 218.152344 258.023438 218.101562 257.992188 218.039062 257.992188 C 217.859375 257.992188 217.621094 258.164062 217.320312 258.507812 C 217.308594 258.507812 217.292969 258.507812 217.273438 258.507812 C 217.242188 258.507812 217.214844 258.5 217.195312 258.476562 C 217.183594 258.445312 217.1875 258.414062 217.210938 258.382812 C 217.5 258.039062 217.765625 257.789062 218.007812 257.632812 C 218.257812 257.46875 218.5 257.382812 218.742188 257.382812 C 219.136719 257.382812 219.335938 257.601562 219.335938 258.039062 C 219.335938 258.1875 219.320312 258.328125 219.289062 258.460938 L 218.757812 261.226562 C 218.746094 261.3125 218.742188 261.410156 218.742188 261.523438 C 218.742188 261.722656 218.804688 261.820312 218.929688 261.820312 C 219.011719 261.820312 219.105469 261.785156 219.210938 261.710938 C 219.3125 261.640625 219.4375 261.53125 219.585938 261.382812 C 219.605469 261.363281 219.625 261.351562 219.648438 261.351562 C 219.667969 261.351562 219.683594 261.367188 219.695312 261.398438 C 219.714844 261.429688 219.714844 261.457031 219.695312 261.476562 C 219.414062 261.820312 219.15625 262.070312 218.929688 262.226562 C 218.710938 262.382812 218.480469 262.460938 218.242188 262.460938 Z M 218.242188 262.460938 " fill-opacity="1" fill-rule="nonzero"/><path fill="#ffffff" d="M 229.402344 261.382812 C 229.421875 261.363281 229.433594 261.351562 229.433594 261.351562 C 229.464844 261.351562 229.484375 261.367188 229.496094 261.398438 C 229.515625 261.429688 229.515625 261.457031 229.496094 261.476562 C 229.214844 261.820312 228.957031 262.070312 228.730469 262.226562 C 228.511719 262.382812 228.285156 262.460938 228.058594 262.460938 C 227.652344 262.460938 227.449219 262.226562 227.449219 261.757812 C 227.449219 261.632812 227.46875 261.457031 227.511719 261.226562 L 227.886719 259.226562 C 227.925781 259 227.949219 258.8125 227.949219 258.664062 C 227.949219 258.257812 227.8125 258.054688 227.542969 258.054688 C 227.300781 258.054688 227.058594 258.207031 226.808594 258.507812 C 226.558594 258.8125 226.316406 259.257812 226.089844 259.851562 C 225.871094 260.4375 225.6875 261.140625 225.542969 261.960938 L 225.496094 262.195312 C 225.453125 262.359375 225.21875 262.445312 224.792969 262.445312 C 224.519531 262.445312 224.386719 262.414062 224.386719 262.351562 L 224.433594 262.085938 C 224.515625 261.691406 224.5625 261.46875 224.574219 261.414062 L 225.089844 258.617188 C 225.109375 258.546875 225.121094 258.453125 225.121094 258.335938 C 225.121094 258.109375 225.046875 257.992188 224.902344 257.992188 C 224.722656 257.992188 224.480469 258.164062 224.167969 258.507812 C 224.15625 258.507812 224.144531 258.507812 224.136719 258.507812 C 224.105469 258.507812 224.078125 258.5 224.058594 258.476562 C 224.046875 258.445312 224.050781 258.414062 224.074219 258.382812 C 224.375 258.039062 224.644531 257.789062 224.886719 257.632812 C 225.125 257.46875 225.363281 257.382812 225.605469 257.382812 C 226 257.382812 226.199219 257.609375 226.199219 258.054688 C 226.199219 258.179688 226.183594 258.316406 226.152344 258.460938 L 225.949219 259.617188 C 226.25 258.878906 226.589844 258.316406 226.964844 257.929688 C 227.347656 257.535156 227.753906 257.335938 228.183594 257.335938 C 228.753906 257.335938 229.042969 257.6875 229.042969 258.382812 C 229.042969 258.539062 229.019531 258.742188 228.980469 258.992188 L 228.574219 261.226562 C 228.542969 261.351562 228.527344 261.457031 228.527344 261.539062 C 228.527344 261.726562 228.59375 261.820312 228.730469 261.820312 C 228.8125 261.820312 228.90625 261.785156 229.011719 261.710938 C 229.125 261.640625 229.253906 261.53125 229.402344 261.382812 Z M 229.402344 261.382812 " fill-opacity="1" fill-rule="nonzero"/><path fill="#ffffff" d="M 236.929688 257.335938 C 237.25 257.335938 237.5 257.394531 237.679688 257.507812 C 237.855469 257.613281 237.945312 257.757812 237.945312 257.945312 C 237.945312 258.320312 237.664062 258.675781 237.101562 259.007812 C 236.546875 259.34375 235.875 259.585938 235.085938 259.742188 C 235.0625 259.921875 235.054688 260.097656 235.054688 260.273438 C 235.054688 260.773438 235.15625 261.179688 235.367188 261.492188 C 235.574219 261.796875 235.882812 261.945312 236.289062 261.945312 C 236.464844 261.945312 236.65625 261.914062 236.867188 261.851562 C 237.074219 261.789062 237.261719 261.691406 237.429688 261.554688 L 237.445312 261.554688 C 237.464844 261.554688 237.484375 261.570312 237.507812 261.601562 C 237.527344 261.625 237.527344 261.644531 237.507812 261.664062 C 237.203125 261.957031 236.886719 262.171875 236.554688 262.304688 C 236.21875 262.4375 235.886719 262.507812 235.554688 262.507812 C 234.96875 262.507812 234.53125 262.332031 234.242188 261.976562 C 233.960938 261.625 233.820312 261.179688 233.820312 260.648438 C 233.820312 260.460938 233.839844 260.253906 233.882812 260.023438 C 233.964844 259.578125 234.148438 259.148438 234.429688 258.742188 C 234.71875 258.328125 235.085938 257.988281 235.523438 257.726562 C 235.960938 257.46875 236.429688 257.335938 236.929688 257.335938 Z M 236.664062 258.273438 C 236.671875 258.242188 236.679688 258.195312 236.679688 258.132812 C 236.679688 257.988281 236.640625 257.878906 236.570312 257.804688 C 236.507812 257.722656 236.40625 257.679688 236.273438 257.679688 C 236.011719 257.679688 235.777344 257.851562 235.570312 258.195312 C 235.359375 258.539062 235.210938 258.988281 235.117188 259.539062 C 236.074219 259.289062 236.589844 258.867188 236.664062 258.273438 Z M 236.664062 258.273438 " fill-opacity="1" fill-rule="nonzero"/><path fill="#ffffff" d="M 245.191406 257.335938 C 245.511719 257.335938 245.761719 257.394531 245.941406 257.507812 C 246.117188 257.613281 246.207031 257.757812 246.207031 257.945312 C 246.207031 258.320312 245.925781 258.675781 245.363281 259.007812 C 244.808594 259.34375 244.136719 259.585938 243.347656 259.742188 C 243.324219 259.921875 243.316406 260.097656 243.316406 260.273438 C 243.316406 260.773438 243.417969 261.179688 243.628906 261.492188 C 243.835938 261.796875 244.144531 261.945312 244.550781 261.945312 C 244.726562 261.945312 244.917969 261.914062 245.128906 261.851562 C 245.335938 261.789062 245.523438 261.691406 245.691406 261.554688 L 245.707031 261.554688 C 245.726562 261.554688 245.746094 261.570312 245.769531 261.601562 C 245.789062 261.625 245.789062 261.644531 245.769531 261.664062 C 245.464844 261.957031 245.148438 262.171875 244.816406 262.304688 C 244.480469 262.4375 244.148438 262.507812 243.816406 262.507812 C 243.230469 262.507812 242.792969 262.332031 242.503906 261.976562 C 242.222656 261.625 242.082031 261.179688 242.082031 260.648438 C 242.082031 260.460938 242.101562 260.253906 242.144531 260.023438 C 242.226562 259.578125 242.410156 259.148438 242.691406 258.742188 C 242.980469 258.328125 243.347656 257.988281 243.785156 257.726562 C 244.222656 257.46875 244.691406 257.335938 245.191406 257.335938 Z M 244.925781 258.273438 C 244.933594 258.242188 244.941406 258.195312 244.941406 258.132812 C 244.941406 257.988281 244.902344 257.878906 244.832031 257.804688 C 244.769531 257.722656 244.667969 257.679688 244.535156 257.679688 C 244.273438 257.679688 244.039062 257.851562 243.832031 258.195312 C 243.621094 258.539062 243.472656 258.988281 243.378906 259.539062 C 244.335938 259.289062 244.851562 258.867188 244.925781 258.273438 Z M 244.925781 258.273438 " fill-opacity="1" fill-rule="nonzero"/><path fill="#ffffff" d="M 253.796875 257.382812 C 254.015625 257.382812 254.222656 257.46875 254.421875 257.632812 C 254.617188 257.789062 254.703125 257.96875 254.671875 258.164062 C 254.648438 258.289062 254.585938 258.410156 254.484375 258.523438 C 254.390625 258.628906 254.265625 258.679688 254.109375 258.679688 C 253.960938 258.679688 253.800781 258.609375 253.625 258.460938 C 253.5625 258.421875 253.5 258.382812 253.4375 258.351562 C 253.382812 258.320312 253.328125 258.304688 253.265625 258.304688 C 253.128906 258.304688 252.953125 258.53125 252.734375 258.976562 C 252.523438 259.414062 252.328125 259.941406 252.140625 260.554688 C 251.953125 261.171875 251.816406 261.71875 251.734375 262.195312 C 251.710938 262.28125 251.644531 262.34375 251.53125 262.382812 C 251.414062 262.421875 251.25 262.445312 251.03125 262.445312 C 250.75 262.445312 250.609375 262.414062 250.609375 262.351562 C 250.617188 262.289062 250.644531 262.164062 250.6875 261.976562 C 250.738281 261.78125 250.78125 261.59375 250.8125 261.414062 L 251.328125 258.617188 C 251.347656 258.484375 251.359375 258.394531 251.359375 258.351562 C 251.359375 258.113281 251.28125 257.992188 251.125 257.992188 C 250.957031 257.992188 250.722656 258.164062 250.421875 258.507812 C 250.410156 258.507812 250.394531 258.507812 250.375 258.507812 C 250.34375 258.507812 250.316406 258.5 250.296875 258.476562 C 250.285156 258.445312 250.289062 258.414062 250.3125 258.382812 C 250.613281 258.039062 250.882812 257.789062 251.125 257.632812 C 251.363281 257.46875 251.601562 257.382812 251.84375 257.382812 C 252.050781 257.382812 252.203125 257.441406 252.296875 257.554688 C 252.390625 257.671875 252.4375 257.835938 252.4375 258.054688 C 252.4375 258.179688 252.425781 258.316406 252.40625 258.460938 L 252.15625 259.851562 C 252.644531 258.207031 253.191406 257.382812 253.796875 257.382812 Z M 253.796875 257.382812 " fill-opacity="1" fill-rule="nonzero"/></svg>